<svg xmlns="http://www.w3.org/2000/svg" width="58" height="75" viewBox="0 0 58 75"><defs><style>.a{fill:#8bc34a;}</style></defs><path class="a" d="M64.833,45.3a37.373,37.373,0,0,1-4.2-16.333,26.81,26.81,0,0,1,48.828-15.251,1.1,1.1,0,0,0,1.809-1.255,29.013,29.013,0,0,0-52.84,16.505,39.535,39.535,0,0,0,4.422,17.3,1.1,1.1,0,0,0,1.979-.966Z" transform="translate(-58.432)"/><path class="a" d="M150.79,108.159a1.1,1.1,0,0,0-1.984.956,26.479,26.479,0,0,1,2.651,11.62,37.429,37.429,0,0,1-4.236,16.41,71.37,71.37,0,0,1-9.43,14.135,103.8,103.8,0,0,1-13.135,13.038c-2.785-2.282-13.569-11.536-20.549-23.434a1.1,1.1,0,0,0-1.9,1.112c8.251,14.065,21.227,24.18,21.775,24.6a1.1,1.1,0,0,0,1.348,0,101.5,101.5,0,0,0,14.122-13.874,73.636,73.636,0,0,0,9.736-14.59,39.6,39.6,0,0,0,4.473-17.4A28.662,28.662,0,0,0,150.79,108.159Z" transform="translate(-95.66 -91.83)"/><path class="a" d="M176,119.727a1.1,1.1,0,0,0-1.513.361,12.215,12.215,0,1,0,3.31-3.551,1.1,1.1,0,1,0,1.28,1.788,10,10,0,1,1-2.717,2.914A1.1,1.1,0,0,0,176,119.727Z" transform="translate(-155.903 -97.529)"/></svg>