<svg xmlns="http://www.w3.org/2000/svg" width="70" height="77.572" viewBox="0 0 70 77.572"><defs><style>.a{fill:none;}.b{fill:#fff;}.c,.d{stroke:none;}.d{fill:#3f51b5;}</style></defs><g transform="translate(-817 -4138.214)"><g class="a" transform="translate(887 4137) rotate(90)"><path class="c" d="M55.357,0A8,8,0,0,1,62.3,4.031l15.429,27a8,8,0,0,1,0,7.938l-15.429,27A8,8,0,0,1,55.357,70H24.643A8,8,0,0,1,17.7,65.969l-15.429-27a8,8,0,0,1,0-7.938l15.429-27A8,8,0,0,1,24.643,0Z"/><path class="d" d="M 24.642578125 1 C 22.13687896728516 1 19.80804443359375 2.351478576660156 18.56488800048828 4.527023315429688 L 3.136314392089844 31.52703475952148 C 1.912185668945312 33.66923522949219 1.912185668945312 36.33075714111328 3.136314392089844 38.47297668457031 L 18.56487655639648 65.47296905517578 C 19.80804443359375 67.64852142333984 22.13689041137695 69 24.642578125 69 L 55.357421875 69 C 57.86311340332031 69 60.19195556640625 67.64852142333984 61.43511962890625 65.47297668457031 L 76.86368560791016 38.47296905517578 C 78.08781433105469 36.33075714111328 78.08781433105469 33.66923522949219 76.86368560791016 31.52702331542969 L 61.43511962890625 4.527023315429688 C 60.19195556640625 2.351478576660156 57.86311340332031 1 55.357421875 1 L 24.642578125 1 M 24.642578125 0 L 55.357421875 0 C 58.22827911376953 0 60.87902069091797 1.538276672363281 62.30336761474609 4.030876159667969 L 77.73193359375 31.03088760375977 C 79.13734436035156 33.4903450012207 79.13734436035156 36.5096435546875 77.73193359375 38.96910858154297 L 62.30336761474609 65.96910858154297 C 60.87902069091797 68.46170806884766 58.22827911376953 70 55.357421875 70 L 24.642578125 70 C 21.77172088623047 70 19.12097930908203 68.46170806884766 17.69663238525391 65.96910858154297 L 2.26806640625 38.96910858154297 C 0.8626556396484375 36.5096435546875 0.8626556396484375 33.4903450012207 2.26806640625 31.03088760375977 L 17.6966438293457 4.030876159667969 C 19.12097930908203 1.538276672363281 21.77173233032227 0 24.642578125 0 Z"/></g><g transform="translate(222.8 867.446)"><path class="b" d="M492.486,411.057c.882,0,1.765.009,2.647,0a4.384,4.384,0,0,1,3.65,1.683c.448.554.909,1.1,1.371,1.64a3.115,3.115,0,0,0,1.867,1.054.593.593,0,0,0,.689-.265,1.677,1.677,0,0,1,1.873-.538.657.657,0,0,1,.336.529.867.867,0,0,1-.471.494c-.246.113-.693.024-.787.181a2.068,2.068,0,0,0-.12.979c-.01,1.2.006,2.41-.01,3.614-.005.414.147.591.566.576.491-.018.985-.022,1.476,0,.371.017.509-.107.5-.492-.021-1.086,0-2.172-.009-3.258,0-.391.063-.763.536-.758s.582.363.578.788c-.011,1.341,0,2.681-.005,4.022,0,.616-.169.789-.783.794-.8.007-1.6,0-2.393,0a1.565,1.565,0,0,1-1.361-.654.734.734,0,0,0-.506-.225c-.627-.027-1.255-.007-1.883-.012a4.818,4.818,0,0,1-3.285-1.17c-1.224-1.1-2.419-2.234-3.563-3.415a1.687,1.687,0,0,1,.869-2.836,1.494,1.494,0,0,1,1.386.315c.88.771,1.739,1.566,2.6,2.36a.548.548,0,1,1-.764.783c-.692-.626-1.378-1.259-2.067-1.888a4.9,4.9,0,0,0-.42-.37.514.514,0,0,0-.8.093.866.866,0,0,0,.013.762,6.617,6.617,0,0,0,.923.941q1.115,1.08,2.235,2.156a4.157,4.157,0,0,0,2.951,1.173c.56,0,1.12-.009,1.68,0,.292.007.438-.077.434-.4-.013-.916-.009-1.833,0-2.749,0-.265-.082-.4-.369-.427a4.33,4.33,0,0,1-3.035-1.763c-.386-.495-.793-.974-1.2-1.448a3.152,3.152,0,0,0-2.5-1.164c-1.918.009-3.835,0-5.753,0-.051,0-.1,0-.153,0-.516.014-.8.239-.808.646-.011.426.279.68.822.688q1.069.016,2.138,0c.408-.005.733.106.724.575-.009.448-.343.526-.718.523-.764-.006-1.527.008-2.291,0a1.773,1.773,0,0,1-1.8-1.707,1.738,1.738,0,0,1,1.685-1.813c1.1-.049,2.205-.011,3.308-.011Z" transform="translate(137.024 2886)"/><path class="b" d="M400.938,562.485q-1.4,0-2.8,0a4.351,4.351,0,0,1-3.545-1.685q-.688-.851-1.406-1.677a2.866,2.866,0,0,0-1.885-1.006.747.747,0,0,0-.583.234,1.8,1.8,0,0,1-1.934.566c-.159-.025-.413-.358-.38-.487a.958.958,0,0,1,.483-.547c.257-.122.735-.02.831-.184a2.2,2.2,0,0,0,.118-1.03c.01-1.171-.012-2.342.011-3.512.009-.469-.168-.643-.627-.62-.491.025-.984.019-1.476,0-.333-.012-.445.118-.44.447.014,1.018,0,2.036.005,3.054,0,.382-.034.737-.526.768-.379.024-.582-.248-.583-.774q0-1.909,0-3.818c0-.593.167-.769.746-.776.831-.009,1.663,0,2.494,0a1.533,1.533,0,0,1,1.274.622.811.811,0,0,0,.542.254c.643.031,1.289,0,1.934.015a4.852,4.852,0,0,1,3.272,1.2c1.192,1.084,2.362,2.195,3.486,3.347a1.665,1.665,0,0,1-.909,2.853,1.961,1.961,0,0,1-1.358-.354c-.895-.695-1.7-1.508-2.534-2.277a.529.529,0,0,1-.067-.809.514.514,0,0,1,.807,0c.692.626,1.377,1.259,2.066,1.888a4.68,4.68,0,0,0,.42.369.514.514,0,0,0,.8-.1.824.824,0,0,0-.014-.759c-1.214-1.207-2.445-2.4-3.723-3.537a3.334,3.334,0,0,0-2.134-.723c-.644-.026-1.289,0-1.934-.015-.293-.007-.437.079-.433.4.013.916.009,1.832,0,2.749,0,.265.081.4.37.426a4.29,4.29,0,0,1,3,1.724c.4.505.815,1,1.236,1.487a3.158,3.158,0,0,0,2.5,1.164c1.917,0,3.835,0,5.752,0,.051,0,.1,0,.153,0,.52-.014.792-.232.806-.646s-.273-.678-.82-.687c-.645-.011-1.29-.008-1.934,0-.389,0-.7-.12-.7-.551s.312-.551.7-.547c.7.008,1.392-.009,2.087.006a1.768,1.768,0,0,1,1.8,1.763,1.8,1.8,0,0,1-1.742,1.774c-.068,0-.136.009-.2.009Z" transform="translate(228 2759.569)"/><path class="b" d="M488.1,507.216a2.688,2.688,0,0,1,4.249-2.02.576.576,0,0,0,.819,0,2.679,2.679,0,0,1,3.186,4.309c-.995.794-1.986,1.592-2.984,2.382-.527.417-.686.415-1.2.008q-1.48-1.164-2.953-2.338A2.8,2.8,0,0,1,488.1,507.216Zm8.336.2a1.9,1.9,0,0,0-1.284-1.575,1.576,1.576,0,0,0-1.79.744c-.425.668-.789.681-1.186.027a1.528,1.528,0,0,0-1.575-.809,1.571,1.571,0,0,0-.783,2.8c.876.724,1.782,1.411,2.665,2.127a.386.386,0,0,0,.574-.011c.895-.729,1.826-1.415,2.686-2.181A4.587,4.587,0,0,0,496.431,507.421Z" transform="translate(136.482 2801.738)"/><path class="b" d="M605.183,553.976c.2-.15.387-.385.61-.429a.523.523,0,1,1,.043,1.044c-.225-.023-.43-.239-.643-.368Q605.188,554.1,605.183,553.976Z" transform="translate(31.318 2757.821)"/><path class="b" d="M589.624,584.7c-.14-.211-.369-.409-.4-.634-.044-.323.205-.527.542-.52s.575.216.511.543c-.043.224-.272.412-.418.617Z" transform="translate(45.656 2730.824)"/><path class="b" d="M509.155,452.461c-.147-.2-.377-.391-.421-.615a.434.434,0,0,1,.5-.53.8.8,0,0,1,.535.512c.029.185-.243.417-.382.628Z" transform="translate(117.953 2849.787)"/><path class="b" d="M457.493,494.115c-.224.123-.461.36-.667.335a.751.751,0,0,1-.468-.525.434.434,0,0,1,.543-.5c.225.047.409.289.611.444Z" transform="translate(164.993 2811.907)"/><path class="b" d="M610.291,535.7c.135.213.358.416.385.642a.435.435,0,0,1-.545.494.745.745,0,0,1-.475-.516c-.007-.2.251-.417.394-.626Z" transform="translate(27.301 2773.873)"/><path class="b" d="M448.1,544.762c.088-.477.3-.708.615-.643a.808.808,0,0,1,.52.486.444.444,0,0,1-.5.551C448.513,545.135,448.309,544.9,448.1,544.762Z" transform="translate(172.406 2766.303)"/><path class="b" d="M599.713,570.494c-.12-.22-.329-.437-.337-.661a.479.479,0,0,1,.577-.488.47.47,0,0,1,.466.59c-.06.22-.308.39-.472.582Z" transform="translate(36.534 2743.602)"/><path class="b" d="M562.622,604.771c-.211.142-.41.375-.636.4a.438.438,0,0,1-.505-.538.751.751,0,0,1,.509-.488c.2-.012.422.244.634.382Z" transform="translate(70.582 2712.29)"/><path class="b" d="M545.663,608.275c.119.221.324.437.336.664a.463.463,0,0,1-.579.471c-.319-.04-.554-.27-.464-.589.062-.218.308-.384.471-.574Z" transform="translate(85.428 2708.602)"/><path class="b" d="M451.312,510.329c-.2.151-.39.387-.615.432-.315.064-.538-.16-.554-.5s.193-.578.512-.541c.227.026.432.242.646.373Q451.306,510.212,451.312,510.329Z" transform="translate(170.569 2797.241)"/><path class="b" d="M610.622,519.992c-.194.143-.372.37-.585.409a.474.474,0,0,1-.573-.5c-.012-.336.192-.592.519-.547.226.031.425.264.636.406Q610.621,519.878,610.622,519.992Z" transform="translate(27.473 2788.573)"/><path class="b" d="M493.054,458.439c-.144-.207-.42-.43-.4-.615a.8.8,0,0,1,.517-.529.43.43,0,0,1,.514.517c-.035.224-.256.42-.394.628Z" transform="translate(132.384 2844.412)"/><path class="b" d="M577.662,595.9c-.218.13-.445.374-.65.357a.74.74,0,0,1-.489-.5.437.437,0,0,1,.52-.524c.228.042.419.28.627.43Z" transform="translate(57.066 2720.321)"/><path class="b" d="M387.5,615.311a.486.486,0,0,1-.535.543c-.335,0-.6-.2-.529-.531a.8.8,0,0,1,.506-.514A.466.466,0,0,1,387.5,615.311Z" transform="translate(227.797 2702.659)"/><path class="b" d="M478.641,465.792c.138.2.363.385.393.6a.483.483,0,0,1-.525.552c-.338,0-.584-.209-.524-.537.041-.225.278-.414.427-.619Z" transform="translate(145.571 2836.761)"/><path class="b" d="M466.5,478.026c.149.2.386.387.427.609a.436.436,0,0,1-.511.53.752.752,0,0,1-.514-.483c-.023-.2.223-.429.352-.645Z" transform="translate(156.418 2825.751)"/><path class="b" d="M446.9,527.394c.209-.137.427-.391.625-.377a.752.752,0,0,1,.5.488.444.444,0,0,1-.5.547c-.222-.025-.42-.266-.629-.41Z" transform="translate(173.486 2781.679)"/></g></g></svg>