<svg xmlns="http://www.w3.org/2000/svg" xmlns:xlink="http://www.w3.org/1999/xlink" width="1920.463" height="899.184" viewBox="0 0 1920.463 899.184"><defs><style>.a{fill:#465acb;}.b{fill:#536dfe;}.c{fill:#495fd8;}.d{fill:url(#a);}.e{fill:url(#b);}</style><linearGradient id="a" x1="0.976" y1="1" x2="0" y2="1" gradientUnits="objectBoundingBox"><stop offset="0" stop-color="#3f51b5"/><stop offset="1" stop-color="#3f51b5"/></linearGradient><linearGradient id="b" x1="1.016" y1="1" x2="0" y2="1" gradientUnits="objectBoundingBox"><stop offset="0" stop-color="#3f51b5"/><stop offset="1" stop-color="#303f9f"/></linearGradient></defs><g transform="translate(6357.19 -122)"><path class="a" d="M1912.3,1104.484v27.391s-91.652,8.263-199.067,28.035-302.449,31.849-362.447,30.755-183.129-2.05-294.784-18.054c-25.167-22.479,61.821-59.668,61.821-59.668l618.284-74.493Z" transform="translate(-6349.301 -169.55)"/><path class="b" d="M1912.3,1048.1v56.38s-109.392-20.523-178.26-25.329c1.132-.012,27.734-16.81,27.734-16.81l137.592-22.744Z" transform="translate(-6349.301 -169.55)"/><path class="c" d="M1737.791,1079.216s-257.5,104.926-597.3,77.251c4.137-51.917,529.66-100.663,529.66-100.663Z" transform="translate(-6349.301 -169.55)"/><path class="b" d="M7,1124.36s75.187-16.21,209.968-32.615c-40.656-18.85-192.477-9.08-192.477-9.08L7,1093.16Z" transform="translate(-6364 -169.55)"/><path class="d" d="M7,1093.991s111.661-3.387,174.9,2.089c.908.147,158.352-17.291,295.423-11.042s203.338,16.611,359.936,51.077c104.258,19.993,233.645,36.538,233.645,36.538l89.544-16.713-3.942-3.469L387,1016.557,7,1047.69Z" transform="translate(-6364 -169.55)"/><path class="e" d="M7,1067.675s280.723-62.337,546.252-3.686,465.565,94.49,604,92.568c137.937-23.4,268.866-104.5,594.02-77.28,48.406-17.442,163.827-34.754,175.2-30.8,1.186,1.055.7-756.928.7-756.928H6.81Z" transform="translate(-6364 -169.55)"/></g></svg>