<svg xmlns="http://www.w3.org/2000/svg" width="33" height="24" viewBox="0 0 33 24"><defs><style>.a{fill:none;stroke:#fff;stroke-linecap:round;stroke-linejoin:round;stroke-width:3px;}</style></defs><g transform="translate(1.5 1.5)"><path class="a" d="M30.871,9.287a3.783,3.783,0,0,0-2.645-2.717C25.88,6,16.5,6,16.5,6S7.118,6,4.772,6.625A3.783,3.783,0,0,0,2.127,9.342,39.246,39.246,0,0,0,1.5,16.527a39.245,39.245,0,0,0,.627,7.24,3.784,3.784,0,0,0,2.645,2.608C7.118,27,16.5,27,16.5,27s9.381,0,11.727-.625a3.783,3.783,0,0,0,2.645-2.717,39.245,39.245,0,0,0,.627-7.131,39.245,39.245,0,0,0-.627-7.24Z" transform="translate(-1.499 -6)"/><path class="a" d="M14.625,22.53l8.625-4.905-8.625-4.9Z" transform="translate(-3.115 -7.1)"/></g></svg>