<svg xmlns="http://www.w3.org/2000/svg" width="70" height="77.572" viewBox="0 0 70 77.572"><defs><style>.a{fill:#fff;}.b,.c,.d,.g{fill:none;}.b,.c,.d{stroke:#8bc34a;}.c{stroke-linecap:round;}.d{stroke-width:1.5px;}.e,.f{stroke:none;}.f{fill:#3f51b5;}</style></defs><g transform="translate(-361 -1555.214)"><g class="a" transform="translate(431 1554) rotate(90)"><path class="e" d="M 55.357421875 69.5 L 24.64258003234863 69.5 C 21.95791053771973 69.5 19.46273040771484 68.05198669433594 18.13076019287109 65.72104644775391 L 2.702179908752441 38.72103881835938 C 1.390630006790161 36.42581939697266 1.390640020370483 33.57418060302734 2.702189922332764 31.27894973754883 L 18.13076019287109 4.278960227966309 C 19.46273040771484 1.948009967803955 21.95791053771973 0.5 24.64258003234863 0.5 L 55.357421875 0.5 C 58.04209136962891 0.5 60.53726959228516 1.948009967803955 61.8692512512207 4.278960227966309 L 77.29781341552734 31.27895927429199 C 78.60938262939453 33.57418060302734 78.60938262939453 36.42581939697266 77.29781341552734 38.72103881835938 L 61.8692512512207 65.72104644775391 C 60.53726959228516 68.05198669433594 58.04207992553711 69.5 55.357421875 69.5 Z"/><path class="f" d="M 24.642578125 1 C 22.13687896728516 1 19.80804443359375 2.351478576660156 18.56488800048828 4.527023315429688 L 3.136314392089844 31.52703475952148 C 1.912185668945312 33.66923522949219 1.912185668945312 36.33075714111328 3.136314392089844 38.47297668457031 L 18.56487655639648 65.47296905517578 C 19.80804443359375 67.64852142333984 22.13689041137695 69 24.642578125 69 L 55.357421875 69 C 57.86311340332031 69 60.19195556640625 67.64852142333984 61.43511962890625 65.47297668457031 L 76.86368560791016 38.47296905517578 C 78.08781433105469 36.33075714111328 78.08781433105469 33.66923522949219 76.86368560791016 31.52702331542969 L 61.43511962890625 4.527023315429688 C 60.19195556640625 2.351478576660156 57.86311340332031 1 55.357421875 1 L 24.642578125 1 M 24.642578125 0 L 55.357421875 0 C 58.22827911376953 0 60.87902069091797 1.538276672363281 62.30336761474609 4.030876159667969 L 77.73193359375 31.03088760375977 C 79.13734436035156 33.4903450012207 79.13734436035156 36.5096435546875 77.73193359375 38.96910858154297 L 62.30336761474609 65.96910858154297 C 60.87902069091797 68.46170806884766 58.22827911376953 70 55.357421875 70 L 24.642578125 70 C 21.77172088623047 70 19.12097930908203 68.46170806884766 17.69663238525391 65.96910858154297 L 2.26806640625 38.96910858154297 C 0.8626556396484375 36.5096435546875 0.8626556396484375 33.4903450012207 2.26806640625 31.03088760375977 L 17.6966438293457 4.030876159667969 C 19.12097930908203 1.538276672363281 21.77173233032227 0 24.642578125 0 Z"/></g><g transform="translate(-5096 1045)"><g class="b" transform="translate(5481 538)"><rect class="e" width="22" height="22" rx="2"/><rect class="g" x="0.5" y="0.5" width="21" height="21" rx="1.5"/></g><g class="c" transform="translate(5486 534)"><rect class="e" width="2" height="5" rx="1"/><rect class="g" x="0.5" y="0.5" width="1" height="4" rx="0.5"/></g><g class="c" transform="translate(5486 559)"><rect class="e" width="2" height="5" rx="1"/><rect class="g" x="0.5" y="0.5" width="1" height="4" rx="0.5"/></g><g class="c" transform="translate(5507 543) rotate(90)"><rect class="e" width="2" height="5" rx="1"/><rect class="g" x="0.5" y="0.5" width="1" height="4" rx="0.5"/></g><g class="c" transform="translate(5482 543) rotate(90)"><rect class="e" width="2" height="5" rx="1"/><rect class="g" x="0.5" y="0.5" width="1" height="4" rx="0.5"/></g><g class="c" transform="translate(5491 534)"><rect class="e" width="2" height="5" rx="1"/><rect class="g" x="0.5" y="0.5" width="1" height="4" rx="0.5"/></g><g class="c" transform="translate(5491 559)"><rect class="e" width="2" height="5" rx="1"/><rect class="g" x="0.5" y="0.5" width="1" height="4" rx="0.5"/></g><g class="c" transform="translate(5507 548) rotate(90)"><rect class="e" width="2" height="5" rx="1"/><rect class="g" x="0.5" y="0.5" width="1" height="4" rx="0.5"/></g><g class="c" transform="translate(5482 548) rotate(90)"><rect class="e" width="2" height="5" rx="1"/><rect class="g" x="0.5" y="0.5" width="1" height="4" rx="0.5"/></g><g class="c" transform="translate(5496 534)"><rect class="e" width="2" height="5" rx="1"/><rect class="g" x="0.5" y="0.5" width="1" height="4" rx="0.5"/></g><g class="c" transform="translate(5496 559)"><rect class="e" width="2" height="5" rx="1"/><rect class="g" x="0.5" y="0.5" width="1" height="4" rx="0.5"/></g><g class="c" transform="translate(5507 553) rotate(90)"><rect class="e" width="2" height="5" rx="1"/><rect class="g" x="0.5" y="0.5" width="1" height="4" rx="0.5"/></g><g class="c" transform="translate(5482 553) rotate(90)"><rect class="e" width="2" height="5" rx="1"/><rect class="g" x="0.5" y="0.5" width="1" height="4" rx="0.5"/></g><g class="d" transform="translate(5485 542)"><circle class="e" cx="2.5" cy="2.5" r="2.5"/><circle class="g" cx="2.5" cy="2.5" r="1.75"/></g><g class="d" transform="translate(5485 551)"><circle class="e" cx="2.5" cy="2.5" r="2.5"/><circle class="g" cx="2.5" cy="2.5" r="1.75"/></g><g class="d" transform="translate(5495 551)"><circle class="e" cx="2.5" cy="2.5" r="2.5"/><circle class="g" cx="2.5" cy="2.5" r="1.75"/></g><line class="d" y2="5" transform="translate(5487.5 546.5)"/><line class="d" x2="6" transform="translate(5489.5 553.5)"/></g></g></svg>