<svg xmlns="http://www.w3.org/2000/svg" width="70" height="80" viewBox="0 0 70 80"><defs><style>.a{fill:#fff;}.b{fill:#8bc34a;}.c,.d{stroke:none;}.d{fill:#3f51b5;}</style></defs><g transform="translate(-361 -1354)"><g class="a" transform="translate(431 1354) rotate(90)"><path class="c" d="M 55.357421875 69.5 L 24.64258003234863 69.5 C 21.95791053771973 69.5 19.46273040771484 68.05198669433594 18.13076019287109 65.72104644775391 L 2.702179908752441 38.72103881835938 C 1.390630006790161 36.42581939697266 1.390640020370483 33.57418060302734 2.702189922332764 31.27894973754883 L 18.13076019287109 4.278960227966309 C 19.46273040771484 1.948009967803955 21.95791053771973 0.5 24.64258003234863 0.5 L 55.357421875 0.5 C 58.04209136962891 0.5 60.53726959228516 1.948009967803955 61.8692512512207 4.278960227966309 L 77.29781341552734 31.27895927429199 C 78.60938262939453 33.57418060302734 78.60938262939453 36.42581939697266 77.29781341552734 38.72103881835938 L 61.8692512512207 65.72104644775391 C 60.53726959228516 68.05198669433594 58.04207992553711 69.5 55.357421875 69.5 Z"/><path class="d" d="M 24.642578125 1 C 22.13687896728516 1 19.80804443359375 2.351478576660156 18.56488800048828 4.527023315429688 L 3.136314392089844 31.52703475952148 C 1.912185668945312 33.66923522949219 1.912185668945312 36.33075714111328 3.136314392089844 38.47297668457031 L 18.56487655639648 65.47296905517578 C 19.80804443359375 67.64852142333984 22.13689041137695 69 24.642578125 69 L 55.357421875 69 C 57.86311340332031 69 60.19195556640625 67.64852142333984 61.43511962890625 65.47297668457031 L 76.86368560791016 38.47296905517578 C 78.08781433105469 36.33075714111328 78.08781433105469 33.66923522949219 76.86368560791016 31.52702331542969 L 61.43511962890625 4.527023315429688 C 60.19195556640625 2.351478576660156 57.86311340332031 1 55.357421875 1 L 24.642578125 1 M 24.642578125 0 L 55.357421875 0 C 58.22827911376953 0 60.87902069091797 1.538276672363281 62.30336761474609 4.030876159667969 L 77.73193359375 31.03088760375977 C 79.13734436035156 33.4903450012207 79.13734436035156 36.5096435546875 77.73193359375 38.96910858154297 L 62.30336761474609 65.96910858154297 C 60.87902069091797 68.46170806884766 58.22827911376953 70 55.357421875 70 L 24.642578125 70 C 21.77172088623047 70 19.12097930908203 68.46170806884766 17.69663238525391 65.96910858154297 L 2.26806640625 38.96910858154297 C 0.8626556396484375 36.5096435546875 0.8626556396484375 33.4903450012207 2.26806640625 31.03088760375977 L 17.6966438293457 4.030876159667969 C 19.12097930908203 1.538276672363281 21.77173233032227 0 24.642578125 0 Z"/></g><g transform="translate(-794.267 1091.602)"><path class="b" d="M1205.267,311.076h-30V287.4h30Zm-.826-.858V288.255h-28.348v21.963Z"/><path class="b" d="M1183.231,633.118v-.76h7.18V630.25h4.441v-2.875h.836v2.853h4.151V627.9h.837v2.334h4.164v2.109h4.971v.778ZM1204,631.056h-12.712v1.277H1204Z" transform="translate(-7.44 -315.734)"/><path class="b" d="M1592.643,704.087h-1.263v-.761h1.263Z" transform="translate(-387.38 -386.689)"/><path class="b" d="M1214.723,316.09v-.781h15.217v18.379h-26.578V315.307h3.286v.758h-2.458v16.849h.351q5.026,0,10.052.005a.456.456,0,0,0,.5-.291c.193-.421.439-.82.631-1.242a.857.857,0,0,0,.014-.458c-.017-.115-.12-.218-.139-.334-.1-.6-.529-.848-1.1-1-.54-.149-1.057-.371-1.528-.541,0-1-.006-1.968.011-2.932,0-.085.14-.208.241-.243.65-.224,1.311-.42,1.96-.648a.744.744,0,0,0,.321-.289c.086-.126.1-.3.188-.421a1.06,1.06,0,0,0-.008-1.275c-.247-.431-.422-.9-.646-1.344a.28.28,0,0,1,.071-.4q.993-.894,1.964-1.811a.338.338,0,0,1,.451-.057c.605.295,1.214.585,1.833.853a.841.841,0,0,0,.469,0c.178-.038.337-.158.515-.188a.966.966,0,0,0,.815-.769c.16-.5.385-.984.57-1.48a.325.325,0,0,1,.37-.254q1.351.046,2.7.053a.345.345,0,0,1,.381.284c.2.6.409,1.209.644,1.8a.888.888,0,0,0,.353.345c.13.085.315.1.441.183a1.118,1.118,0,0,0,1.271-.008c.332-.174.7-.292,1.037-.452.085-.04.2-.143.2-.218.012-1.225.009-2.451.009-3.7Zm14.392,4.709c-.605.255-1.168.5-1.742.726a.631.631,0,0,1-.407-.016c-.491-.185-.979-.382-1.455-.6a.675.675,0,0,1-.332-.314c-.228-.573-.428-1.156-.626-1.739a.282.282,0,0,0-.319-.219c-.52,0-1.04,0-1.559-.025a.326.326,0,0,0-.379.242c-.21.567-.431,1.132-.673,1.688a.628.628,0,0,1-.322.28c-.486.2-.979.384-1.479.548a.734.734,0,0,1-.47,0c-.557-.237-1.108-.492-1.644-.768a.383.383,0,0,0-.527.087q-.491.487-1.018.94a.35.35,0,0,0-.111.5c.275.53.525,1.072.76,1.619a.579.579,0,0,1-.017.412c-.186.447-.421.875-.592,1.326a.581.581,0,0,1-.434.4c-.584.17-1.162.36-1.736.558-.1.033-.229.144-.231.221-.019.6-.011,1.2-.011,1.833.646.232,1.328.468,2,.728a.619.619,0,0,1,.3.306c.2.441.356.9.561,1.338a.528.528,0,0,1,0,.545c-.269.48-.512.972-.774,1.478h13.24Z" transform="translate(-26.247 -26.073)"/><path class="b" d="M1259.216,378.646v-3.38h3.38v3.38Zm2.593-.781v-1.8h-1.8v1.8Z" transform="translate(-78.129 -81.649)"/><path class="b" d="M1303.239,312.113v-.747h1.015v.747Z" transform="translate(-119.139 -22.391)"/><path class="b" d="M1336.287,311.39v.744h-1.024v-.744Z" transform="translate(-148.953 -22.414)"/><path class="b" d="M1436.564,444.712a3.836,3.836,0,0,1,.022,7.671,3.865,3.865,0,0,1-3.862-3.8A3.918,3.918,0,0,1,1436.564,444.712Zm.015.789a3,3,0,0,0-3.067,3.078,2.937,2.937,0,0,0,3.009,3.012,3.038,3.038,0,0,0,3.081-3.008A2.978,2.978,0,0,0,1436.579,445.5Z" transform="translate(-239.16 -146.015)"/></g></g></svg>