<svg xmlns="http://www.w3.org/2000/svg" width="2205.726" height="1423.123" viewBox="0 0 2205.726 1423.123"><defs><style>.a,.h,.l{fill:none;}.a{stroke:#8bc34a;}.a,.h{opacity:0.15;}.b,.c,.d,.i{fill:#8bc34a;}.b,.e{opacity:0.03;}.c{opacity:0.248;}.d{opacity:0.154;}.e,.f,.g,.j{fill:#3f51b5;}.f{opacity:0.124;}.g{opacity:0.113;}.h{stroke:#3f51b5;}.i{opacity:0.154;}.j{opacity:0.108;}.k{stroke:none;}</style></defs><g transform="translate(155.725 -2578.333)"><g transform="translate(864 668)"><g class="a" transform="translate(-347.076 3161.039) rotate(-135)"><rect class="k" width="128.817" height="127.826" rx="16"/><rect class="l" x="0.5" y="0.5" width="127.817" height="126.826" rx="15.5"/></g><g class="a" transform="translate(-604.711 3333.456) rotate(-135)"><rect class="k" width="128.817" height="127.826" rx="16"/><rect class="l" x="0.5" y="0.5" width="127.817" height="126.826" rx="15.5"/></g><g class="a" transform="translate(-729.246 3305.039) rotate(-135)"><rect class="k" width="104.045" height="103.054" rx="16"/><rect class="l" x="0.5" y="0.5" width="103.045" height="102.054" rx="15.5"/></g><g class="a" transform="translate(-396.763 3014.245) rotate(-135)"><rect class="k" width="129.808" height="127.826" rx="16"/><rect class="l" x="0.5" y="0.5" width="128.808" height="126.826" rx="15.5"/></g><g class="a" transform="translate(-729.205 3124.724) rotate(-135)"><rect class="k" width="100.081" height="99.09" rx="16"/><rect class="l" x="0.5" y="0.5" width="99.081" height="98.09" rx="15.5"/></g><g class="a" transform="translate(-608.314 3124.724) rotate(-135)"><rect class="k" width="126.836" height="124.854" rx="16"/><rect class="l" x="0.5" y="0.5" width="125.836" height="123.854" rx="15.5"/></g><g class="a" transform="translate(-526.571 3014.245) rotate(-135)"><rect class="k" width="129.808" height="127.826" rx="16"/><rect class="l" x="0.5" y="0.5" width="128.808" height="126.826" rx="15.5"/></g><g class="a" transform="translate(-286.163 3302.797) rotate(-135)"><rect class="k" width="82.245" height="92.154" rx="11"/><rect class="l" x="0.5" y="0.5" width="81.245" height="91.154" rx="10.5"/></g></g><g transform="translate(864 668)"><rect class="b" width="118.908" height="117.917" rx="16" transform="translate(-483.891 3298.704) rotate(-135)"/><rect class="b" width="118.908" height="117.917" rx="16" transform="translate(-344.174 3136.196) rotate(-135)"/><rect class="b" width="118.908" height="117.917" rx="16" transform="translate(-483.891 3052.96) rotate(-135)"/><rect class="c" width="118.908" height="117.917" rx="16" transform="translate(-608.745 3224.386) rotate(-135)"/><rect class="b" width="93.145" height="92.154" rx="16" transform="translate(-730.626 3294.969) rotate(-135)"/><rect class="d" width="93.145" height="92.154" rx="16" transform="translate(-732.608 3116.606) rotate(-135)"/></g><g transform="translate(657 233)"><rect class="b" width="118.908" height="117.917" rx="16" transform="translate(-483.891 3298.704) rotate(-135)"/><rect class="b" width="118.908" height="117.917" rx="16" transform="translate(-344.174 3136.196) rotate(-135)"/><rect class="b" width="118.908" height="117.917" rx="16" transform="translate(-483.891 3052.96) rotate(-135)"/><rect class="c" width="118.908" height="117.917" rx="16" transform="translate(-608.745 3224.386) rotate(-135)"/><rect class="b" width="93.145" height="92.154" rx="16" transform="translate(-730.626 3294.969) rotate(-135)"/><rect class="d" width="93.145" height="92.154" rx="16" transform="translate(-732.608 3116.606) rotate(-135)"/></g><g transform="translate(657 233)"><rect class="e" width="149.626" height="148.635" rx="16" transform="translate(-344.183 3284.753) rotate(-135)"/><rect class="e" width="118.908" height="117.917" rx="16" transform="translate(-483.891 3160.969) rotate(-135)"/><rect class="e" width="118.908" height="117.917" rx="16" transform="translate(-344.174 2981.615) rotate(-135)"/><rect class="f" width="107.017" height="106.027" rx="16" transform="translate(-606.763 3101.033) rotate(-135)"/><rect class="e" width="117.917" height="116.926" rx="16" transform="translate(-611.718 2983.116) rotate(-135)"/><rect class="e" width="118.908" height="117.917" rx="16" transform="translate(-611.718 3331.404) rotate(-135)"/><rect class="e" width="93.145" height="92.154" rx="16" transform="translate(-732.608 3189.933) rotate(-135)"/><rect class="g" width="93.145" height="92.154" rx="16" transform="translate(-729.635 3025.443) rotate(-135)"/></g><g transform="translate(864 668)"><rect class="e" width="149.626" height="148.635" rx="16" transform="translate(-344.183 3284.753) rotate(-135)"/><rect class="e" width="118.908" height="117.917" rx="16" transform="translate(-483.891 3160.969) rotate(-135)"/><rect class="e" width="118.908" height="117.917" rx="16" transform="translate(-344.174 2981.615) rotate(-135)"/><rect class="f" width="107.017" height="106.027" rx="16" transform="translate(-606.763 3101.033) rotate(-135)"/><rect class="e" width="117.917" height="116.926" rx="16" transform="translate(-611.718 2983.116) rotate(-135)"/><rect class="e" width="118.908" height="117.917" rx="16" transform="translate(-611.718 3331.404) rotate(-135)"/><rect class="e" width="93.145" height="92.154" rx="16" transform="translate(-732.608 3189.933) rotate(-135)"/><rect class="g" width="93.145" height="92.154" rx="16" transform="translate(-729.635 3025.443) rotate(-135)"/></g><g transform="translate(657 233)"><g class="h" transform="translate(-735.651 3203.507) rotate(-135)"><rect class="k" width="108.999" height="108.008" rx="16"/><rect class="l" x="0.5" y="0.5" width="107.999" height="107.008" rx="15.5"/></g><g class="h" transform="translate(-343.191 3292.75) rotate(-135)"><rect class="k" width="159.535" height="158.544" rx="16"/><rect class="l" x="0.5" y="0.5" width="158.535" height="157.544" rx="15.5"/></g><g class="h" transform="translate(-483.962 3053.881) rotate(-135)"><rect class="k" width="129.808" height="127.826" rx="16"/><rect class="l" x="0.5" y="0.5" width="128.808" height="126.826" rx="15.5"/></g><g class="h" transform="translate(-487.785 3305.711) rotate(-135)"><rect class="k" width="128.817" height="127.826" rx="16"/><rect class="l" x="0.5" y="0.5" width="127.817" height="126.826" rx="15.5"/></g><g class="h" transform="translate(-484.812 3169.957) rotate(-135)"><rect class="k" width="128.817" height="127.826" rx="16"/><rect class="l" x="0.5" y="0.5" width="127.817" height="126.826" rx="15.5"/></g><g class="h" transform="translate(-608.675 3231.393) rotate(-135)"><rect class="k" width="128.817" height="127.826" rx="16"/><rect class="l" x="0.5" y="0.5" width="127.817" height="126.826" rx="15.5"/></g><g class="h" transform="translate(-347.217 2985.509) rotate(-135)"><rect class="k" width="129.808" height="127.826" rx="16"/><rect class="l" x="0.5" y="0.5" width="128.808" height="126.826" rx="15.5"/></g><g class="h" transform="translate(-578.098 3031.09) rotate(-135)"><rect class="k" width="129.808" height="127.826" rx="16"/><rect class="l" x="0.5" y="0.5" width="128.808" height="126.826" rx="15.5"/></g><g class="h" transform="translate(-614.26 2952.307) rotate(-135)"><rect class="k" width="100.081" height="99.09" rx="16"/><rect class="l" x="0.5" y="0.5" width="99.081" height="98.09" rx="15.5"/></g><g class="h" transform="translate(-732.177 3028.607) rotate(-135)"><rect class="k" width="100.081" height="99.09" rx="16"/><rect class="l" x="0.5" y="0.5" width="99.081" height="98.09" rx="15.5"/></g></g><g transform="translate(864 668)"><g class="h" transform="translate(-735.651 3203.507) rotate(-135)"><rect class="k" width="108.999" height="108.008" rx="16"/><rect class="l" x="0.5" y="0.5" width="107.999" height="107.008" rx="15.5"/></g><g class="h" transform="translate(-343.191 3292.75) rotate(-135)"><rect class="k" width="159.535" height="158.544" rx="16"/><rect class="l" x="0.5" y="0.5" width="158.535" height="157.544" rx="15.5"/></g><g class="h" transform="translate(-483.962 3053.881) rotate(-135)"><rect class="k" width="129.808" height="127.826" rx="16"/><rect class="l" x="0.5" y="0.5" width="128.808" height="126.826" rx="15.5"/></g><g class="h" transform="translate(-487.785 3305.711) rotate(-135)"><rect class="k" width="128.817" height="127.826" rx="16"/><rect class="l" x="0.5" y="0.5" width="127.817" height="126.826" rx="15.5"/></g><g class="h" transform="translate(-484.812 3169.957) rotate(-135)"><rect class="k" width="128.817" height="127.826" rx="16"/><rect class="l" x="0.5" y="0.5" width="127.817" height="126.826" rx="15.5"/></g><g class="h" transform="translate(-608.675 3231.393) rotate(-135)"><rect class="k" width="128.817" height="127.826" rx="16"/><rect class="l" x="0.5" y="0.5" width="127.817" height="126.826" rx="15.5"/></g><g class="h" transform="translate(-347.217 2985.509) rotate(-135)"><rect class="k" width="129.808" height="127.826" rx="16"/><rect class="l" x="0.5" y="0.5" width="128.808" height="126.826" rx="15.5"/></g><g class="h" transform="translate(-578.098 3031.09) rotate(-135)"><rect class="k" width="129.808" height="127.826" rx="16"/><rect class="l" x="0.5" y="0.5" width="128.808" height="126.826" rx="15.5"/></g><g class="h" transform="translate(-614.26 2952.307) rotate(-135)"><rect class="k" width="100.081" height="99.09" rx="16"/><rect class="l" x="0.5" y="0.5" width="99.081" height="98.09" rx="15.5"/></g><g class="h" transform="translate(-732.177 3028.607) rotate(-135)"><rect class="k" width="100.081" height="99.09" rx="16"/><rect class="l" x="0.5" y="0.5" width="99.081" height="98.09" rx="15.5"/></g></g><g transform="translate(657 233)"><g class="a" transform="translate(-347.076 3161.039) rotate(-135)"><rect class="k" width="128.817" height="127.826" rx="16"/><rect class="l" x="0.5" y="0.5" width="127.817" height="126.826" rx="15.5"/></g><g class="a" transform="translate(-604.711 3333.456) rotate(-135)"><rect class="k" width="128.817" height="127.826" rx="16"/><rect class="l" x="0.5" y="0.5" width="127.817" height="126.826" rx="15.5"/></g><g class="a" transform="translate(-729.246 3305.039) rotate(-135)"><rect class="k" width="104.045" height="103.054" rx="16"/><rect class="l" x="0.5" y="0.5" width="103.045" height="102.054" rx="15.5"/></g><g class="a" transform="translate(-396.763 3014.245) rotate(-135)"><rect class="k" width="129.808" height="127.826" rx="16"/><rect class="l" x="0.5" y="0.5" width="128.808" height="126.826" rx="15.5"/></g><g class="a" transform="translate(-729.205 3124.724) rotate(-135)"><rect class="k" width="100.081" height="99.09" rx="16"/><rect class="l" x="0.5" y="0.5" width="99.081" height="98.09" rx="15.5"/></g><g class="a" transform="translate(-608.314 3124.724) rotate(-135)"><rect class="k" width="126.836" height="124.854" rx="16"/><rect class="l" x="0.5" y="0.5" width="125.836" height="123.854" rx="15.5"/></g><g class="a" transform="translate(-526.571 3014.245) rotate(-135)"><rect class="k" width="129.808" height="127.826" rx="16"/><rect class="l" x="0.5" y="0.5" width="128.808" height="126.826" rx="15.5"/></g><g class="a" transform="translate(-286.163 3302.797) rotate(-135)"><rect class="k" width="82.245" height="92.154" rx="11"/><rect class="l" x="0.5" y="0.5" width="81.245" height="91.154" rx="10.5"/></g></g><g transform="translate(731 -225)"><rect class="b" width="118.908" height="117.917" rx="16" transform="translate(-483.891 3298.704) rotate(-135)"/><rect class="b" width="118.908" height="117.917" rx="16" transform="translate(-344.174 3136.196) rotate(-135)"/><rect class="b" width="118.908" height="117.917" rx="16" transform="translate(-483.891 3052.96) rotate(-135)"/><rect class="c" width="118.908" height="117.917" rx="16" transform="translate(-608.745 3224.386) rotate(-135)"/><rect class="b" width="93.145" height="92.154" rx="16" transform="translate(-730.626 3294.969) rotate(-135)"/><rect class="d" width="93.145" height="92.154" rx="16" transform="translate(-732.608 3116.606) rotate(-135)"/></g><g transform="translate(1226 -207)"><rect class="b" width="118.908" height="117.917" rx="16" transform="translate(-483.891 3298.704) rotate(-135)"/><rect class="b" width="118.908" height="117.917" rx="16" transform="translate(-344.174 3136.196) rotate(-135)"/><rect class="b" width="118.908" height="117.917" rx="16" transform="translate(-483.891 3052.96) rotate(-135)"/><rect class="c" width="118.908" height="117.917" rx="16" transform="translate(-608.745 3224.386) rotate(-135)"/><rect class="b" width="93.145" height="92.154" rx="16" transform="translate(-730.626 3294.969) rotate(-135)"/><rect class="d" width="93.145" height="92.154" rx="16" transform="translate(-732.608 3116.606) rotate(-135)"/></g><g transform="translate(731 -225)"><rect class="e" width="149.626" height="148.635" rx="16" transform="translate(-344.183 3284.753) rotate(-135)"/><rect class="e" width="118.908" height="117.917" rx="16" transform="translate(-483.891 3160.969) rotate(-135)"/><rect class="e" width="118.908" height="117.917" rx="16" transform="translate(-344.174 2981.615) rotate(-135)"/><rect class="f" width="107.017" height="106.027" rx="16" transform="translate(-606.763 3101.033) rotate(-135)"/><rect class="e" width="117.917" height="116.926" rx="16" transform="translate(-611.718 2983.116) rotate(-135)"/><rect class="e" width="118.908" height="117.917" rx="16" transform="translate(-611.718 3331.404) rotate(-135)"/><rect class="e" width="93.145" height="92.154" rx="16" transform="translate(-732.608 3189.933) rotate(-135)"/><rect class="g" width="93.145" height="92.154" rx="16" transform="translate(-729.635 3025.443) rotate(-135)"/></g><g transform="translate(1226 -207)"><rect class="e" width="149.626" height="148.635" rx="16" transform="translate(-344.183 3284.753) rotate(-135)"/><rect class="e" width="118.908" height="117.917" rx="16" transform="translate(-483.891 3160.969) rotate(-135)"/><rect class="e" width="118.908" height="117.917" rx="16" transform="translate(-344.174 2981.615) rotate(-135)"/><rect class="f" width="107.017" height="106.027" rx="16" transform="translate(-606.763 3101.033) rotate(-135)"/><rect class="e" width="117.917" height="116.926" rx="16" transform="translate(-611.718 2983.116) rotate(-135)"/><rect class="e" width="118.908" height="117.917" rx="16" transform="translate(-611.718 3331.404) rotate(-135)"/><rect class="e" width="93.145" height="92.154" rx="16" transform="translate(-732.608 3189.933) rotate(-135)"/><rect class="g" width="93.145" height="92.154" rx="16" transform="translate(-729.635 3025.443) rotate(-135)"/></g><g transform="translate(731 -225)"><g class="h" transform="translate(-735.651 3203.507) rotate(-135)"><rect class="k" width="108.999" height="108.008" rx="16"/><rect class="l" x="0.5" y="0.5" width="107.999" height="107.008" rx="15.5"/></g><g class="h" transform="translate(-343.191 3292.75) rotate(-135)"><rect class="k" width="159.535" height="158.544" rx="16"/><rect class="l" x="0.5" y="0.5" width="158.535" height="157.544" rx="15.5"/></g><g class="h" transform="translate(-483.962 3053.881) rotate(-135)"><rect class="k" width="129.808" height="127.826" rx="16"/><rect class="l" x="0.5" y="0.5" width="128.808" height="126.826" rx="15.5"/></g><g class="h" transform="translate(-487.785 3305.711) rotate(-135)"><rect class="k" width="128.817" height="127.826" rx="16"/><rect class="l" x="0.5" y="0.5" width="127.817" height="126.826" rx="15.5"/></g><g class="h" transform="translate(-484.812 3169.957) rotate(-135)"><rect class="k" width="128.817" height="127.826" rx="16"/><rect class="l" x="0.5" y="0.5" width="127.817" height="126.826" rx="15.5"/></g><g class="h" transform="translate(-608.675 3231.393) rotate(-135)"><rect class="k" width="128.817" height="127.826" rx="16"/><rect class="l" x="0.5" y="0.5" width="127.817" height="126.826" rx="15.5"/></g><g class="h" transform="translate(-347.217 2985.509) rotate(-135)"><rect class="k" width="129.808" height="127.826" rx="16"/><rect class="l" x="0.5" y="0.5" width="128.808" height="126.826" rx="15.5"/></g><g class="h" transform="translate(-578.098 3031.09) rotate(-135)"><rect class="k" width="129.808" height="127.826" rx="16"/><rect class="l" x="0.5" y="0.5" width="128.808" height="126.826" rx="15.5"/></g><g class="h" transform="translate(-614.26 2952.307) rotate(-135)"><rect class="k" width="100.081" height="99.09" rx="16"/><rect class="l" x="0.5" y="0.5" width="99.081" height="98.09" rx="15.5"/></g><g class="h" transform="translate(-732.177 3028.607) rotate(-135)"><rect class="k" width="100.081" height="99.09" rx="16"/><rect class="l" x="0.5" y="0.5" width="99.081" height="98.09" rx="15.5"/></g></g><g transform="translate(1226 -207)"><g class="h" transform="translate(-735.651 3203.507) rotate(-135)"><rect class="k" width="108.999" height="108.008" rx="16"/><rect class="l" x="0.5" y="0.5" width="107.999" height="107.008" rx="15.5"/></g><g class="h" transform="translate(-343.191 3292.75) rotate(-135)"><rect class="k" width="159.535" height="158.544" rx="16"/><rect class="l" x="0.5" y="0.5" width="158.535" height="157.544" rx="15.5"/></g><g class="h" transform="translate(-483.962 3053.881) rotate(-135)"><rect class="k" width="129.808" height="127.826" rx="16"/><rect class="l" x="0.5" y="0.5" width="128.808" height="126.826" rx="15.5"/></g><g class="h" transform="translate(-487.785 3305.711) rotate(-135)"><rect class="k" width="128.817" height="127.826" rx="16"/><rect class="l" x="0.5" y="0.5" width="127.817" height="126.826" rx="15.5"/></g><g class="h" transform="translate(-484.812 3169.957) rotate(-135)"><rect class="k" width="128.817" height="127.826" rx="16"/><rect class="l" x="0.5" y="0.5" width="127.817" height="126.826" rx="15.5"/></g><g class="h" transform="translate(-608.675 3231.393) rotate(-135)"><rect class="k" width="128.817" height="127.826" rx="16"/><rect class="l" x="0.5" y="0.5" width="127.817" height="126.826" rx="15.5"/></g><g class="h" transform="translate(-347.217 2985.509) rotate(-135)"><rect class="k" width="129.808" height="127.826" rx="16"/><rect class="l" x="0.5" y="0.5" width="128.808" height="126.826" rx="15.5"/></g><g class="h" transform="translate(-578.098 3031.09) rotate(-135)"><rect class="k" width="129.808" height="127.826" rx="16"/><rect class="l" x="0.5" y="0.5" width="128.808" height="126.826" rx="15.5"/></g><g class="h" transform="translate(-614.26 2952.307) rotate(-135)"><rect class="k" width="100.081" height="99.09" rx="16"/><rect class="l" x="0.5" y="0.5" width="99.081" height="98.09" rx="15.5"/></g><g class="h" transform="translate(-732.177 3028.607) rotate(-135)"><rect class="k" width="100.081" height="99.09" rx="16"/><rect class="l" x="0.5" y="0.5" width="99.081" height="98.09" rx="15.5"/></g></g><g transform="translate(731 -225)"><g class="a" transform="translate(-347.076 3161.039) rotate(-135)"><rect class="k" width="128.817" height="127.826" rx="16"/><rect class="l" x="0.5" y="0.5" width="127.817" height="126.826" rx="15.5"/></g><g class="a" transform="translate(-604.711 3333.456) rotate(-135)"><rect class="k" width="128.817" height="127.826" rx="16"/><rect class="l" x="0.5" y="0.5" width="127.817" height="126.826" rx="15.5"/></g><g class="a" transform="translate(-729.246 3305.039) rotate(-135)"><rect class="k" width="104.045" height="103.054" rx="16"/><rect class="l" x="0.5" y="0.5" width="103.045" height="102.054" rx="15.5"/></g><g class="a" transform="translate(-396.763 3014.245) rotate(-135)"><rect class="k" width="129.808" height="127.826" rx="16"/><rect class="l" x="0.5" y="0.5" width="128.808" height="126.826" rx="15.5"/></g><g class="a" transform="translate(-729.205 3124.724) rotate(-135)"><rect class="k" width="100.081" height="99.09" rx="16"/><rect class="l" x="0.5" y="0.5" width="99.081" height="98.09" rx="15.5"/></g><g class="a" transform="translate(-608.314 3124.724) rotate(-135)"><rect class="k" width="126.836" height="124.854" rx="16"/><rect class="l" x="0.5" y="0.5" width="125.836" height="123.854" rx="15.5"/></g><g class="a" transform="translate(-526.571 3014.245) rotate(-135)"><rect class="k" width="129.808" height="127.826" rx="16"/><rect class="l" x="0.5" y="0.5" width="128.808" height="126.826" rx="15.5"/></g><g class="a" transform="translate(-286.163 3302.797) rotate(-135)"><rect class="k" width="82.245" height="92.154" rx="11"/><rect class="l" x="0.5" y="0.5" width="81.245" height="91.154" rx="10.5"/></g></g><g transform="translate(1226 -207)"><g class="a" transform="translate(-347.076 3161.039) rotate(-135)"><rect class="k" width="128.817" height="127.826" rx="16"/><rect class="l" x="0.5" y="0.5" width="127.817" height="126.826" rx="15.5"/></g><g class="a" transform="translate(-604.711 3333.456) rotate(-135)"><rect class="k" width="128.817" height="127.826" rx="16"/><rect class="l" x="0.5" y="0.5" width="127.817" height="126.826" rx="15.5"/></g><g class="a" transform="translate(-729.246 3305.039) rotate(-135)"><rect class="k" width="104.045" height="103.054" rx="16"/><rect class="l" x="0.5" y="0.5" width="103.045" height="102.054" rx="15.5"/></g><g class="a" transform="translate(-396.763 3014.245) rotate(-135)"><rect class="k" width="129.808" height="127.826" rx="16"/><rect class="l" x="0.5" y="0.5" width="128.808" height="126.826" rx="15.5"/></g><g class="a" transform="translate(-729.205 3124.724) rotate(-135)"><rect class="k" width="100.081" height="99.09" rx="16"/><rect class="l" x="0.5" y="0.5" width="99.081" height="98.09" rx="15.5"/></g><g class="a" transform="translate(-608.314 3124.724) rotate(-135)"><rect class="k" width="126.836" height="124.854" rx="16"/><rect class="l" x="0.5" y="0.5" width="125.836" height="123.854" rx="15.5"/></g><g class="a" transform="translate(-526.571 3014.245) rotate(-135)"><rect class="k" width="129.808" height="127.826" rx="16"/><rect class="l" x="0.5" y="0.5" width="128.808" height="126.826" rx="15.5"/></g><g class="a" transform="translate(-286.163 3302.797) rotate(-135)"><rect class="k" width="82.245" height="92.154" rx="11"/><rect class="l" x="0.5" y="0.5" width="81.245" height="91.154" rx="10.5"/></g></g><g transform="translate(2271 383)"><rect class="b" width="118.908" height="117.917" rx="16" transform="translate(-483.891 3298.704) rotate(-135)"/><rect class="b" width="118.908" height="117.917" rx="16" transform="translate(-344.174 3136.196) rotate(-135)"/><rect class="i" width="118.908" height="117.917" rx="16" transform="translate(-483.891 3052.96) rotate(-135)"/><rect class="b" width="118.908" height="117.917" rx="16" transform="translate(-608.745 3224.386) rotate(-135)"/><rect class="b" width="93.145" height="92.154" rx="16" transform="translate(-730.626 3294.969) rotate(-135)"/><rect class="b" width="93.145" height="92.154" rx="16" transform="translate(-732.608 3116.606) rotate(-135)"/></g><g transform="translate(2271 383)"><rect class="j" width="149.626" height="148.635" rx="16" transform="translate(-344.183 3284.753) rotate(-135)"/><rect class="e" width="118.908" height="117.917" rx="16" transform="translate(-483.891 3160.969) rotate(-135)"/><rect class="e" width="118.908" height="117.917" rx="16" transform="translate(-344.174 2981.615) rotate(-135)"/><rect class="e" width="107.017" height="106.027" rx="16" transform="translate(-606.763 3101.033) rotate(-135)"/><rect class="e" width="117.917" height="116.926" rx="16" transform="translate(-611.718 2983.116) rotate(-135)"/><rect class="e" width="118.908" height="117.917" rx="16" transform="translate(-611.718 3331.404) rotate(-135)"/><rect class="e" width="93.145" height="92.154" rx="16" transform="translate(-732.608 3189.933) rotate(-135)"/><rect class="e" width="93.145" height="92.154" rx="16" transform="translate(-729.635 3025.443) rotate(-135)"/></g><g transform="translate(2271 383)"><g class="h" transform="translate(-735.651 3203.507) rotate(-135)"><rect class="k" width="108.999" height="108.008" rx="16"/><rect class="l" x="0.5" y="0.5" width="107.999" height="107.008" rx="15.5"/></g><g class="h" transform="translate(-343.191 3292.75) rotate(-135)"><rect class="k" width="159.535" height="158.544" rx="16"/><rect class="l" x="0.5" y="0.5" width="158.535" height="157.544" rx="15.5"/></g><g class="h" transform="translate(-483.962 3053.881) rotate(-135)"><rect class="k" width="129.808" height="127.826" rx="16"/><rect class="l" x="0.5" y="0.5" width="128.808" height="126.826" rx="15.5"/></g><g class="h" transform="translate(-487.785 3305.711) rotate(-135)"><rect class="k" width="128.817" height="127.826" rx="16"/><rect class="l" x="0.5" y="0.5" width="127.817" height="126.826" rx="15.5"/></g><g class="h" transform="translate(-484.812 3169.957) rotate(-135)"><rect class="k" width="128.817" height="127.826" rx="16"/><rect class="l" x="0.5" y="0.5" width="127.817" height="126.826" rx="15.5"/></g><g class="h" transform="translate(-608.675 3231.393) rotate(-135)"><rect class="k" width="128.817" height="127.826" rx="16"/><rect class="l" x="0.5" y="0.5" width="127.817" height="126.826" rx="15.5"/></g><g class="h" transform="translate(-347.217 2985.509) rotate(-135)"><rect class="k" width="129.808" height="127.826" rx="16"/><rect class="l" x="0.5" y="0.5" width="128.808" height="126.826" rx="15.5"/></g><g class="h" transform="translate(-578.098 3031.09) rotate(-135)"><rect class="k" width="129.808" height="127.826" rx="16"/><rect class="l" x="0.5" y="0.5" width="128.808" height="126.826" rx="15.5"/></g><g class="h" transform="translate(-614.26 2952.307) rotate(-135)"><rect class="k" width="100.081" height="99.09" rx="16"/><rect class="l" x="0.5" y="0.5" width="99.081" height="98.09" rx="15.5"/></g><g class="h" transform="translate(-732.177 3028.607) rotate(-135)"><rect class="k" width="100.081" height="99.09" rx="16"/><rect class="l" x="0.5" y="0.5" width="99.081" height="98.09" rx="15.5"/></g></g><g transform="translate(2271 383)"><g class="a" transform="translate(-347.076 3161.039) rotate(-135)"><rect class="k" width="128.817" height="127.826" rx="16"/><rect class="l" x="0.5" y="0.5" width="127.817" height="126.826" rx="15.5"/></g><g class="a" transform="translate(-604.711 3333.456) rotate(-135)"><rect class="k" width="128.817" height="127.826" rx="16"/><rect class="l" x="0.5" y="0.5" width="127.817" height="126.826" rx="15.5"/></g><g class="a" transform="translate(-729.246 3305.039) rotate(-135)"><rect class="k" width="104.045" height="103.054" rx="16"/><rect class="l" x="0.5" y="0.5" width="103.045" height="102.054" rx="15.5"/></g><g class="a" transform="translate(-396.763 3014.245) rotate(-135)"><rect class="k" width="129.808" height="127.826" rx="16"/><rect class="l" x="0.5" y="0.5" width="128.808" height="126.826" rx="15.5"/></g><g class="a" transform="translate(-729.205 3124.724) rotate(-135)"><rect class="k" width="100.081" height="99.09" rx="16"/><rect class="l" x="0.5" y="0.5" width="99.081" height="98.09" rx="15.5"/></g><g class="a" transform="translate(-608.314 3124.724) rotate(-135)"><rect class="k" width="126.836" height="124.854" rx="16"/><rect class="l" x="0.5" y="0.5" width="125.836" height="123.854" rx="15.5"/></g><g class="a" transform="translate(-526.571 3014.245) rotate(-135)"><rect class="k" width="129.808" height="127.826" rx="16"/><rect class="l" x="0.5" y="0.5" width="128.808" height="126.826" rx="15.5"/></g><g class="a" transform="translate(-286.163 3302.797) rotate(-135)"><rect class="k" width="82.245" height="92.154" rx="11"/><rect class="l" x="0.5" y="0.5" width="81.245" height="91.154" rx="10.5"/></g></g></g></svg>