<svg xmlns="http://www.w3.org/2000/svg" width="70" height="77.572" viewBox="0 0 70 77.572"><defs><style>.a{fill:#fff;}.b{fill:#8bc34a;}.c,.d{stroke:none;}.d{fill:#3f51b5;}</style></defs><g transform="translate(-361 -1455.214)"><g class="a" transform="translate(431 1454) rotate(90)"><path class="c" d="M 55.357421875 69.5 L 24.64258003234863 69.5 C 21.95791053771973 69.5 19.46273040771484 68.05198669433594 18.13076019287109 65.72104644775391 L 2.702179908752441 38.72103881835938 C 1.390630006790161 36.42581939697266 1.390640020370483 33.57418060302734 2.702189922332764 31.27894973754883 L 18.13076019287109 4.278960227966309 C 19.46273040771484 1.948009967803955 21.95791053771973 0.5 24.64258003234863 0.5 L 55.357421875 0.5 C 58.04209136962891 0.5 60.53726959228516 1.948009967803955 61.8692512512207 4.278960227966309 L 77.29781341552734 31.27895927429199 C 78.60938262939453 33.57418060302734 78.60938262939453 36.42581939697266 77.29781341552734 38.72103881835938 L 61.8692512512207 65.72104644775391 C 60.53726959228516 68.05198669433594 58.04207992553711 69.5 55.357421875 69.5 Z"/><path class="d" d="M 24.642578125 1 C 22.13687896728516 1 19.80804443359375 2.351478576660156 18.56488800048828 4.527023315429688 L 3.136314392089844 31.52703475952148 C 1.912185668945312 33.66923522949219 1.912185668945312 36.33075714111328 3.136314392089844 38.47297668457031 L 18.56487655639648 65.47296905517578 C 19.80804443359375 67.64852142333984 22.13689041137695 69 24.642578125 69 L 55.357421875 69 C 57.86311340332031 69 60.19195556640625 67.64852142333984 61.43511962890625 65.47297668457031 L 76.86368560791016 38.47296905517578 C 78.08781433105469 36.33075714111328 78.08781433105469 33.66923522949219 76.86368560791016 31.52702331542969 L 61.43511962890625 4.527023315429688 C 60.19195556640625 2.351478576660156 57.86311340332031 1 55.357421875 1 L 24.642578125 1 M 24.642578125 0 L 55.357421875 0 C 58.22827911376953 0 60.87902069091797 1.538276672363281 62.30336761474609 4.030876159667969 L 77.73193359375 31.03088760375977 C 79.13734436035156 33.4903450012207 79.13734436035156 36.5096435546875 77.73193359375 38.96910858154297 L 62.30336761474609 65.96910858154297 C 60.87902069091797 68.46170806884766 58.22827911376953 70 55.357421875 70 L 24.642578125 70 C 21.77172088623047 70 19.12097930908203 68.46170806884766 17.69663238525391 65.96910858154297 L 2.26806640625 38.96910858154297 C 0.8626556396484375 36.5096435546875 0.8626556396484375 33.4903450012207 2.26806640625 31.03088760375977 L 17.6966438293457 4.030876159667969 C 19.12097930908203 1.538276672363281 21.77173233032227 0 24.642578125 0 Z"/></g><g transform="translate(-283 1340)"><path class="b" d="M678.7,139h.606a2.248,2.248,0,0,1,1.709,1.391,6.311,6.311,0,0,1,.168.689h.5q5.16,0,10.32,0a1.814,1.814,0,0,1,1.943,1.445.861.861,0,0,0,.061.132v.512a2,2,0,0,1-.749,1.141.662.662,0,0,0-.34.689q.01,8.321,0,16.643a2,2,0,0,1-2.252,2.17q-4.45,0-8.9,0h-.448c.108.168.171.271.238.371l2.569,3.793c.332.491.312.649-.123,1.022h-.3a2.359,2.359,0,0,1-.4-.368c-1.03-1.5-2.06-3.006-3.061-4.527a.525.525,0,0,0-.7-.247c0,1.057,0,2.115,0,3.173,0,.428-.189.654-.532.654s-.531-.226-.532-.654c0-.938,0-1.877,0-2.815,0-.129,0-.257,0-.512-.267.123-.509.157-.6.289-1.051,1.519-2.075,3.054-3.118,4.578a2.977,2.977,0,0,1-.447.429H674c-.437-.373-.456-.529-.123-1.021q1.284-1.9,2.569-3.793c.072-.106.136-.216.234-.372H676.2q-4.45,0-8.9,0a1.991,1.991,0,0,1-2.215-2.132c0-1.207,0-2.414,0-3.621q0-6.584,0-13.168c0-.136-.009-.348-.093-.4a2.244,2.244,0,0,1-.987-1.326v-.512c.485-1.3.9-1.578,2.344-1.578h10.5a1.916,1.916,0,0,1,.7-1.5A7.506,7.506,0,0,1,678.7,139Zm-12.537,5.7v.409q0,8.249,0,16.5c0,.871.311,1.175,1.2,1.175h23.291c.869,0,1.191-.306,1.191-1.144q0-8.267,0-16.534c0-.128-.014-.255-.023-.4H674.509a2.015,2.015,0,0,1-.451-.026.474.474,0,0,1-.4-.508.483.483,0,0,1,.468-.489,2.229,2.229,0,0,1,.265-.008h17.232a3.831,3.831,0,0,0,.64-.021.767.767,0,0,0-.093-1.525c-.151-.013-.3-.009-.454-.009H666.3c-.114,0-.227,0-.341,0-.534.017-.866.31-.871.766,0,.472.34.781.891.787s1.111,0,1.666,0c.4,0,.65.2.651.508s-.246.516-.645.521C667.176,144.706,666.7,144.7,666.16,144.7Zm13.872-3.642a1.01,1.01,0,0,0-1.056-1.012.988.988,0,0,0-1,1.012Z" transform="translate(0)"/><path class="b" d="M716.567,254.505c0-1.113,0-2.177,0-3.24,0-.583.152-.721.8-.722h4.662c.009-.137.024-.259.025-.381,0-.468,0-.937,0-1.4,0-.571.142-.695.785-.7q2.113,0,4.227,0h.456c0-.764,0-1.488,0-2.211,0-.643.148-.775.868-.775h4.847c.725,0,.867.127.867.771q0,4.109,0,8.219v.44c.555,0,1.091,0,1.627,0a4.288,4.288,0,0,1,.657.02.462.462,0,0,1,.442.5.47.47,0,0,1-.478.466,3.76,3.76,0,0,1-.426.014H714.754c-.116,0-.233,0-.349-.005-.371-.027-.572-.207-.567-.5s.217-.478.587-.487c.542-.012,1.086,0,1.629,0Zm16.421-.016V246.1h-4.343v8.392Zm-5.488,0v-5.4h-4.327v5.4Zm-9.825-.008h4.354v-2.922h-4.354Z" transform="translate(-46.336 -98.14)"/><path class="b" d="M736.435,203.776c-.293,0-.585,0-.878,0-.373-.008-.591-.2-.587-.506s.2-.478.568-.482q.913-.009,1.827,0c.367,0,.562.177.567.48s-.208.5-.584.507C737.044,203.781,736.739,203.776,736.435,203.776Z" transform="translate(-65.547 -59.3)"/><path class="b" d="M819.729,422.808c0-.163-.008-.327,0-.49a.447.447,0,0,1,.433-.463.436.436,0,0,1,.527.394,6.128,6.128,0,0,1-.005,1.185.431.431,0,0,1-.5.384.451.451,0,0,1-.448-.451c-.013-.186,0-.373,0-.56Z" transform="translate(-143.897 -262.095)"/><path class="b" d="M891.216,422.861c0,.175.013.351,0,.524a.45.45,0,0,1-.463.436.423.423,0,0,1-.482-.367,6.527,6.527,0,0,1-.006-1.218.427.427,0,0,1,.5-.38.443.443,0,0,1,.449.446c.014.185,0,.373,0,.56Z" transform="translate(-209.052 -262.097)"/><path class="b" d="M785.255,422.86c0,.175.013.351,0,.524a.45.45,0,0,1-.46.439.433.433,0,0,1-.494-.4,6.659,6.659,0,0,1,0-1.185.428.428,0,0,1,.5-.384.444.444,0,0,1,.452.443c.016.185,0,.373,0,.559Z" transform="translate(-111.137 -262.099)"/><path class="b" d="M855.883,422.842c0,.163.008.327,0,.49a.49.49,0,0,1-.98.017c-.014-.338-.015-.677,0-1.015a.49.49,0,0,1,.98.018C855.891,422.515,855.883,422.679,855.883,422.842Z" transform="translate(-176.39 -262.104)"/><path class="b" d="M926.618,422.874a4.266,4.266,0,0,1-.034.557.452.452,0,0,1-.5.4.441.441,0,0,1-.459-.438c-.018-.36-.019-.723,0-1.083a.435.435,0,0,1,.45-.443.451.451,0,0,1,.513.417,3.855,3.855,0,0,1,.006.593Z" transform="translate(-241.741 -262.106)"/><path class="b" d="M749.869,422.827a5.378,5.378,0,0,1,0,.56.459.459,0,0,1-.49.447.444.444,0,0,1-.477-.422,6.969,6.969,0,0,1,0-1.118.443.443,0,0,1,.5-.425.448.448,0,0,1,.462.434A4.581,4.581,0,0,1,749.869,422.827Z" transform="translate(-78.428 -262.11)"/><path class="b" d="M961.852,422.836c0,.163.01.327,0,.49a.49.49,0,0,1-.98.008c-.013-.338-.014-.677,0-1.015a.451.451,0,0,1,.465-.469.481.481,0,0,1,.515.46.607.607,0,0,1,0,.07q0,.228,0,.455Z" transform="translate(-274.31 -262.094)"/><path class="b" d="M713.793,422.8c0-.163-.009-.327,0-.49a.445.445,0,0,1,.44-.455.44.44,0,0,1,.523.4,5.963,5.963,0,0,1,0,1.151.443.443,0,0,1-.52.409.452.452,0,0,1-.442-.458C713.785,423.178,713.793,422.991,713.793,422.8Z" transform="translate(-46.29 -262.1)"/><path class="b" d="M997.039,422.84c0,.175.01.351,0,.525a.455.455,0,0,1-.478.458.44.44,0,0,1-.484-.412,6.246,6.246,0,0,1,0-1.152.439.439,0,0,1,.524-.4.445.445,0,0,1,.438.457C997.049,422.489,997.04,422.665,997.039,422.84Z" transform="translate(-306.543 -262.098)"/></g></g></svg>