<svg xmlns="http://www.w3.org/2000/svg" width="70" height="75" viewBox="0 0 70 75"><defs><style>.a{fill:#8bc34a;}</style></defs><path class="a" d="M147.837,125.6h10.889a1.1,1.1,0,1,0,0-2.207H147.837a1.1,1.1,0,1,0,0,2.207Z" transform="translate(-127.657 -105.319)"/><path class="a" d="M248.313,125.6h3.621a1.1,1.1,0,1,0,0-2.207h-3.621a1.1,1.1,0,1,0,0,2.207Z" transform="translate(-213.513 -105.319)"/><path class="a" d="M307.14,125.6h6.476a1.1,1.1,0,1,0,0-2.207H307.14a1.1,1.1,0,1,0,0,2.207Z" transform="translate(-263.811 -105.319)"/><path class="a" d="M147.837,158.542h4.332a1.1,1.1,0,0,0,0-2.207h-4.332a1.1,1.1,0,1,0,0,2.207Z" transform="translate(-127.637 -133.435)"/><path class="a" d="M218.622,157.438a1.1,1.1,0,0,0-1.1-1.1h-14.18a1.1,1.1,0,1,0,0,2.207h14.18A1.1,1.1,0,0,0,218.622,157.438Z" transform="translate(-175.121 -133.435)"/><path class="a" d="M329.723,156.335h-3.71a1.1,1.1,0,0,0,0,2.207h3.71a1.1,1.1,0,0,0,0-2.207Z" transform="translate(-279.925 -133.435)"/><path class="a" d="M147.837,190.046H156.6a1.1,1.1,0,1,0,0-2.207h-8.759a1.1,1.1,0,1,0,0,2.207Z" transform="translate(-127.65 -160.324)"/><path class="a" d="M240.925,188.941a1.1,1.1,0,0,0-1.1-1.1h-8.646a1.1,1.1,0,1,0,0,2.207h8.646A1.1,1.1,0,0,0,240.925,188.941Z" transform="translate(-198.889 -160.323)"/><path class="a" d="M320.462,187.838h-5.3a1.1,1.1,0,1,0,0,2.207h5.3a1.1,1.1,0,1,0,0-2.207Z" transform="translate(-270.659 -160.323)"/><path class="a" d="M151.674,221.882a1.1,1.1,0,0,0-1.1-1.1h-2.734a1.1,1.1,0,1,0,0,2.207h2.734A1.1,1.1,0,0,0,151.674,221.882Z" transform="translate(-127.633 -188.439)"/><path class="a" d="M202.578,220.778h-12.45a1.1,1.1,0,1,0,0,2.207h12.45a1.1,1.1,0,1,0,0-2.207Z" transform="translate(-163.817 -188.438)"/><path class="a" d="M307.577,220.778h-7.514a1.1,1.1,0,0,0,0,2.207h7.514a1.1,1.1,0,1,0,0-2.207Z" transform="translate(-257.768 -188.438)"/><path class="a" d="M85.281,21.21a1.1,1.1,0,0,0-.007-.115s0,0,0-.005,0-.017,0-.025c0-.03-.009-.059-.015-.088,0-.011-.006-.023-.009-.034-.007-.027-.015-.054-.024-.081l-.013-.034q-.014-.038-.031-.075l-.016-.034c-.012-.024-.025-.047-.039-.07l-.019-.032c-.016-.024-.032-.047-.049-.07l-.019-.025a1.127,1.127,0,0,0-.077-.086l-.015-.014c-.023-.022-.046-.043-.071-.063l-.03-.023c-.021-.016-.043-.032-.066-.046l-.014-.01-9.7-6.041v-1.51c0-.029,0-.057,0-.085,0-.008,0-.017,0-.025a1.1,1.1,0,0,0-.024-.143c0-.012-.007-.024-.01-.036a1.118,1.118,0,0,0-.036-.109c0-.012-.009-.024-.014-.036a1.1,1.1,0,0,0-.065-.129L74.9,12.14a1.128,1.128,0,0,0-.071-.1l-.026-.032a1.107,1.107,0,0,0-.1-.108L66.679,4.8a1.128,1.128,0,0,0-.113-.087L66.54,4.7a1.088,1.088,0,0,0-.119-.066L66.4,4.62a1.1,1.1,0,0,0-.114-.043l-.023-.008a1.089,1.089,0,0,0-.132-.029l-.029,0a1.059,1.059,0,0,0-.128-.01h-6.5l-5.6-3.489a6.752,6.752,0,0,0-7.187,0l-5.6,3.489H27.765A2.28,2.28,0,0,0,25.5,6.81v7.427l-9.7,6.041-.014.01c-.023.015-.044.03-.066.046l-.03.023c-.025.02-.048.041-.071.063l-.015.014a1.127,1.127,0,0,0-.077.086l-.019.025c-.017.023-.034.046-.049.07l-.019.032c-.014.023-.027.046-.039.07l-.016.034q-.017.037-.031.075l-.013.035c-.009.027-.017.053-.024.081,0,.011-.006.023-.009.034-.006.029-.011.058-.015.088,0,.008,0,.017,0,.025V21.1a1.109,1.109,0,0,0-.007.115s0,0,0,.006v11.2a1.094,1.094,0,1,0,2.189,0V23.867l8.349,8.364h0l4.062,4.07,7.64,7.654c-.04.061-.082.121-.122.183L19.033,72.794h-1.2a.367.367,0,0,1-.365-.368V37.362a1.094,1.094,0,1,0-2.189,0V72.427A2.566,2.566,0,0,0,17.834,75H82.728a2.566,2.566,0,0,0,2.553-2.573V21.216S85.281,21.212,85.281,21.21ZM25.5,28.8,18.13,21.419,25.5,16.83ZM75.066,16.83l7.366,4.589L75.066,28.8ZM67.05,8.064l4.02,3.561H67.154a.1.1,0,0,1-.1-.1ZM47.839,2.911a4.589,4.589,0,0,1,4.885,0l2.591,1.614H45.248ZM27.684,30.991V6.81a.081.081,0,0,1,.08-.081h37.1v4.792a2.3,2.3,0,0,0,2.292,2.309h5.724V30.991L61.693,42.2a15.266,15.266,0,0,0-22.825,0ZM83.092,72.427a.366.366,0,0,1-.365.368h-1.2L69.051,53.325A1.09,1.09,0,0,0,67.538,53a1.107,1.107,0,0,0-.326,1.524L78.924,72.794H21.638l17.6-27.46a13.093,13.093,0,0,1,22.087,0l3.15,4.915a1.089,1.089,0,0,0,1.513.328,1.108,1.108,0,0,0,.326-1.524l-3.15-4.915c-.04-.062-.081-.122-.122-.183l11.7-11.723h0l8.348-8.363V72.427Z" transform="translate(-15.281 0.001)"/></svg>