<svg xmlns="http://www.w3.org/2000/svg" width="70" height="77.572" viewBox="0 0 70 77.572"><defs><style>.a,.b,.c{fill:none;}.b,.c{stroke:#fff;}.b{stroke-width:0.5px;}.d{fill:#fff;}.e,.f{stroke:none;}.f{fill:#8bc34a;}</style></defs><g transform="translate(-641 -4138.214)"><g class="a" transform="translate(711 4137) rotate(90)"><path class="e" d="M55.357,0A8,8,0,0,1,62.3,4.031l15.429,27a8,8,0,0,1,0,7.938l-15.429,27A8,8,0,0,1,55.357,70H24.643A8,8,0,0,1,17.7,65.969l-15.429-27a8,8,0,0,1,0-7.938l15.429-27A8,8,0,0,1,24.643,0Z"/><path class="f" d="M 24.642578125 1 C 22.13687896728516 1 19.80804443359375 2.351478576660156 18.56488800048828 4.527023315429688 L 3.136314392089844 31.52703475952148 C 1.912185668945312 33.66923522949219 1.912185668945312 36.33075714111328 3.136314392089844 38.47297668457031 L 18.56487655639648 65.47296905517578 C 19.80804443359375 67.64852142333984 22.13689041137695 69 24.642578125 69 L 55.357421875 69 C 57.86311340332031 69 60.19195556640625 67.64852142333984 61.43511962890625 65.47297668457031 L 76.86368560791016 38.47296905517578 C 78.08781433105469 36.33075714111328 78.08781433105469 33.66923522949219 76.86368560791016 31.52702331542969 L 61.43511962890625 4.527023315429688 C 60.19195556640625 2.351478576660156 57.86311340332031 1 55.357421875 1 L 24.642578125 1 M 24.642578125 0 L 55.357421875 0 C 58.22827911376953 0 60.87902069091797 1.538276672363281 62.30336761474609 4.030876159667969 L 77.73193359375 31.03088760375977 C 79.13734436035156 33.4903450012207 79.13734436035156 36.5096435546875 77.73193359375 38.96910858154297 L 62.30336761474609 65.96910858154297 C 60.87902069091797 68.46170806884766 58.22827911376953 70 55.357421875 70 L 24.642578125 70 C 21.77172088623047 70 19.12097930908203 68.46170806884766 17.69663238525391 65.96910858154297 L 2.26806640625 38.96910858154297 C 0.8626556396484375 36.5096435546875 0.8626556396484375 33.4903450012207 2.26806640625 31.03088760375977 L 17.6966438293457 4.030876159667969 C 19.12097930908203 1.538276672363281 21.77173233032227 0 24.642578125 0 Z"/></g><g transform="translate(0 -4.682)"><path class="b" d="M1179.86,877.136a.732.732,0,0,1,.3-.589c.246-.256.275-.438-.166-.432-.655.008-.893-.352-.872-.963.014-.4.012-.8,0-1.2-.018-.61.22-.969.876-.962.117,0,.271.04.328-.109s-.074-.23-.161-.313c-.489-.462-.369-.875.077-1.287.309-.285.6-.59.894-.892a.734.734,0,0,1,1.2-.033c.1.1.2.257.367.168.128-.067.1-.223.091-.343-.035-.656.348-.839.916-.829.337.006.674,0,1.01,0,.96,0,.967,0,1.174.958.063.293.165.278.378.13.737-.513.821-.5,1.468.14.224.222.439.454.671.668.457.423.6.85.088,1.341-.259.249-.191.409.171.4.717-.021.893.415.887,1.019,0,.337,0,.674,0,1.01-.01.853-.083.953-.934,1.092-.354.058-.338.2-.132.4.524.492.373.9-.1,1.32-.332.291-.633.616-.94.934a.65.65,0,0,1-1.04.047c-.115-.109-.211-.312-.408-.223-.157.071-.1.259-.1.4-.017.557-.325.784-.855.777-.463-.006-.926,0-1.389,0-.554,0-.886-.223-.856-.829.006-.121.036-.276-.088-.345-.169-.093-.271.063-.368.164a.73.73,0,0,1-1.195-.025q-.508-.519-1.026-1.027A.706.706,0,0,1,1179.86,877.136Zm4.48-.489a2.091,2.091,0,0,0,.02-4.182,2.091,2.091,0,1,0-.02,4.182Z" transform="translate(-518.12 3316.922)"/><g transform="translate(669.921 4166.682)"><path class="c" d="M1237.486,751.383a1.568,1.568,0,0,1,1.3.786.949.949,0,0,0,1.375.27.7.7,0,0,0,.462-.735c-.086-2.077.156-1.823,1.9-1.829.837,0,1.674.014,2.51,0,.655-.014.946.28.9.93-.015.208.027.423-.008.627-.1.61.15.922.732,1.121a.723.723,0,0,0,.911-.193c1.358-1.5,1.447-1.131,2.6.029.605.611,1.209,1.224,1.826,1.823a.754.754,0,0,1,.01,1.252c-.17.159-.337.322-.493.493-.262.289-.647.468-.391,1.037.244.544.5.845,1.116.737a3.124,3.124,0,0,1,.626,0c.717.022.972.256.981.966q.022,1.708,0,3.417c-.008.746-.2.919-.973.93a3.646,3.646,0,0,1-.627,0c-.635-.1-.862.257-1.113.774-.267.55.076.757.359,1.041,1.127,1.134,1.129,1.133-.029,2.29-.641.641-1.278,1.286-1.924,1.922-.521.512-.843.511-1.364.015a4.338,4.338,0,0,1-.441-.446.927.927,0,0,0-1.256-.3c-.565.226-.55.585-.548,1.037.006,1.583,0,1.583-1.57,1.583-.883,0-1.767,0-2.65,0-.906,0-1.08-.186-1.084-1.115a5.375,5.375,0,0,1,0-.558.776.776,0,0,0-.563-.95.91.91,0,0,0-1.154.21c-1.188,1.223-1.205,1.206-2.394.018-.625-.625-1.254-1.244-1.872-1.875-.548-.56-.54-.834.009-1.409.129-.134.273-.255.392-.4.245-.294.679-.453.427-1.031s-.555-.92-1.229-.807a4.617,4.617,0,0,1-.7,0,.678.678,0,0,1-.771-.771q0-1.883,0-3.766c0-.523.3-.753.788-.773.255-.011.511,0,.767,0,.8,0,1.041-.217,1.216-.986.07-.308-.136-.426-.292-.575-1.461-1.392-1.265-1.377.011-2.647q.89-.885,1.775-1.776C1237.217,751.551,1237.4,751.379,1237.486,751.383Zm5.793,4.359a4.668,4.668,0,0,0,.007,9.336,4.668,4.668,0,1,0-.007-9.336Z" transform="translate(-1232.767 -749.868)"/><path class="d" d="M1292.741,835.222a3.221,3.221,0,0,1-1.89-.57c-.31-.239-.788-.4-.534-.963.23-.514.9-.943,1.347-.713a2.017,2.017,0,0,0,2.139,0c.426-.249,1.144.19,1.359.688.237.548-.2.755-.522.988A3.125,3.125,0,0,1,1292.741,835.222Z" transform="translate(-1282.098 -821.307)"/><path class="d" d="M1298.7,809.2a1.518,1.518,0,0,1,0-3.035,1.518,1.518,0,1,1,0,3.035Z" transform="translate(-1288.076 -798.3)"/></g></g></g></svg>