<svg xmlns="http://www.w3.org/2000/svg" width="75" height="70" viewBox="0 0 75 70"><defs><style>.a{fill:#8bc34a;}</style></defs><path class="a" d="M229.4,18.258H201.719a1.127,1.127,0,0,0,0,2.255H229.4a3.093,3.093,0,0,1,3.089,3.089V52.633a3.093,3.093,0,0,1-3.089,3.089h-4.421a1.127,1.127,0,0,0-.661.214L216.628,61.5V56.85a1.127,1.127,0,0,0-1.127-1.127H191.03a3.093,3.093,0,0,1-3.089-3.089V23.6a3.093,3.093,0,0,1,3.089-3.089h5.777a1.127,1.127,0,0,0,0-2.255H191.03a5.35,5.35,0,0,0-5.344,5.344V52.633a5.35,5.35,0,0,0,5.344,5.344h23.343v5.736a1.128,1.128,0,0,0,1.789.913l9.18-6.649H229.4a5.35,5.35,0,0,0,5.344-5.344V23.6a5.35,5.35,0,0,0-5.344-5.344Z" transform="translate(-159.741 -18.258)"/><path class="a" d="M63.888,109.433a5.135,5.135,0,0,0-2.65-3.834l-4.892-2.67a1.1,1.1,0,0,0-1.052,1.935l4.891,2.67a2.953,2.953,0,0,1,1.524,2.2l0,.018a2.957,2.957,0,0,1-.888,2.549L60.1,113l-18.059-10.18,2.122-1.87a2.882,2.882,0,0,1,3.281-.367l3.052,1.666a1.1,1.1,0,0,0,1.053-1.935L48.5,98.645a5.087,5.087,0,0,0-5.787.647l-4.946,4.358a2.9,2.9,0,0,1-3.6.2c-7.45-5.228-12.859-10.98-16.539-17.584a2.909,2.909,0,0,1,.431-3.421L21.979,78.7a5.115,5.115,0,0,0,.852-5.772l-6.588-13.2A5.171,5.171,0,0,0,8.1,58.234L5.6,60.55A17.317,17.317,0,0,0,.3,70.122a17.133,17.133,0,0,0,1.469,10.82l.02.04c1.052,2.131,2.189,4.214,3.378,6.189.2.332.412.684.636,1.044a1.1,1.1,0,1,0,1.869-1.163c-.217-.35-.425-.691-.619-1.016C5.9,84.113,4.793,82.086,3.77,80.013l-.018-.036a15.235,15.235,0,0,1,3.125-17.6L16.8,80.98l-.332.352a5.107,5.107,0,0,0-.753,6.009c3.845,6.9,9.47,12.892,17.2,18.315a5.093,5.093,0,0,0,6.311-.351l1.073-.946,18.151,10.232-.018.018a15.118,15.118,0,0,1-17.44,2.55A84.727,84.727,0,0,1,10.858,91.79a1.1,1.1,0,1,0-1.78,1.3,86.91,86.91,0,0,0,30.9,26.032A17.308,17.308,0,0,0,59.95,116.2l2.4-2.306a5.142,5.142,0,0,0,1.548-4.4c0-.021,0-.042-.008-.062ZM8.545,60.823l1.048-.97a2.973,2.973,0,0,1,4.682.857l6.588,13.2a2.9,2.9,0,0,1-.483,3.273l-1.989,2.107Z" transform="translate(0 -51.053)"/><path class="a" d="M407.047,135.221a3.938,3.938,0,1,0-3.938,3.938A3.943,3.943,0,0,0,407.047,135.221Zm-5.622,0a1.683,1.683,0,1,1,1.683,1.683A1.685,1.685,0,0,1,401.426,135.221Z" transform="translate(-341.135 -114.688)"/><path class="a" d="M330.535,135.221a3.938,3.938,0,1,0-3.938,3.938A3.943,3.943,0,0,0,330.535,135.221Zm-5.622,0A1.683,1.683,0,1,1,326.6,136.9,1.685,1.685,0,0,1,324.914,135.221Z" transform="translate(-275.538 -114.688)"/><path class="a" d="M246.147,135.221a3.938,3.938,0,1,0,3.938-3.938A3.943,3.943,0,0,0,246.147,135.221Zm3.938-1.683a1.683,1.683,0,1,1-1.683,1.683A1.685,1.685,0,0,1,250.085,133.538Z" transform="translate(-210.2 -114.688)"/></svg>