<svg xmlns="http://www.w3.org/2000/svg" width="70" height="77.572" viewBox="0 0 70 77.572"><defs><style>.a{fill:none;}.b{fill:#fff;}.c,.d{stroke:none;}.d{fill:#3f51b5;}</style></defs><g transform="translate(-730 -4138.214)"><g class="a" transform="translate(800 4137) rotate(90)"><path class="c" d="M55.357,0A8,8,0,0,1,62.3,4.031l15.429,27a8,8,0,0,1,0,7.938l-15.429,27A8,8,0,0,1,55.357,70H24.643A8,8,0,0,1,17.7,65.969l-15.429-27a8,8,0,0,1,0-7.938l15.429-27A8,8,0,0,1,24.643,0Z"/><path class="d" d="M 24.642578125 1 C 22.13687896728516 1 19.80804443359375 2.351478576660156 18.56488800048828 4.527023315429688 L 3.136314392089844 31.52703475952148 C 1.912185668945312 33.66923522949219 1.912185668945312 36.33075714111328 3.136314392089844 38.47297668457031 L 18.56487655639648 65.47296905517578 C 19.80804443359375 67.64852142333984 22.13689041137695 69 24.642578125 69 L 55.357421875 69 C 57.86311340332031 69 60.19195556640625 67.64852142333984 61.43511962890625 65.47297668457031 L 76.86368560791016 38.47296905517578 C 78.08781433105469 36.33075714111328 78.08781433105469 33.66923522949219 76.86368560791016 31.52702331542969 L 61.43511962890625 4.527023315429688 C 60.19195556640625 2.351478576660156 57.86311340332031 1 55.357421875 1 L 24.642578125 1 M 24.642578125 0 L 55.357421875 0 C 58.22827911376953 0 60.87902069091797 1.538276672363281 62.30336761474609 4.030876159667969 L 77.73193359375 31.03088760375977 C 79.13734436035156 33.4903450012207 79.13734436035156 36.5096435546875 77.73193359375 38.96910858154297 L 62.30336761474609 65.96910858154297 C 60.87902069091797 68.46170806884766 58.22827911376953 70 55.357421875 70 L 24.642578125 70 C 21.77172088623047 70 19.12097930908203 68.46170806884766 17.69663238525391 65.96910858154297 L 2.26806640625 38.96910858154297 C 0.8626556396484375 36.5096435546875 0.8626556396484375 33.4903450012207 2.26806640625 31.03088760375977 L 17.6966438293457 4.030876159667969 C 19.12097930908203 1.538276672363281 21.77173233032227 0 24.642578125 0 Z"/></g><g transform="translate(31.843 313.51)"><path class="b" d="M88,408.932a4.085,4.085,0,0,1,.759-.227,3,3,0,0,0,2.781-2.766c.042-.548.295-.77.853-.769q8.118.013,16.236,0a.724.724,0,0,1,.844.778,2.939,2.939,0,0,0,2.791,2.739c.552.041.738.26.736.787-.014,3.34.019,6.68-.013,10.019-.063,6.546-4.66,12.836-11.074,15.205-.395.146-.781.314-1.171.471h-.468a3.973,3.973,0,0,0-.455-.225,16.837,16.837,0,0,1-11-11A35.583,35.583,0,0,1,88,420.389Zm12.543-2.643c-2.435,0-4.869.009-7.3-.009a.605.605,0,0,0-.712.532,3.887,3.887,0,0,1-2.862,2.829c-.473.129-.549.331-.546.748.016,2.826-.013,5.652.02,8.477a14.491,14.491,0,0,0,.256,2.844,15.734,15.734,0,0,0,10.637,12.125,1.422,1.422,0,0,0,.838.039A15.824,15.824,0,0,0,111.877,419.4c.032-3.035,0-6.072.013-9.107,0-.355-.081-.516-.475-.623a3.943,3.943,0,0,1-2.944-2.894c-.112-.411-.3-.494-.682-.492C105.374,406.3,102.958,406.289,100.543,406.289Z" transform="translate(632.657 3443.32)"/><path class="b" d="M128.44,433.733a48.613,48.613,0,0,1-.354,5.815c-.958,5.407-4.166,9.131-9.366,11.2a1.651,1.651,0,0,1-1.113-.006c-5.6-2.257-8.907-6.311-9.488-12.211-.294-2.989-.118-6.022-.12-9.036a.907.907,0,0,1,.445-.652,6.036,6.036,0,0,0,2.659-2.578,1,1,0,0,1,.724-.428c1.249-.044,2.5-.017,3.753-.022.4,0,.728.108.718.555s-.356.55-.742.552c-1.016,0-2.033.015-3.05-.005a.74.74,0,0,0-.746.412,5.852,5.852,0,0,1-2.214,2.159.724.724,0,0,0-.436.72c.017,2.442-.014,4.885.019,7.327A13.355,13.355,0,0,0,117.72,449.6a1.3,1.3,0,0,0,.88,0c4.875-2.067,7.855-5.649,8.438-10.816a82.718,82.718,0,0,0,.148-8.747.686.686,0,0,0-.32-.474,7.007,7.007,0,0,1-2.386-2.32.845.845,0,0,0-.606-.307c-1.016-.032-2.033.007-3.049-.03a1.114,1.114,0,0,1-.74-.329c-.246-.3.036-.744.476-.751,1.368-.021,2.737-.023,4.1.013a.83.83,0,0,1,.556.416,5.584,5.584,0,0,0,2.661,2.563.794.794,0,0,1,.464.841c-.01,1.355,0,2.71,0,4.064Z" transform="translate(615.002 3425.05)"/><path class="b" d="M154.464,480.032a5.264,5.264,0,1,1-5.273,5.248A5.275,5.275,0,0,1,154.464,480.032Zm-.036,1.117a4.139,4.139,0,0,0-4.117,4.2,4.146,4.146,0,1,0,4.117-4.2Z" transform="translate(578.707 3377.02)"/><path class="b" d="M191.545,426.7c-.375.268-.593.544-.787.529s-.377-.317-.565-.493c.179-.183.342-.487.543-.515S191.158,426.451,191.545,426.7Z" transform="translate(542.42 3424.694)"/><path class="b" d="M176.534,513.57l2.247-2.286c.107-.109.215-.218.327-.321a.535.535,0,0,1,.815-.028c.269.269.179.556-.036.821a1.679,1.679,0,0,1-.118.125c-.866.865-1.738,1.725-2.6,2.6a.68.68,0,0,1-1.127.01c-.316-.333-.658-.642-.967-.981a.536.536,0,0,1-.021-.817.515.515,0,0,1,.808.046C176.09,512.97,176.273,513.241,176.534,513.57Z" transform="translate(555.977 3349.823)"/></g></g></svg>