<svg xmlns="http://www.w3.org/2000/svg" width="70" height="77.572" viewBox="0 0 70 77.572"><defs><style>.a{fill:none;}.b{fill:#fff;}.c,.d{stroke:none;}.d{fill:#8bc34a;}</style></defs><g transform="translate(-906 -4138.214)"><g class="a" transform="translate(976 4137) rotate(90)"><path class="c" d="M55.357,0A8,8,0,0,1,62.3,4.031l15.429,27a8,8,0,0,1,0,7.938l-15.429,27A8,8,0,0,1,55.357,70H24.643A8,8,0,0,1,17.7,65.969l-15.429-27a8,8,0,0,1,0-7.938l15.429-27A8,8,0,0,1,24.643,0Z"/><path class="d" d="M 24.642578125 1 C 22.13687896728516 1 19.80804443359375 2.351478576660156 18.56488800048828 4.527023315429688 L 3.136314392089844 31.52703475952148 C 1.912185668945312 33.66923522949219 1.912185668945312 36.33075714111328 3.136314392089844 38.47297668457031 L 18.56487655639648 65.47296905517578 C 19.80804443359375 67.64852142333984 22.13689041137695 69 24.642578125 69 L 55.357421875 69 C 57.86311340332031 69 60.19195556640625 67.64852142333984 61.43511962890625 65.47297668457031 L 76.86368560791016 38.47296905517578 C 78.08781433105469 36.33075714111328 78.08781433105469 33.66923522949219 76.86368560791016 31.52702331542969 L 61.43511962890625 4.527023315429688 C 60.19195556640625 2.351478576660156 57.86311340332031 1 55.357421875 1 L 24.642578125 1 M 24.642578125 0 L 55.357421875 0 C 58.22827911376953 0 60.87902069091797 1.538276672363281 62.30336761474609 4.030876159667969 L 77.73193359375 31.03088760375977 C 79.13734436035156 33.4903450012207 79.13734436035156 36.5096435546875 77.73193359375 38.96910858154297 L 62.30336761474609 65.96910858154297 C 60.87902069091797 68.46170806884766 58.22827911376953 70 55.357421875 70 L 24.642578125 70 C 21.77172088623047 70 19.12097930908203 68.46170806884766 17.69663238525391 65.96910858154297 L 2.26806640625 38.96910858154297 C 0.8626556396484375 36.5096435546875 0.8626556396484375 33.4903450012207 2.26806640625 31.03088760375977 L 17.6966438293457 4.030876159667969 C 19.12097930908203 1.538276672363281 21.77173233032227 0 24.642578125 0 Z"/></g><path class="b" d="M616.582,664l.914,1.65h.7c2.181,0,4.363.017,6.544-.012a.936.936,0,0,1,1.057.691c1.747,4.47,3.544,8.919,5.28,13.394a2.864,2.864,0,0,1,.081,1.606c-.761,3.1-3.512,4.763-6.841,4.209a5.231,5.231,0,0,1-3.641-2.053,4.3,4.3,0,0,1-.679-4.553c1.548-3.613,2.906-7.317,4.34-10.985.11-.281.193-.573.31-.925H617.22v24.219h12.562V694H602.709v-2.674h12.527V667.05h-7.417c.132.359.242.673.363.982,1.5,3.84,3.026,7.669,4.477,11.529a3.421,3.421,0,0,1,.086,1.947c-.8,3-3.539,4.569-6.789,4.031a5.3,5.3,0,0,1-4.661-4.3,2.724,2.724,0,0,1,.1-1.517c1.741-4.473,3.535-8.922,5.284-13.392a.943.943,0,0,1,1.059-.694c2.472.028,4.945.012,7.264.012l.872-1.651Zm13.341,16.3-4.51-11.8-4.51,11.8Zm-18.353.005-4.508-11.81-4.512,11.81Z" transform="translate(324.77 3498)"/></g></svg>