<svg xmlns="http://www.w3.org/2000/svg" xmlns:xlink="http://www.w3.org/1999/xlink" width="100%" height="100%" viewBox="0 0 575 533"><defs><style>.a{fill:url(#a);}.b,.c{fill:none;stroke:rgba(255,255,255,0.3);stroke-miterlimit:10;}.c{stroke-width:1.36px;}.d{fill:url(#b);}.e{fill:url(#c);}.f{fill:url(#d);}.g{fill:url(#e);}.h{fill:url(#f);}.i{fill:url(#g);}.j{fill:url(#h);}.k{fill:url(#i);}.l{fill:#fefef0;}.m{fill:url(#j);}.n{fill:url(#k);}.o{fill:url(#l);}.p{fill:url(#m);}.q{fill:url(#n);}.r{fill:url(#o);}.s{fill:#fff;}.t{fill:url(#p);}.u{fill:url(#q);}.v{fill:url(#r);}.w{fill:url(#s);}.x{fill:url(#t);}.y{fill:url(#u);}.z{fill:url(#v);}.aa{fill:url(#w);}.ab{fill:url(#x);}.ac{fill:url(#y);}.ad{fill:url(#z);}.ae{fill:url(#aa);}.af{fill:url(#ab);}.ag{fill:url(#ac);}.ah{fill:url(#ad);}.ai{fill:url(#ae);}.aj{fill:url(#af);}.ak{fill:url(#ag);}.al{fill:url(#ah);}.am{fill:url(#aj);}.an{fill:#c7d2ff;}.ao{fill:#8bc34a;}.ap{fill:url(#ak);}.aq{fill:url(#al);}</style><linearGradient id="a" x1="1" y1="0.5" x2="0" y2="0.5" gradientUnits="objectBoundingBox"><stop offset="0" stop-color="#0c1556"/><stop offset="1" stop-color="#2636b0"/></linearGradient><radialGradient id="b" cx="0.5" cy="0.522" r="0.547" gradientTransform="translate(0.029 0.051) scale(0.941 0.89)" gradientUnits="objectBoundingBox"><stop offset="0" stop-color="#0a1961" stop-opacity="0.502"/><stop offset="0" stop-color="#2231a3"/><stop offset="0.17" stop-color="#2331a3" stop-opacity="0.82"/><stop offset="0.44" stop-color="#2130a1" stop-opacity="0.588"/><stop offset="0.78" stop-color="#2231a1" stop-opacity="0.29"/><stop offset="1" stop-color="#2231a1" stop-opacity="0"/></radialGradient><radialGradient id="c" cx="0.5" cy="0.5" r="0.5" gradientUnits="objectBoundingBox"><stop offset="0" stop-color="#fff" stop-opacity="0.4"/><stop offset="0.14" stop-color="#fff" stop-opacity="0.329"/><stop offset="0.53" stop-color="#fff" stop-opacity="0.149"/><stop offset="0.83" stop-color="#fff" stop-opacity="0.039"/><stop offset="1" stop-color="#fff" stop-opacity="0"/></radialGradient><radialGradient id="d" cx="0.5" cy="0.5" r="0.486" gradientTransform="translate(-0.029) scale(1.059 1)" gradientUnits="objectBoundingBox"><stop offset="0" stop-color="#0a1961" stop-opacity="0.502"/><stop offset="0" stop-color="#1931a2"/><stop offset="0.12" stop-color="#1931a2" stop-opacity="0.949"/><stop offset="0.31" stop-color="#1931a2" stop-opacity="0.8"/><stop offset="0.54" stop-color="#1931a2" stop-opacity="0.569"/><stop offset="0.81" stop-color="#1931a2" stop-opacity="0.251"/><stop offset="1" stop-color="#1931a2" stop-opacity="0"/></radialGradient><radialGradient id="e" cx="0.5" cy="0.5" r="0.5" gradientUnits="objectBoundingBox"><stop offset="0" stop-color="#fff" stop-opacity="0.502"/><stop offset="0.27" stop-color="#fff" stop-opacity="0.329"/><stop offset="0.6" stop-color="#fff" stop-opacity="0.149"/><stop offset="0.85" stop-color="#fff" stop-opacity="0.039"/><stop offset="1" stop-color="#fff" stop-opacity="0"/></radialGradient><radialGradient id="f" cx="0.5" cy="0.5" r="0.5" gradientUnits="objectBoundingBox"><stop offset="0" stop-color="#fff" stop-opacity="0.302"/><stop offset="0.41" stop-color="#fff" stop-opacity="0.149"/><stop offset="0.78" stop-color="#fff" stop-opacity="0.039"/><stop offset="1" stop-color="#fff" stop-opacity="0"/></radialGradient><linearGradient id="g" x1="0.997" y1="0.5" x2="0.004" y2="0.5" gradientUnits="objectBoundingBox"><stop offset="0" stop-color="#1c2c72"/><stop offset="1" stop-color="#2f3fe7"/></linearGradient><linearGradient id="h" x1="0.049" y1="0.501" x2="0.977" y2="0.501" gradientUnits="objectBoundingBox"><stop offset="0" stop-color="#2d3ddc"/><stop offset="1" stop-color="#2636b0"/></linearGradient><linearGradient id="i" x1="0.5" y1="-0.076" x2="0.5" y2="0.967" gradientUnits="objectBoundingBox"><stop offset="0" stop-color="#fff"/><stop offset="1" stop-color="#bcbcbc"/></linearGradient><linearGradient id="j" x1="0" x2="1" xlink:href="#a"/><linearGradient id="k" x1="0" x2="1.001" xlink:href="#a"/><linearGradient id="l" x1="0.5" x2="0.5" y2="1" gradientUnits="objectBoundingBox"><stop offset="0" stop-color="#212f9f"/><stop offset="0.035" stop-color="#2230a0"/><stop offset="0.059" stop-color="#2230a0" stop-opacity="0.106"/><stop offset="1" stop-color="#212f9e"/></linearGradient><linearGradient id="m" x1="0.5" x2="0.5" y2="1" gradientUnits="objectBoundingBox"><stop offset="0" stop-color="#1f2d98"/><stop offset="0.069" stop-color="#1f2d97" stop-opacity="0.949"/><stop offset="0.106" stop-color="#1f2d97" stop-opacity="0.18"/><stop offset="1" stop-color="#1f2d99"/></linearGradient><linearGradient id="n" x1="0.5" x2="0.5" y2="1" gradientUnits="objectBoundingBox"><stop offset="0" stop-color="#131d6d"/><stop offset="0.057" stop-color="#121d6b" stop-opacity="0.886"/><stop offset="0.089" stop-color="#121d6d" stop-opacity="0"/><stop offset="1" stop-color="#131e6d"/></linearGradient><linearGradient id="o" x1="0.509" y1="0.065" x2="0.482" y2="1.34" gradientUnits="objectBoundingBox"><stop offset="0" stop-color="#fff" stop-opacity="0"/><stop offset="1" stop-color="#fff" stop-opacity="0.6"/></linearGradient><linearGradient id="p" x1="0.5" y1="-0.143" x2="0.5" y2="1.147" gradientUnits="objectBoundingBox"><stop offset="0" stop-color="#7a7a7a"/><stop offset="0.48" stop-color="#f8f8f8"/><stop offset="0.49" stop-color="#7d7d7d"/><stop offset="0.5" stop-color="#7e7e7e"/><stop offset="0.84" stop-color="#dadada"/><stop offset="1" stop-color="#fff"/></linearGradient><linearGradient id="q" x1="0.5" y1="-0.205" x2="0.5" y2="1.086" gradientUnits="objectBoundingBox"><stop offset="0" stop-color="#7a7a7a"/><stop offset="0.48" stop-color="#f6f6f6"/><stop offset="0.49" stop-color="#7a7a7a"/><stop offset="1" stop-color="#fff"/></linearGradient><linearGradient id="r" x1="0.474" y1="0.19" x2="0.553" y2="1.125" xlink:href="#o"/><linearGradient id="s" x1="0.483" y1="0.336" x2="0.559" y2="1.025" xlink:href="#o"/><linearGradient id="t" x1="0.497" y1="0.272" x2="0.508" y2="1.067" xlink:href="#o"/><linearGradient id="u" x1="0.468" y1="0.156" x2="0.604" y2="0.969" xlink:href="#o"/><linearGradient id="v" x1="0.484" y1="0.16" x2="0.503" y2="0.932" xlink:href="#o"/><linearGradient id="w" x1="0.44" y1="0.03" x2="0.579" y2="1.131" xlink:href="#o"/><linearGradient id="x" x1="0.494" y1="0.39" x2="0.528" y2="0.989" xlink:href="#o"/><linearGradient id="y" x1="0.136" y1="0.501" x2="0.864" y2="0.501" gradientUnits="objectBoundingBox"><stop offset="0" stop-color="#fff" stop-opacity="0"/><stop offset="1" stop-color="#fff"/></linearGradient><linearGradient id="z" x1="0.496" y1="0.126" x2="0.532" y2="1.015" xlink:href="#o"/><linearGradient id="aa" x1="0.5" y1="0.244" x2="0.5" y2="0.962" xlink:href="#o"/><linearGradient id="ab" x1="0.503" y1="0.311" x2="0.492" y2="0.987" xlink:href="#o"/><linearGradient id="ac" x1="0.504" y1="0.269" x2="0.487" y2="1.211" xlink:href="#o"/><linearGradient id="ad" x1="0.514" y1="0.101" x2="0.478" y2="1.071" xlink:href="#o"/><linearGradient id="ae" x1="0.289" y1="1" x2="0.257" y2="-0.024" xlink:href="#o"/><linearGradient id="af" x1="0.5" y1="0.912" x2="0.5" y2="0.082" gradientUnits="objectBoundingBox"><stop offset="0" stop-color="#fff" stop-opacity="0"/><stop offset="1" stop-color="#fff" stop-opacity="0.4"/></linearGradient><linearGradient id="ag" x1="0.5" y1="0.164" x2="0.5" y2="0.994" xlink:href="#o"/><linearGradient id="ah" x1="0" y1="0.5" x2="1" y2="0.5" xlink:href="#g"/><linearGradient id="aj" x1="0" x2="1" xlink:href="#a"/><radialGradient id="ak" cx="0.5" cy="0.588" r="0.512" gradientTransform="translate(0.011 0.001) scale(0.978 0.98)" gradientUnits="objectBoundingBox"><stop offset="0" stop-color="#fff" stop-opacity="0.2"/><stop offset="0.2" stop-color="#fff" stop-opacity="0.149"/><stop offset="0.7" stop-color="#fff" stop-opacity="0.039"/><stop offset="1" stop-color="#fff" stop-opacity="0"/></radialGradient><radialGradient id="al" cx="0.5" gradientTransform="translate(0)" xlink:href="#f"/></defs><g transform="translate(-1093 -2023)"><path class="a" d="M364.588,0H210.415A133.36,133.36,0,0,0,94.947,66.581L17.861,199.922a133.024,133.024,0,0,0,0,133.156L94.947,466.425A133.365,133.365,0,0,0,210.415,533H364.588A133.354,133.354,0,0,0,480.05,466.424l77.086-133.346a133,133,0,0,0,0-133.156L480.05,66.581A133.342,133.342,0,0,0,364.588,0Z" transform="translate(1092.999 2023)"/><line class="b" y2="66.21" transform="translate(1241.539 2202.356)"/><line class="b" y2="66.21" transform="translate(1527.303 2128.12)"/><line class="c" y2="122.651" transform="translate(1192.163 2341.963)"/><path class="c" d="M297.263,431.681H182.058a4.443,4.443,0,0,1-4.437-4.443V373.4a4.443,4.443,0,0,0-4.443-4.443H152.443A4.443,4.443,0,0,1,148,364.512V320.75" transform="translate(1030.956 1888.248)"/><path class="c" d="M607,434.131H726.939a4.925,4.925,0,0,0,4.925-4.925V374.5a4.838,4.838,0,0,1,4.832-4.832h29.51a5.732,5.732,0,0,0,5.732-5.732V330.75" transform="translate(838.571 1884.052)"/><rect class="d" width="9.873" height="9.293" transform="translate(1174.014 2203.704)"/><circle class="e" cx="4.937" cy="4.937" r="4.937" transform="translate(1174.014 2204.124)"/><rect class="f" width="9.873" height="10.454" transform="translate(1605.572 2209.344)"/><circle class="g" cx="4.937" cy="4.937" r="4.937" transform="translate(1605.572 2209.344)"/><circle class="h" cx="4.937" cy="4.937" r="4.937" transform="translate(1606.734 2177.441)"/><rect class="i" width="265.13" height="21.582" transform="translate(1256.212 2257.529)"/><path class="j" d="M317.31,388.8s2.695,0,4.164-3.676l5.152-13.021s1.742-5.4,9.293-5.4h72.4s5.4.244,7.359,5.152l7.109,17.9Z" transform="translate(959.992 1868.997)"/><path class="k" d="M280.992,438.12h265.13V616.19a4.164,4.164,0,0,1-4.164,4.164H285.144a4.164,4.164,0,0,1-4.164-4.164V438.12Z" transform="translate(975.227 1838.859)"/><rect class="l" width="248.206" height="163.347" rx="5.25" transform="translate(1264.796 2287.282)"/><rect class="m" width="43.658" height="4.658" rx="2.329" transform="translate(1297.409 2248.721)"/><path class="n" d="M469.695,388.5H450.651s-4.966-.18-7.417-6.313l-3.926-10.077s-1.713-5.4-8.828-5.4h24.736a8.712,8.712,0,0,1,8.09,5.535Z" transform="translate(912.553 1868.997)"/><rect class="o" width="6" height="124" transform="translate(1189 2341)"/><rect class="p" width="6" height="68" transform="translate(1239 2201)"/><rect class="q" width="6" height="68" transform="translate(1524 2128)"/><path class="r" d="M448.916,215.783l.314-31.943-3.676.087-.314,31.949Z" transform="translate(906.365 1945.792)"/><path class="s" d="M483.895,163.25c2.015.273,4.025.546,6.04.831.383.052.761.128,1.162.209a2.138,2.138,0,0,1,1.847,2.5,2.246,2.246,0,0,1-2.648,1.655c-3.38-.36-6.784-1.022-10.158-.912-19.747.639-34.807,9.577-43.8,27.152-9.211,18-7.26,35.655,4.234,52.271a7.777,7.777,0,0,0,.523.68,29.268,29.268,0,0,1,4.507-.784,8.712,8.712,0,0,1,8.474,6.493,8.851,8.851,0,0,1-14.555,8.822,8.712,8.712,0,0,1-1.9-10.419,1.6,1.6,0,0,0-.2-2.01A53.311,53.311,0,0,1,426.7,221.352a8.125,8.125,0,0,0-.174-.912v-6.551c.343-2.393.581-4.8,1.045-7.179,4.019-21.489,21.983-39.081,43.559-42.63,2-.331,4.025-.581,6.04-.831ZM450.139,255.6a4.646,4.646,0,1,0-4.548,4.7A4.646,4.646,0,0,0,450.139,255.6Z" transform="translate(914.209 1954.42)"/><path class="s" d="M507.224,276.173l-6.04-.831c-.343-.052-.691-.122-1.034-.2a2.081,2.081,0,0,1-1.829-2.486c.221-1.237,1.26-1.789,2.619-1.655a100.724,100.724,0,0,0,10.454.894,49.475,49.475,0,0,0,45.232-30.933c6.749-17.209,4.524-33.471-6.121-48.571-.139-.2-.3-.395-.447-.581h0a29.824,29.824,0,0,1-4.5.79,8.712,8.712,0,0,1-8.479-6.487,8.863,8.863,0,0,1,14.56-8.84,8.741,8.741,0,0,1,1.893,10.425,1.591,1.591,0,0,0,.209,2,53.433,53.433,0,0,1,10.716,28.389,7.288,7.288,0,0,0,.174.918v6.54c-.058.273-.139.54-.18.819-.366,2.5-.581,5.024-1.109,7.492-4.321,20.937-22.233,38.077-43.315,41.492-2,.325-4.025.581-6.034.836ZM545.556,188.4a4.612,4.612,0,1,1,.023,0Z" transform="translate(884.133 1949.513)"/><path class="s" d="M551.366,173.969a2.166,2.166,0,0,1-2.056-2.213,2.108,2.108,0,0,1,2.155-1.986,2.073,2.073,0,0,1,2.044,2.19A2.137,2.137,0,0,1,551.366,173.969Z" transform="translate(862.741 1951.831)"/><path class="s" d="M484.678,339.762a2.085,2.085,0,0,1-2.108-2.05,2.143,2.143,0,0,1,2.155-2.132,2.091,2.091,0,0,1,2.033,2.126,2.044,2.044,0,0,1-2.079,2.056Z" transform="translate(890.717 1882.079)"/><path class="t" d="M455.772,245.173c-1.225-2.277-2.393-4.373-3.485-6.493-.244-.488-.546-.581-1.133-.581-1.2.046-2.4.064-3.6.064-1.6,0-2.55-.7-2.59-1.94q-.192-5.663-.319-11.325c0-1.249.871-1.957,2.48-2.015,1.2-.046,2.393-.064,3.589-.064.581,0,.883-.128,1.1-.616.958-2.155,2-4.286,3.148-6.7-.767-.534-1.818-1.237-2.823-1.98-1.423-1.045-1.992-4.7-.633-5.808,3.223-2.619,7-2.561,10.245-5.169a2.937,2.937,0,0,1,4.124-.041c.952.709,1.859,1.446,2.614,2.039,3.1-.982,5.959-1.882,8.8-2.817a.79.79,0,0,0,.412-.662c0-.958-.052-1.917-.046-2.9,0-1.249.877-1.975,2.492-2q7.312-.151,14.618-.244c1.615,0,2.532.668,2.608,1.917.058.958,0,1.917.122,2.875a1.051,1.051,0,0,0,.668.691c2.788.825,5.6,1.6,8.712,2.48.7-.581,1.62-1.411,2.579-2.19a2.9,2.9,0,0,1,3.949-.1c3.45,2.538,7.121,2.085,10.547,4.646,1.307.982,1.092,4.966-.134,6-.918.772-1.858,1.533-2.788,2.323,0,0-.029.052.046-.081,1.22,2.323,2.37,4.5,3.572,6.673a1.266,1.266,0,0,0,.9.395c1.237.029,2.474-.041,3.717-.035,1.615,0,2.55.68,2.59,1.922q.192,5.663.319,11.325c.029,1.249-.865,1.969-2.468,2.027-1.231.046-2.48,0-3.705.1a1.371,1.371,0,0,0-.941.581c-1.057,2.132-2.05,4.275-3.189,6.679.767.54,2.132-1.7,3.13-.958,1.435,1.063,1.162,4.977-.186,6.075q-4.867,3.973-9.781,7.916a2.9,2.9,0,0,1-3.949.075c-1.011-.749-1.963-1.539-2.741-2.149-3.061.982-5.854,1.864-8.625,2.788a1,1,0,0,0-.581.732c-.046.958.046,1.917.046,2.9,0,1.243-.889,1.975-2.492,2.01q-7.312.151-14.618.244c-1.615,0-2.538-.674-2.614-1.917-.058-.958,0-1.922-.122-2.875a1.162,1.162,0,0,0-.743-.732c-2.747-.825-5.517-1.591-8.642-2.48-.685.581-1.591,1.388-2.55,2.166a2.927,2.927,0,0,1-4.124.058q-5.035-3.711-10.042-7.446c-1.522-1.133-2.039-5.024-.581-6.22.848-.7,2.219,1.568,3.072.871C455.813,245.144,455.836,245.08,455.772,245.173Zm57,8.288,7.295-5.866c-.865-.581-1.8-1.162-2.666-1.783-1.266-.918-1.69-4.449-.825-5.581,1.9-2.5,3.52-2.375,4.309-5.227.383-1.376,1.1-1.818,2.9-1.853,1.162-.029,2.358-.041,3.525-.064l-.221-7.864c-1.226,0-2.375.046-3.531.052-1.789,0-2.532-.412-2.991-1.742a24.336,24.336,0,0,0-4.489-7.823c-.929-1.1-1.3-4.7-.087-5.657.831-.656,2.2,1.586,2.9,1.069l-7.591-5.639c-.7.581-1.44,1.289-2.242,1.934a3.011,3.011,0,0,1-3.723.378,40.219,40.219,0,0,0-10.193-3.119c-1.742-.3-2.323-.848-2.4-2.23-.041-.912-.052-1.824-.081-2.712l-10.152.168c.029.987.07,1.911.075,2.84,0,1.214-.581,1.853-2.085,2.155a40.725,40.725,0,0,0-10.454,3.566,2.9,2.9,0,0,1-3.351-.261c-.894-.662-1.742-1.365-2.538-2.015l-7.237,5.872c.842.581,2.253-1.62,3.136-.958,1.115.836.807,4.431,0,5.471a23.609,23.609,0,0,0-4.066,8.073c-.366,1.313-1.1,1.771-2.811,1.824-1.162.041-2.37.046-3.578.064l.227,7.87c1.289,0,2.486-.052,3.682-.058,1.574,0,2.37.436,2.765,1.615.964,2.869,2.962,3.043,5.053,5.523.842,2.323.29,4.338-.86,5.227-.86.674-1.806,1.278-2.643,1.859l7.655,5.732c.761-.685,1.5-1.406,2.323-2.073a2.952,2.952,0,0,1,3.612-.424,40.688,40.688,0,0,0,10.321,3.113c1.795.29,2.358.877,2.41,2.323.029.883.052,1.742.076,2.672l10-.168c.064-.076.1-.1.1-.128v-2.782c0-1.214.581-1.812,2.114-2.126a40.4,40.4,0,0,0,10.35-3.537,2.9,2.9,0,0,1,3.456.232C511.11,252.113,511.946,252.822,512.771,253.46Z" transform="translate(906.614 1940.712)"/><path class="u" d="M504.784,227.98c10.727-.511,20.02,6.034,20.74,14.6.7,8.288-7.794,15.524-18.841,16.065-10.71.523-20.049-6.052-20.74-14.6C485.269,235.71,493.749,228.479,504.784,227.98Zm1.336,26.966c8.247-.174,14.868-5.57,14.636-11.929s-7.184-11.552-15.408-11.366-14.862,5.564-14.636,11.929,7.2,11.511,15.408,11.337Z" transform="translate(889.32 1927.267)"/><path class="s" d="M455.626,239.357c-1.225-2.271-2.393-4.368-3.485-6.487-.244-.488-.546-.581-1.132-.581-1.2.041-2.393.064-3.6.058-1.6,0-2.544-.7-2.585-1.934q-.192-5.663-.319-11.325c-.029-1.255.865-1.963,2.474-2.015,1.2-.046,2.4-.064,3.6-.064.581,0,.877-.128,1.1-.616.953-2.161,2-4.292,3.142-6.708-.761-.529-1.818-1.231-2.823-1.975-1.417-1.051-1.44-2.027-.081-3.13q4.832-3.926,9.7-7.841a2.937,2.937,0,0,1,4.124-.041c.947.709,1.853,1.446,2.614,2.033,3.09-.976,5.959-1.876,8.8-2.817a.8.8,0,0,0,.412-.656c0-.958-.052-1.917-.052-2.9,0-1.249.883-1.975,2.492-2.01q7.306-.139,14.618-.244c1.615,0,2.538.674,2.608,1.917.058.958,0,1.922.122,2.875a1.069,1.069,0,0,0,.668.7c2.788.825,5.6,1.6,8.712,2.48.709-.581,1.62-1.411,2.585-2.19a2.9,2.9,0,0,1,3.949-.1q5.175,3.81,10.309,7.637c1.307.982,1.33,1.969.1,3-.918.772-1.859,1.533-2.788,2.323,0,0-.035.058.041-.076,1.225,2.323,2.37,4.5,3.578,6.673a1.3,1.3,0,0,0,.9.395c1.231,0,2.474-.041,3.711-.035,1.615,0,2.55.674,2.59,1.922q.192,5.663.325,11.325c.029,1.249-.871,1.969-2.468,2.027-1.237.046-2.48,0-3.711.1a1.371,1.371,0,0,0-.941.581c-1.057,2.126-2.05,4.275-3.183,6.673.761.54,1.806,1.249,2.805,1.992,1.435,1.063,1.481,2.033.134,3.13q-4.873,3.973-9.775,7.91a2.9,2.9,0,0,1-3.955.076c-1.011-.743-1.963-1.533-2.741-2.143-3.061.982-5.854,1.859-8.625,2.788a1,1,0,0,0-.581.732c-.046.952.047,1.917.041,2.9,0,1.243-.883,1.975-2.492,2.01q-7.306.139-14.618.244c-1.615,0-2.538-.674-2.608-1.917-.058-.958,0-1.922-.128-2.875a1.162,1.162,0,0,0-.715-.761c-2.747-.819-5.517-1.591-8.642-2.474-.68.581-1.591,1.388-2.544,2.161a2.939,2.939,0,0,1-4.129.064q-5.03-3.723-10.042-7.452c-1.516-1.133-1.527-2.062-.058-3.258l2.561-2.085C455.666,239.334,455.69,239.264,455.626,239.357Zm57,8.305,7.289-5.86c-.859-.581-1.795-1.162-2.666-1.783-1.266-.923-1.406-1.661-.54-2.8a23.573,23.573,0,0,0,4.025-7.992c.383-1.371,1.1-1.812,2.9-1.853l3.531-.058-.227-7.87c-1.225,0-2.375.052-3.525.058-1.795,0-2.532-.412-3-1.742a24.121,24.121,0,0,0-4.478-7.846c-.929-1.1-.825-1.859.383-2.817.831-.656,1.742-1.255,2.451-1.771l-7.591-5.639c-.7.581-1.44,1.284-2.236,1.934a3.028,3.028,0,0,1-3.729.378,40.1,40.1,0,0,0-10.2-3.09c-1.742-.3-2.352-.848-2.41-2.23-.035-.912-.052-1.824-.076-2.712l-10.158.168c.029.987.076,1.911.076,2.834,0,1.22-.581,1.859-2.085,2.161a40.608,40.608,0,0,0-10.454,3.566,2.9,2.9,0,0,1-3.357-.261c-.889-.662-1.742-1.365-2.538-2.015l-7.231,5.872c.842.581,1.8,1.162,2.683,1.847,1.121.836,1.254,1.626.453,2.666a23.557,23.557,0,0,0-4.066,8.073c-.366,1.307-1.1,1.742-2.805,1.824-1.162.035-2.375.041-3.578.064l.221,7.87c1.289,0,2.486-.052,3.682-.064,1.574,0,2.375.441,2.77,1.62a24.306,24.306,0,0,0,4.553,8.021c.889,1.051.79,1.841-.366,2.741-.854.674-1.8,1.278-2.637,1.864l7.655,5.732c.755-.685,1.5-1.406,2.323-2.073a2.946,2.946,0,0,1,3.612-.43,40.541,40.541,0,0,0,10.321,3.119c1.795.29,2.358.877,2.41,2.323.035.883.052,1.742.081,2.666l9.99-.163c.07-.076.11-.1.11-.128v-2.782c0-1.214.581-1.812,2.114-2.132a40.388,40.388,0,0,0,10.35-3.531,2.9,2.9,0,0,1,3.485.232C510.963,246.3,511.8,247.006,512.63,247.662Z" transform="translate(906.674 1943.152)"/><path class="s" d="M504.634,222.12c10.727-.511,20.026,6.029,20.746,14.6.691,8.282-7.8,15.525-18.841,16.065-10.716.523-20.049-6.052-20.746-14.6C485.119,229.879,493.6,222.648,504.634,222.12Zm1.342,26.966c8.247-.174,14.862-5.57,14.63-11.929s-7.184-11.505-15.408-11.337-14.857,5.558-14.63,11.929S497.757,249.26,505.975,249.086Z" transform="translate(889.383 1929.728)"/><path class="v" d="M495.456,190.466l-12.2,4.066-.319-16.6,12.2-3.793Z" transform="translate(890.562 1949.869)"/><path class="w" d="M468.179,187.251l-9.873,7.55L458.05,169l9.9-8.067Z" transform="translate(900.995 1955.413)"/><path class="x" d="M572.122,236.98l-9.9,8.073-.18,22.616,9.908-8.067Z" transform="translate(857.405 1923.475)"/><path class="y" d="M464.445,192.132l-5.227,10.454-.378-42.043,5.512-11.523Z" transform="translate(900.664 1960.411)"/><rect class="s" width="12.777" height="3.038" transform="translate(1423.547 2182.337) rotate(-64.43)"/><path class="z" d="M579.2,211.11l-5.512,11.523-.2,26.31,5.808-12.2Z" transform="translate(852.605 1934.338)"/><path class="aa" d="M590.724,206.5l-.267-40.655-3.676.087.267,40.661Z" transform="translate(847.034 1953.349)"/><rect class="s" width="12.777" height="3.676" transform="translate(1364.32 2184.909) rotate(-118.33)"/><path class="ab" d="M457,247.416l6.063,11.25-.331-15.681L456.66,231.74Z" transform="translate(901.578 1925.677)"/><rect class="ac" width="12.777" height="3.676" transform="translate(1428.794 2162.288) rotate(-118.33)"/><path class="ad" d="M570.24,169.73l6.064,11.244-.11,27.971-5.808-9.293Z" transform="translate(853.968 1951.716)"/><path class="ae" d="M561.7,163.72l10.158,7.754.087,22.755-10.454-7.55Z" transform="translate(857.635 1954.242)"/><path class="af" d="M464.85,263.807l10.158,7.754.093-22.047-10.158-7.754Z" transform="translate(898.145 1921.468)"/><path class="ag" d="M487.5,275.539l12.22,3.729-.267-15.8-12.22-3.734Z" transform="translate(888.764 1913.925)"/><path class="ah" d="M532.606,163.95l12.22,3.729-.139,21.42-12.2-3.485Z" transform="translate(869.792 1954.147)"/><rect class="ai" width="12.777" height="31.943" transform="translate(1402.281 2197.775) rotate(180)"/><rect class="aj" width="12.777" height="33.105" transform="translate(1399.958 2136.874) rotate(180)"/><path class="ak" d="M546.472,247.13l-12.2,3.793-.319,22.657,12.2-3.793Z" transform="translate(869.18 1919.214)"/><path class="al" d="M352.486,547.853c.093-4.368.192-8.712.273-13.1.052-2.631.052-5.262.116-7.893.052-1.946,1.1-3.386,2.985-3.409,6.133-.093,12.272-.087,18.4.122,1.917.064,2.782,1.615,2.776,3.6,0,6.209.081,12.411.081,18.62v56.459c0,3.833-.953,4.8-4.71,4.8-4.925,0-9.873-.145-14.775.058-2.5.1-4.147-.685-5.152-2.9Zm12.493,45.807a5.639,5.639,0,0,0,5.657-5.669,5.744,5.744,0,1,0-5.657,5.669Z" transform="translate(945.248 1803.144)"/><path class="m" d="M466.638,573.736c-.11,2.073-.232,4.147-.319,6.226a10.106,10.106,0,0,1-9.873,9.6c-6.615.11-13.23.134-19.846.2-.395,0-.79.07-1.406.128-.058,1.04-.1,2.033-.174,3.014-.192,2.515-1.371,3.711-3.856,3.734-4.118.035-8.236.041-12.353-.041-3.729-.07-4.507-.9-4.6-4.571v-2.2c-1.284-.058-2.4-.134-3.531-.157s-2.149,0-3.4,0V575.734H409.6q22.285,0,44.564-.046c4.542,0,5.425-.918,5.436-5.523q.035-17.929,0-35.852c0-2.614-1.469-4.036-4.17-4.065H407.27V523.26h10.379q19.538.076,39.093.18a9.988,9.988,0,0,1,9.571,9.42c.087,2.143.215,4.286.325,6.429Z" transform="translate(922.282 1803.209)"/><path class="am" d="M407.081,662.5c-.267-5.808.285-6.487,5.808-6.516,8.236-.046,16.477,0,24.718,0,3.334,0,4.286,1.022,4.309,4.379v2.114Z" transform="translate(922.383 1747.537)"/><rect class="an" width="85.376" height="6.389" rx="3.194" transform="translate(1413.901 2326.519)"/><rect class="an" width="85.376" height="6.389" rx="3.194" transform="translate(1413.901 2338.7)"/><rect class="an" width="43.559" height="6.389" rx="3.194" transform="translate(1413.899 2352.622)"/><rect class="an" width="43.559" height="6.389" rx="3.194" transform="translate(1413.899 2363.643)"/><rect class="ao" width="43.559" height="6.389" rx="3.194" transform="translate(1413.899 2403.667)"/><ellipse class="ap" cx="4.646" cy="4.542" rx="4.646" ry="4.542" transform="translate(1187.517 2337.538)"/><circle class="aq" cx="4.646" cy="4.646" r="4.646" transform="translate(1236.893 2197.743)"/><circle class="h" cx="4.646" cy="4.646" r="4.646" transform="translate(1522.657 2123.495)"/></g></svg>