<svg xmlns="http://www.w3.org/2000/svg" xmlns:xlink="http://www.w3.org/1999/xlink" width="1920.097" height="1189.308" viewBox="0 0 1920.097 1189.308"><defs><style>.a{fill:#fff;stroke:#707070;}.b{clip-path:url(#a);}.c{fill:#3f51b5;}.d{fill:url(#b);}.e{fill:#6980fe;}.f{fill:#4984fe;}.g{fill:url(#c);}.h{fill:url(#d);}</style><clipPath id="a"><rect class="a" width="255" height="490" transform="translate(0 646)"/></clipPath><linearGradient id="b" y1="0.5" x2="1" y2="0.5" gradientUnits="objectBoundingBox"><stop offset="0" stop-color="#2535ae"/><stop offset="0.134" stop-color="#1f2d98"/><stop offset="0.351" stop-color="#17237c"/><stop offset="0.569" stop-color="#111c68"/><stop offset="0.786" stop-color="#0e185c"/><stop offset="1" stop-color="#0d1758"/></linearGradient><linearGradient id="c" x1="0.5" x2="0.5" y2="1" gradientUnits="objectBoundingBox"><stop offset="0" stop-color="#3f51b5"/><stop offset="1" stop-color="#3f51b5"/></linearGradient><linearGradient id="d" x1="0.5" x2="0.5" y2="1" gradientUnits="objectBoundingBox"><stop offset="0" stop-color="#fff" stop-opacity="0.435"/><stop offset="1" stop-color="#fff" stop-opacity="0"/></linearGradient></defs><g transform="translate(0.097)"><g class="b"><g transform="translate(-2390 13)"><path class="c" d="M2645,876c0,135.034-109.466,246-244.5,246S2156,1012.534,2156,877.5,2265.466,633,2400.5,633,2645,740.966,2645,876Z"/></g></g><g transform="translate(-3445.5 465)"><path class="d" d="M1987.5,1237h1920c-.143,2.48-.412,4.96-.412,7.441q-.028,527.466-.018,1054.933v6.279l-1.3.654c-1.844-2.076-3.621-4.216-5.541-6.218-66.8-69.626-150.483-102.429-244.8-111.077-22.637-2.075-45.567-1.407-68.357-1.249a294.223,294.223,0,0,0-77.694,11.351,582.992,582.992,0,0,1-114.621,20.444,402.356,402.356,0,0,1-105.368-5.974c-59.193-11.291-112.022-36.306-158.757-74.33-27.7-22.539-56.808-42.938-88.825-59.093a340.052,340.052,0,0,0-151.749-36.992,499.709,499.709,0,0,0-90.38,7.806c-41.229,7.147-82.364,14.84-123.6,21.964q-42.955,7.421-86.073,13.9c-27.092,4.092-54.317,5.142-81.626,1.972a235.249,235.249,0,0,1-78.029-22.936c-38.157-18.918-69.919-46.1-99.335-76.379-13.812-14.216-26.979-29.189-41.81-42.264-81.035-71.438-176.37-103.559-283.8-101.621-5.62.1-11.244.013-17.573.013v-6.2q0-297.482-.014-594.962C1987.821,1241.976,1987.612,1239.488,1987.5,1237Z" transform="translate(1458 -1702)"/><g transform="translate(1458 -1702)"><path class="e" d="M3892.5,2426c.6.672.272.282-1.432-1.534l-1.213-1.288Z"/><path class="e" d="M3881.092,2413.718c-2-2.138-4.339-4.581-3.071-3.167l4.636,4.875c1.7,1.824,2.959,3.19,2.667,2.887.6.647,2.635,2.819,3.562,3.809-2.216-2.379-5.009-5.38-7.935-8.523C3880.329,2412.919,3880.944,2413.567,3881.092,2413.718Z"/><path class="e" d="M3678.883,2284.635l1.534.351C3680,2284.879,3679.475,2284.76,3678.883,2284.635Z"/><path class="e" d="M3529.329,2293.821a7.169,7.169,0,0,0,1.6-.541A6.558,6.558,0,0,0,3529.329,2293.821Z"/><path class="e" d="M3504.336,2300.266l1.47-.394A9.172,9.172,0,0,0,3504.336,2300.266Z"/><path class="e" d="M3678.883,2284.635l-3.94-.907A27.83,27.83,0,0,0,3678.883,2284.635Z"/><path class="e" d="M3857.355,2389.963l1.608,1.486-1.5-1.406Z"/><path class="e" d="M3741.986,2305.628l1.11.527c.341.124.665.232.974.328Z"/><path class="e" d="M3786.382,2330.93a6.5,6.5,0,0,0-1.831-.859,23.88,23.88,0,0,1,2.188,1.26C3786.776,2331.31,3786.674,2331.19,3786.382,2330.93Z"/><path class="e" d="M3849.311,2381.817l1.047.984C3850.085,2382.545,3849.626,2382.114,3849.311,2381.817Z"/><path class="e" d="M3708.033,2291.926a1.639,1.639,0,0,0-.414-.236C3707.607,2291.724,3707.772,2291.812,3708.033,2291.926Z"/><path class="e" d="M2385.491,2088.206c.036.023,0-.019.009-.014C2385.271,2088,2385.2,2087.944,2385.491,2088.206Z"/><path class="e" d="M2347.5,2043l.463.677.1.146Z"/><path class="e" d="M3459.017,2313.349l.2-.052C3460.391,2312.888,3459.722,2313.1,3459.017,2313.349Z"/><path class="e" d="M3092.5,2166.348c3.315,3.678-6.37-4.9-1.248.487C3090.882,2166.205,3096.834,2170.714,3092.5,2166.348Z"/><path class="e" d="M3856.4,2389.047l-1.521-1.437Z"/><path class="e" d="M3091.25,2166.835l0,0,.531.552Z"/><path class="e" d="M3353.347,2334.591a4.416,4.416,0,0,0,1.106.179C3354.414,2334.712,3354.164,2334.686,3353.347,2334.591Z"/><path class="e" d="M3432.688,2321.872l-1.948.456C3431.517,2322.165,3432.142,2322.012,3432.688,2321.872Z"/><path class="e" d="M3311.775,2332.83c-1.067-.175-1.406-.368-2.869-.563.13.053.26.1.429.149A16.647,16.647,0,0,1,3311.775,2332.83Z"/><path class="e" d="M3270.015,2321.27c.2.119.473.256.71.384l1.3.459Z"/><path class="e" d="M2508.709,2131.283c-.961-.093-1.557-.184-2.022-.271C2507.361,2131.206,2500.91,2131.119,2508.709,2131.283Z"/><path class="e" d="M3857.371,2389.915c-.2-.162-.479-.411-.969-.868l1.06,1C3857.563,2390.122,3857.591,2390.133,3857.371,2389.915Z"/><path class="e" d="M3309.334,2336.664l-6.9-1.4C3304.354,2335.685,3306.864,2336.193,3309.334,2336.664Z"/><path class="e" d="M2818.61,2084.473l-1.581.182A11.473,11.473,0,0,0,2818.61,2084.473Z"/><path class="e" d="M3282.2,2330.085c-1.143-.556-2.379-1.057-3.667-1.535a6.415,6.415,0,0,0-.825-.112Z"/><path class="e" d="M2506.672,2131.009c.015,0,.015,0,.015,0S2506.687,2131.01,2506.672,2131.009Z"/><path class="e" d="M2461.019,2126.283c6.511,1.41,3.109.4,4.52.545l2.39.492,1.5.252a5.736,5.736,0,0,1,1.156.274c.248.119-.156.162,1.167.447,2.456.356,4.632.619,6.649.864,2.025.18,3.9.294,5.732.507.269.078.981.175.138.144,1.308.084,2.928.229,4.718.406s3.76.24,5.752.378l5.917.336c1.905.054,3.694.022,5.219-.018a6.213,6.213,0,0,1,.794.1c-.984-.187-1.131-.356-.926-.471a62.239,62.239,0,0,1,6.634.142,20.068,20.068,0,0,0-2.828.092l3.116-.033c1.4.121.34.214-1.075.183a18.916,18.916,0,0,0-3.182.07c1.521,0,3.1.027,4.7-.015l4.747-.186c3.11-.14,6.045-.157,8.37-.268.99.385-10.886.35-4.661.535l-7.213-.015c5.515.415-4.384.027.685.483,4.75-.029,7.41-.062,10.06-.2,2.649-.163,5.292-.329,10.027-.5,2.118-.294-.72-.229,1.4-.547a86.072,86.072,0,0,1,11.56-.645,50.855,50.855,0,0,0,8.875-.743c1.26-.254,2.125-.506,3.548-.788a61.041,61.041,0,0,1,6.912-.922l-2.328.717c9.121-1.1,5.125-1.22,14.676-2.323-1.664.417-7.117,1.183-5.736,1.034,6.214-.558,4.325-.878,9.059-1.572l1.042.244c4.821-.8,9.879-1.687,15.052-2.668l15.769-3.076c-.565.235-2.362.706.149.367,13.375-2.693,28.588-5.531,41.524-7.92l4.837-1.41c1.145-.234,2.16-.263.938.071,5.047-.893.206-.3,2.584-.964,2.847-.624,3.818-.557,2.034-.06,8.781-2.185,25.053-6,34.476-7.45l-1.793.5c7.3-1.3,8.024-2.521,14.846-3.475l-1.277.335c15.814-2.939,33.237-6.507,45.461-7.75,1.1-.514,5.039-1.055,8.813-1.6s7.4-1,7.838-1.57c4.579-.4,6.22-.472,8.324-.615,2.108-.111,4.677-.3,11.1-.913,3.423-.393,5.037-1.163,9.269-1.716l.157.507,5.7-1.13c1.041.094,2.084.23,3.125.357l3.971-.447c-1.589.093-3.393.03-3.165-.139,3.1-.365,6.907-.575,9.952-.658a28.315,28.315,0,0,1,5.424.2c4.9-.405,9.806-.878,14.721-1.1a31.489,31.489,0,0,1-4.734.556c7.851-.759,1.448.532,8.642-.165-.97-.1.515-.337.676-.452,3.606.137,11.783.273,17.842.118l-1.168.376c2.732.04,5.533.194,8.4.263l4.334.121,2.2.057,2.209.125c5.91.365,12,.6,18.089,1.338-4.354-.637-3.293-1.2.3-.895l1.37.742c2.351-.127-3.718-.612,1.078-.569,4.559.541,2.988,1,.353.916,1.85.143,3.713.2,5.557.414.3.226-1,.126-1.367.318,2.313-.06,9.415,1.956,12.769,1.775l.282.222,14.5,2.532c4.069.86,7.863,1.671,12.726,2.76.33-.526,4.059.632,7.04,1,7.073,1.988,14.69,4.9,23.053,7.71,5.9,1.927,1.852.207,4.579.886.26.623,8.535,3.677,4.122,2.4l3.426,1.259,2.9,1.217,5.193,2.153,5.7,2.317,7.634,3.461c-1.219-.821-2.655-1.621-1.817-1.4,2.229,1,4.894,2.619,4.471,2.68l-.6-.236a89.212,89.212,0,0,1,10.637,5.5l5.415,3.178c1.807,1.071,3.515,2.309,5.254,3.444l5.1,3.4c1.657,1.125,3.343,2.112,4.86,3.231,3.082,2.16,5.983,4.067,8.61,5.537l-.585-.335c1.748,1.112,3.562,2.134,5.261,3.322l5.134,3.519c4.521,3.511-2.971-1.758.224,1.039,2.792,1.86,5.289,3.538,7.488,5.253,2.171,1.75,4.141,3.412,6.047,5.032s3.749,3.2,5.67,4.789c1.893,1.621,3.784,3.344,5.936,5.084a61.008,61.008,0,0,0,5.889,6.2c1.264,1.153,2.539,2.464,3.889,3.795l4.191,4.084,4.309,4.165,2.118,2.073q1,1.074,1.974,2.119c2.579,2.792,4.92,5.434,6.7,7.711l-.191-.729c2.287,1.954,2.3,2.783,3.738,4.448-.006-.412-1.964-2.586-.559-1.356,1.116,1.123,2.145,2.332,3.194,3.532l3.142,3.625,6.285,7.365c4.2,4.977,8.408,10.1,12.609,15.219,4.284,5.059,8.72,10.022,13.069,15.039l6.8,7.248q1.705,1.8,3.4,3.6c1.135,1.195,2.254,2.4,3.451,3.526a26.519,26.519,0,0,0,6.225,4.83,17.313,17.313,0,0,1,2.6,1.916c1.115.945,2.488,2.41,4.655,4.522-1-.6-2.043-1.154-3.006-1.8,3.739,3.092,7.529,6.2,11.256,9.407,1.835,1.637,3.826,3.1,5.742,4.653l5.784,4.615c1.894,1.578,3.918,2.987,5.9,4.432l5.962,4.284c1.954,1.458,4.043,2.705,6.079,3.994s4.086,2.533,6.12,3.757a12.845,12.845,0,0,1-2.715-1.357c.779.646,1.947,1.477,3.264,2.354s2.863,1.68,4.272,2.461c2.842,1.528,5.3,2.713,5.426,2.563,2.54,1.521.425.646,1.912,1.73,3.43,2.156,9.286,4.086,10.978,5.489.292.233-1.077-.378-1.752-.681.612.248,1.6.722,2.7,1.269,1.119.516,2.386,1.046,3.5,1.531,2.226.955,3.876,1.614,2.832.86,1.608.78,3.2,1.5,4.763,2.184s3.158,1.176,4.676,1.738l4.431,1.614c1.431.526,2.785,1.123,4.134,1.587,3.726.541,11.593,3.963,13,3.295-.361.355,2.635,1.285,6.286,2.213a55.162,55.162,0,0,0,5.667,1.1c1.83.291,3.478.519,4.6.632-1.533-.029,3.814,1,2.014,1.023,5.12.719,9.835,1.167,8.992.621a39.038,39.038,0,0,0,7,1.023c2.314.17,4.569.295,6.695.337,4.26-.042,7.979-.035,10.648.661a297.505,297.505,0,0,0,42.874-4.408c-.174.472-3.931.989-7.547,1.526-3.61.583-7.121.9-6.781,1.312,3.243-.367,6.107-.93,8.8-1.408s5.222-.923,7.718-1.488c2.5-.531,5-1.043,7.672-1.548,2.655-.574,5.476-1.16,8.64-1.752,3.29-.557-1.783.717-2.862,1.076,12.648-2.927,24.48-5.526,35.467-9.033a16.024,16.024,0,0,1-2.308.846c2.189-.61,5.124-1.291,4.779-1.569l-2.1.693c-3.619.5,8.379-3.489,8.689-3.866-1.713,1.005,1.041.3,3.52-.335s4.7-1.166,1.943.312c1.413-.49,3.16-1.183,2.766-1.307,2.142-.568,2.855-.64.777.255,7.733-2.5,4.853-2.048,11.9-4.179.023.166-1.377.662-2.049,1.071a114.868,114.868,0,0,1,12.927-4.508c-.328.2.4.114-1.373.659,10.179-3.2,17.123-6.19,28.421-9.248-3.112,1.64,3.878-.915,4.638-.526q2.985-.993,5.985-1.927l-2.5.42c5.3-1.5,9.856-3.275,14.485-4.3l-3.887,1.3,9.929-2.8-5.693,1.315c5.306-1.734-.767-.557,6.362-2.29-1.432.419,5.35-1.333,8.213-1.711l-.018.006a71.405,71.405,0,0,1,9.3-2.412c1.07-.064-.695.788,0,.749,2.5-1.125,12.571-2.818,15.82-3.94-1.1.3-1.1.6-.724.589l2.153-.752c2.533-.327,2.909-.337,2.541-.044,7.56-1.266-2.515-.25,6.5-1.533-.7.143-.355.144-1.813.454,4.52-.68,8.888-1.308,13.158-1.988,4.29-.5,8.484-1.1,12.676-1.363,1.257.176-.572.3-2.347.514s-3.506.424-2.076.483c12-1.317,24.953-2.419,36.672-1.994l-2.182-.069c1.648-.765,8.706.639,14.633.628-1.453-.027-1.924.265-1.528.212,2,.086,4.013.34,6.107.519l6.562.557c1.154.069,2.328.235,3.542.389l3.769.477,4.043.514,2.136.274,2.2.4-1.506-.135c4.606,1.073,12.224,2.355,17.131,3.8,1.506.219,4.336.947,2.667.31l2.816.837,1.4.4,1.377.452q2.745.9,5.452,1.715l5.376,1.586c1.767.552,3.494,1.174,5.225,1.746l5.143,1.74c1.705.574,3.4,1.149,5.028,1.855,3.289,1.347,6.523,2.731,9.693,4.2-1.546-.635-3.727-1.411-2.5-.905,3.718,1.394,7.286,3.136,10.9,4.768a32.763,32.763,0,0,0-3.556-1.992c1.418.527,4.5,1.874,7.178,3.134-4.912-2.16-.1.322,1.941,1.4-.324-.221.425.054.276-.086,5.357,3.2,1.111.118,8.522,4.3l-.447-.12c2.826,1.46,5.533,2.627,8.447,4.449,1.115.917-2.96-1.648-3.258-1.562,4.183,2.383,8.411,4.455,12.07,6.837l-6.13-3.462c3.971,2.617,4.478,2.837,7.5,4.653l-.3-.18c2.309,1.434,4.543,2.987,6.819,4.472l-1.712-1.178c2.672,1.416,5.262,3.068,8.061,4.876,1.416.879,2.818,1.9,4.314,2.939s3.079,2.117,4.782,3.23c-6.615-4.327-1.162-.617-1.771-.8a39.914,39.914,0,0,1,3.439,2.632c1.615,1.039,2.906,1.987,4.366,3.038,1.435,1.085,3,2.321,5.223,3.875.158.193,3.26,2.5,2.485,2.085,3.995,2.991-.878-.793-.5-.6,6.307,4.428,14.058,11.37,22.7,18.292,7.184,6.285,8.636,7.312,15.226,13.239,2.126,2.107-1.847-1.609-1.883-1.57l9.445,8.935c-.685-.616-.013.054.97,1.03,2.654,2.5,1.839,1.608,5.3,4.951l-2.717-2.434c3.186,2.892,6.126,5.957,9.29,9.089.807.863-1.928-1.872-3.051-2.967l10.267,10.251-2.245-2.294c1.282,1.3.633.693-.32-.257-3.046-3.018-4.34-4.405-4.5-4.593l2.237,2.247c-2.232-2.372-8.873-9.138-13.586-13.444l2.008,1.75-4.809-4.443c-.986-.983-1.623-1.7.669.467-3.263-3.208-2.963-2.762-5.753-5.533-.3-.309-.159-.178.136.095-1.1-1.008-2.15-2.066-3.289-3.03.666.571-.461-.6,1.531,1.295-5.876-5.469-9.716-8.551-11.873-10.674l.507.44-3.755-3.3c-.577-.486-.638-.488-.619-.449.029.087.319.4-2.95-2.2l-4.085-3.875-.94-.583a25.376,25.376,0,0,1-2.255-1.983c-3.355-2.652.517.52-1.457-.987-2.044-1.868-5.1-4.15-7.7-6.149a63.191,63.191,0,0,1-5.168-4.176c-1.657-1.1,4.124,3.314-.611-.211a27.872,27.872,0,0,0-3.649-2.926c-1.755-1.2-3.869-2.628-5.884-4.154,1.368.754,5.214,3.608,1.185.548-1.328-.764-3.325-2.2-5.426-3.754l-3.161-2.347c-1.052-.736-2.079-1.4-2.978-1.977a41.17,41.17,0,0,1-4.787-2.921c-2.692-1.7-6.017-4.036-9.163-5.747.41.2-11.422-7.142-17.36-10.177l.2.047c-1.3-.307-7.273-3.7-11.878-5.666.263-.095,1.11.22,3.6,1.3l-4.251-2.016c-1.049-.38-2.4-.957-5.172-2.228l1.174.277c-1.423-.653-2.829-1.359-4.318-1.952l-4.578-1.816-4.874-1.976-2.584-1.088c-.886-.364-1.811-.688-2.748-1.058-.513.092,5.77,2.816-2.292.114-.249-.236-.464-.566,1.651.134-.692-.23-2.487-.77-3.85-1.322l3.28.929c-3.415-1.337-1.871-.465-4.621-1.475.121-.169-2-.869-1.547-.878.711.236,2.38.945,3.463,1.251-3.107-1.132-6.806-2.676-8.047-3.141.24.2-.085.261-2.41-.42-6-1.813-1.977-.864-5.443-2.038-.747-.152-2.065-.557-3.221-.89a6.1,6.1,0,0,0-2.268-.347,14.274,14.274,0,0,1-2.734-.935c-1.593-.317-5.26-1.27-8.116-1.9-2.877-.539-4.911-.881-3.156-.35l.81.186-.522-.09.026,0-.026,0c-2.621-.437-5.279-.935-7.956-1.467-2.681-.509-5.413-.867-8.126-1.332-5.418-1-10.9-1.483-16.146-1.974l.026-.119c-6.287-.289-13.989-.8-18.485-.459-1.859-.018-4.389-.274-3.595-.419-1.2.017-2.138.019-2.973.055l-2.371.131c-1.6.073-3.474.117-6.952.119,4.827-.38-1.677-.149,4.951-.323l-7.027.062c-1.972.115-4,.3-7.336.715,2.259-.478-4.744-.17-7.685.338,1.464-.059,2.92-.182,4.386-.189l-9.187.947,1.546-.629q-2.4.153-4.682.379c-1.515.191-2.991.414-4.434.64-2.882.474-5.641.916-8.281,1.47-5.281,1.118-10.189,2.067-15.052,2.6-3.252,1,6.861-1.137,3.968-.152-2.888.551-5.87.958-8.359,1.271-2.494.3-4.466.617-5.37.8a48.375,48.375,0,0,0-7.594,1.965,56.389,56.389,0,0,1-7.8,2.252c1.094-.075,2.187.111-3.862,1.846-5.693,1.46-7.181,1.131-3.63.03a6.452,6.452,0,0,1,1.991-.423c1.818-.559,4.212-1.266,1.909-.863l-.692.373c-2.868.573-10.689,2.68-8.931,1.9-4.236,1.369-1.759.776,1.451.024-7.347,1.75-11.368,3.137-18.865,5.16,1.214-.248,2.367-.356,1.188-.012-10.994,2.984-4.706,1.764-12.07,4.059-4.278.989,1.3-1.127-6.059,1.362-4.591,1.194-1.11-.2.647-.9-6.657,2.419-12.712,3.618-16.593,4.726l3.515-1.235c-2.1.738-3.847,1.267-5.623,1.807l2.148-.244c-2.11.572-3.881,1.11-3.89.941-2.08.9,1.842.129-2.332,1.76-2.848.646-8.427,2.788-9.547,2.551,8.826-2.457-1.121-.212,6.278-2.527-1.414.49-3.16,1.017-5.279,1.579-.332.035.266-.191.828-.394-8.537,2.014-3.685,1.728-12.4,4.255,1.023-.6-2.183.021-3.589.486,3.518-.989,1.823.009-1.342,1.149-5.659,1.374-6.047,1.855-8.994,2.633l3.387-.8c-1.057.6-3.878,1.319-7.772,2.467-.4-.142,3.516-1.117,2.091-.842a38.011,38.011,0,0,1-7.329,1.859c-2.727.493-5.652,1.1-8.674,1.944-2.881.438-.408-.508-2.925-.085-6.754,1.981-7.515,1.186-14.668,2.981,2.158-.018,2.519-.133-2.515,1.211,3.963-.807,7.9-1.763,11.844-2.635l-7.513,2.136c3.592-.736,7.537-1.738,9.685-2.2-1.772.588-2.576.814-2.711.9s.405.057,1.3.029a46.181,46.181,0,0,0-7.455,1.4c-1.257.309-2.534.648-3.864.92-1.333.252-2.713.47-4.162.608l-.007-1.072c-2.163.248-4.189.566-6.188.931-2.008.3-3.988.643-6.051,1.006a123.809,123.809,0,0,1-14.22,1.792l3.627-.171a21.774,21.774,0,0,1-4.473.649c-2.01.1-4.287.184-6.108.378.318-.382-1.968-.381-3.532-.517.2.332-8.235.1-9.26.865-1.68-.1-3.355-.331-5.027-.555-9.072-.44-10.43.57-19.169-.334,2.665-.1-1.261-.751,4.6-.53l-3.854-.336c-1.018-.126-1.684-.17-1.722-.045a41.287,41.287,0,0,0-4.992-.565,26,26,0,0,1-5.694-.854,17.947,17.947,0,0,1-4.925-.418c-.337-.142.049-.179.049-.179-.047.179-5.1-.729-2.368.222-2.174-.647-4.738-1.558-7.55-2.3-1.4-.386-2.859-.765-4.339-1.14-1.484-.358-2.943-.885-4.421-1.313l-4.359-1.338c-1.415-.466-2.826-.825-4.1-1.371a66.965,66.965,0,0,1-6.6-2.926c-3.037-.989-6.253-2.42-9.426-3.765l-4.657-1.992c-1.49-.674-2.874-1.416-4.175-2.057.383.066.1-.163,1.061.372a22.423,22.423,0,0,0-6.044-2.674,18.332,18.332,0,0,1-2.41-.843,34.614,34.614,0,0,1-4.266-2.45c-3.72-2.879,4.353,2.136,1.957.473-.238-.871-2.627-2.208-5.58-3.795l-2.3-1.234-1.18-.645-1.14-.717a41.174,41.174,0,0,1-4.133-2.961l1.281.746a62.775,62.775,0,0,0-7.086-4.536c-2.726-1.723-5.746-3.69-8.824-5.964,0,0,.368.127.151-.129-1.15-.645-2.55-1.446-4.032-2.439-1.463-1.02-3.055-2.17-4.691-3.373l-4.956-3.7c-.814-.624-1.642-1.214-2.406-1.842l-2.212-1.836c2.057,1.126,2.7,2,1.972.688-2.538-2.119.2,1.267-4.872-2.97-1.44-1.623-4.871-4.935-4.978-5.755l4.706,4.066c-1.926-2.63-6.115-5.23-8.362-7.638l.515.061c-3.489-3.241-5.394-4.743-7.352-6.324-.972-.8-1.989-1.582-3.166-2.673s-2.544-2.457-4.325-4.3l.573.925c-4.474-3.475-2.971-3.67-7.3-7.275l-.6-1.756c-2.606-2.62-9.3-9.052-13.814-13.937,2.9,2.464,8.39,7.968,11.854,11.3-2.458-2.718-8.408-9.18-9.985-10.339a39.16,39.16,0,0,1,3.335,3.455c-3.544-2.863-7.571-7.222-12.294-12.812,1,0-1.985-3.689-5.589-7.993s-7.787-9.213-9.075-11.635l-1.657-1.79-1.705-1.746q-1.693-1.755-3.361-3.548c-2.226-2.392-4.435-4.838-6.679-7.344-1.1-1.276-2.319-2.459-3.51-3.7l-3.654-3.747q-1.868-1.89-3.793-3.84c-1.31-1.276-2.571-2.65-4.014-3.887,3.164,4.489-3.3-2.957-3.444-1.431a41.278,41.278,0,0,1-3.829-3.5c-2.5-2.545-4.9-5.22-7.542-7.622-1.729-1.888,2.765,1.938,2.693,1.526-5.912-5.009-2.17-2.464-5.924-5.984.534,1-2.474-1.238-5.778-4.183l4.444,4.4a70.643,70.643,0,0,1-7.737-6.5,51.792,51.792,0,0,0-8.021-6.265l2.991,1.77c-2.318-1.584-6.4-4.776-10.776-7.518-2.16-1.413-4.33-2.8-6.276-3.983-.973-.589-1.89-1.126-2.722-1.586a24.361,24.361,0,0,0-2.267-1.04c-.77-.633-1.714-1.6.439-.381a207.1,207.1,0,0,0-18.491-10.44l-4.643-2.389-2.236-1.169c-.736-.381-1.487-.708-2.208-1.061-2.9-1.382-5.556-2.716-7.833-3.985l1.039.182c-1.143-.509-2.179-.861-3.265-1.289-.544-.214-1.1-.448-1.688-.728-.6-.254-1.235-.554-1.924-.928.2-.046,1.044.132-.013-.339a96.063,96.063,0,0,1-9.282-3.6l2.726.813c-1.484-.686-2.891-1.313-4.235-1.892s-2.669-1.008-3.921-1.463c-2.519-.876-4.848-1.62-7.117-2.324l-3.378-1.036c-1.127-.328-2.278-.6-3.437-.908-2.322-.609-4.721-1.265-7.336-2.054.068-.2-.486-.559-1.432-1.015a28.626,28.626,0,0,0-3.814-1.505c-3.043-1.023-6.738-2.131-9.2-2.869l.2-.067-2.7-.743-2.644-.592-5.065-1.07c-3.294-.659-6.419-1.338-9.561-1.734l-9.4-1.345c-1.585-.258-3.212-.386-4.868-.576l-5.1-.575c-4.248-1.148-11.608-1.929-19.624-2.774l-12.259-.86c-4.056-.264-7.989-.368-11.492-.618,2.14.209-.367.6-2.857.606-3.288-.232-9.09.528-8.567-.207l1.172.013a29.5,29.5,0,0,0-6.214-.517c-2.663-.054-5.671.146-8.312.2l-.843.954c-1.728-.117-3.589-.179-5.538-.2s-3.981.093-6.056.185c-4.147.221-8.466.463-12.568.919l-11.37,1.091a61.334,61.334,0,0,1-8.053.43c-1.642.293-3.491.519-5.329.8s-3.67.573-5.292.887l.119-.49c-4.58.523-8.019.882-11.705,1.428s-7.655,1.054-13.265,2.028l2.243-.694c-6.348,1-7.806,2.577-13.638,3.565l-1.866-.357c-5.514.974-11.094,1.774-16.621,2.769-2.766.484-5.526.98-8.264,1.53-2.735.57-5.45,1.182-8.135,1.859.16-.128.448-.373,2.221-.75-5.181.965-20.057,3.63-18.012,4.083-.245-.539-11.31,2.3-17.172,3.783l.837-.589a99.576,99.576,0,0,1-11.945,3.348c-1.661.3-1.511,0,.7-.368-5.539.97-4.206,1.275-10.914,2.491l2.432-.772a53.953,53.953,0,0,0-8.239,2.152c-3.526.9-10.751,2.176-11.655,2.022a38.241,38.241,0,0,1-7.12,1.872c-.475-.03.724-.359,1.327-.524-9.508,1.747-14,3.29-20.582,4.26a2.623,2.623,0,0,0-1.142.006c7.531-1.482,13.591-2.712,13.03-2.564-.067-.329-6.153.851-1.411-.584l-9.084,2.329c-3.41.822-6.966,1.6-9.945,2.1a7.838,7.838,0,0,1-.8.044l.607-.155c-1.375.233-2.593.509-3.74.774-1.906.3-3.116.479-4.938.808-.751-.14-7.007,1.183-10.059,1.653.308.287-3.69.907.093.547a17.92,17.92,0,0,1,2.593-.491c.457-.086.993-.194,1.291-.267l-.2.067,7.555-1.4a62.132,62.132,0,0,1-8.253,1.635c-1.527.479-3.212.982-4.166,1.246-2.126.119-5.208.457-7.9.756-2.7.272-5.014.481-5.594.434l-7.442,1.237-7.761,1.124c-5.057.8-9.7,1.345-12.621,1.963a18.747,18.747,0,0,1-4.087.19c1.535-.206,3.365-.409,4.19-.575-1.33.171-2.978.4-4.73.569l-5.326.5c-3.445.328-6.381.655-7.011.84-6.759.193,3.772-.537-5.5.017l1.246-.177c-2.283.047-4.455.141-6.552.219-2.1.03-4.119.081-6.095.146s-3.906.168-5.822.2l-5.735.049c-1.918,0-3.854.064-5.833,0l-6.1-.277c-4.208-.13-8.687-.738-13.705-1.38,1.39.178,2.086.267,2.366.345-1.432-.17-2.875-.309-4.315-.5l-4.318-.681-4.343-.671c-.724-.119-1.455-.205-2.176-.349l-2.164-.446c-2.884-.607-5.792-1.155-8.68-1.8l-8.6-2.261a165.646,165.646,0,0,1-32.393-13.206c-2.8-1.621-4.369-2.49-5.671-3.193l-1.876-1c-.319-.17-.651-.349-1.013-.543l-1.14-.718-1.1-.889-5.719-3.608c-.5-.33-1-.639-1.476-.976l-1.368-1.045-2.639-2.046c-1.725-1.36-3.439-2.667-5.164-4.085l-5.272-4.7-2.962-2.592c-1.008-.93-2.007-1.965-3.1-3.02l1.067,1.149-5.968-5.985c-1.022-.973-1.8-1.952-2.372-2.587a7.547,7.547,0,0,1-.724-.861c-.3-.33-.975-1.047-2.084-2.343l-.064-.119-3.554-4.011c-1.159-1.358-2.215-2.8-3.326-4.2-2.536-3.291-2.325-3.043-2.405-3.173-.04-.065-.154-.224-.723-.964-.544-.759-1.667-2.009-3.347-4.534l-6.338-9.166,2.7,3.95-2.328-3.4c-.428-.612-2.182-3.255,3.454,5.153,1.322,1.944,2.617,3.909,3.972,5.83l1.361,1.821c-.593-.793-1.215-1.564-1.782-2.375l-1.658-2.464c1.818,2.84,3.178,4.493,4.632,6.39l1.767,2.373,2.121,2.739c.706.914,1.4,1.835,2.19,2.683.524.656-2.073-2.318.947,1.218,2.148,2.435-1.981-2.4,1.552,1.649,2.179,2.579,1.506,1.86,4.126,4.834.345.44-.217-.185-1.251-1.368l1.956,2.245,2.278,2.31c1.49,1.511,2.834,2.866,3.5,3.492l2.322,2.407c.892.914,1.955,1.782,2.873,2.627a40.552,40.552,0,0,1,3.181,2.951l2.98,2.565,4.391,3.368c-2.4-1.743-.005.123,2.819,2.331.709.547,1.433,1.134,2.138,1.658l1.978,1.355c1.136.788,1.812,1.283,1.453,1.113.938.574,2.233,1.411,3.749,2.409.766.485,1.552,1.069,2.441,1.576l2.77,1.588c1.9,1.095,3.9,2.241,5.84,3.357,1.976,1.049,3.964,1.944,5.717,2.785-.4-.174-1.185-.515-1.795-.829,1.961.976,3.219,1.622,4.3,2.185s1.971,1.079,3.276,1.611a36.78,36.78,0,0,1,4.127,1.444l3.265,1.25,1.582.6,1.445.434c5,1.942-3.183-.781-1.663-.038-.19-.262,8.9,2.829,7.224,2.079,3.839,1.48,3.334,1.188,5.314,1.96.783-.123,3.7.961,7.042,1.66,1.418.456,2.238.631,2.741.784s.7.221.92.291c.436.141.951.266,4.156.9C2466.73,2127.384,2461.019,2126.283,2461.019,2126.283Zm153.923-6.86v.007l-3.136.613Zm12.773-2.463-5.538,1.076c-.472-.038-.01-.246,1.274-.5C2622.771,2117.76,2625.791,2117.233,2627.715,2116.96Zm-27.457,2.741a14.507,14.507,0,0,1,2.991-.459l-3.528.688-.232.084A3.734,3.734,0,0,1,2600.258,2119.7Z"/><path class="e" d="M2596.7,2120.8l-.832.165,1.222-.131.7-.234Z"/><path class="e" d="M3680.685,2285.047l-.268-.061c.221.057.424.111.556.157C3680.8,2285.093,3680.8,2285.083,3680.685,2285.047Z"/><path class="e" d="M2804.26,2085.993l-.031-.118-1.116.219Z"/><path class="e" d="M3747.734,2309.607c.111.083.353.2.813.47A6.2,6.2,0,0,0,3747.734,2309.607Z"/><path class="e" d="M3774.716,2324.617c1.238.766,2.429,1.608,3.645,2.408C3776.789,2325.975,3775.662,2325.179,3774.716,2324.617Z"/><path class="e" d="M3794.485,2337.77a2.277,2.277,0,0,0,.427.2l-.038-.028Z"/><path class="e" d="M3435.121,2324.577l-.882.263C3432.181,2325.5,3433.587,2325.076,3435.121,2324.577Z"/><path class="e" d="M3542.822,2292.041c-1.138.365-2.26.725-3.456,1.076C3541.314,2292.66,3542.823,2292.289,3542.822,2292.041Z"/><path class="e" d="M3310.091,2336.818c.013,0,0,0,.014-.006l-.771-.148Z"/><path class="e" d="M3534.3,2294.385c1.961-.406,3.576-.832,5.067-1.268C3537.769,2293.49,3535.885,2293.918,3534.3,2294.385Z"/><path class="e" d="M3872.422,2404.869l.807.813a.725.725,0,0,1,.1.092Z"/><path class="e" d="M3873.33,2405.774l.9.9Z"/><path class="e" d="M3876.125,2408.564l-1.894-1.892Z"/><path class="e" d="M3849.916,2382.88l-.286-.223A1.6,1.6,0,0,0,3849.916,2382.88Z"/><path class="e" d="M3842.851,2376.438c1.7,1.514,4.246,3.834,6.545,6.035l.234.184c-.563-.493-1.82-1.723-3.153-2.995C3845.111,2378.425,3843.684,2377.132,3842.851,2376.438Z"/><path class="e" d="M3812.7,2350.282c2.089,1.668,4.249,3.246,6.281,4.985-1.042-.941-2.407-2.186.4.141-1.9-1.675-2.821-2.334-3.164-2.614s-.17-.1,0,.066C3816.555,2353.19,3816.845,2353.5,3812.7,2350.282Z"/><path class="e" d="M3792.763,2335.405c3.53,2.475.02-.116.229-.019C3790.728,2333.852,3790.179,2333.484,3792.763,2335.405Z"/><path class="e" d="M3624.879,2279.226l.432-.327C3621.978,2278.917,3625.281,2279.023,3624.879,2279.226Z"/><path class="e" d="M3590.764,2283.326l3.226-.139,1.488-.491Z"/><path class="e" d="M3570.312,2283.848l1.426-.3-5.454,1.086Z"/><path class="e" d="M3277.4,2323.546l.731.924c1.069.319,1.783.307,1.768.143C3279.9,2324.419,3279.144,2324.138,3277.4,2323.546Z"/><path class="e" d="M3170.864,2252.034a27.5,27.5,0,0,0-4.959-5.381C3167.911,2248.77,3169.769,2251.026,3170.864,2252.034Z"/><path class="e" d="M2838.381,2079.077l2.623-.271-2.475.155-2.471.219Z"/></g></g><rect class="f" width="14" height="245" transform="translate(0 646)"/><path class="g" d="M4314.97,891s8.4-80.066-52.778-154.789-140.941-91-188.078-90.637c-5.777.044-14.211,0-14.211,0l.011,245.348Z" transform="translate(-4060)"/><path class="h" d="M4314.97,891s8.4-80.066-52.778-154.789-140.941-91-188.078-90.637c-5.777.044-14.211,0-14.211,0l.011,245.348Z" transform="translate(-4060)"/></g></svg>