<svg xmlns="http://www.w3.org/2000/svg" xmlns:xlink="http://www.w3.org/1999/xlink" width="575" height="533" viewBox="0 0 575 533"><defs><style>.a{fill:url(#a);}.b{fill:url(#b);}.c{fill:#fff;}.d{fill:url(#c);}.e{fill:url(#d);}.f{fill:url(#e);}.g{fill:url(#g);}.h{fill:url(#h);}.i,.l,.m{fill:none;stroke-miterlimit:10;}.i,.l{stroke:rgba(163,163,163,0.25);}.j{fill:url(#j);}.k{fill:url(#k);}.l,.m{stroke-width:1.36px;}.m{stroke:rgba(203,203,203,0.3);}.n{fill:url(#l);}.o{fill:url(#m);}.p{fill:url(#n);}.q{fill:url(#o);}.r{fill:url(#v);}.s{fill:url(#w);}.t{fill:url(#x);}.u{fill:#fefef0;}.v{fill:url(#y);}.w{fill:url(#z);}.x{fill:url(#aa);}.y{fill:#c7d2ff;}.z{fill:#8bc34a;}.aa{fill:url(#ac);}.ab{fill:url(#ad);}.ac{fill:url(#ae);}.ad{fill:url(#af);}.ae{fill:url(#ag);}</style><linearGradient id="a" y1="0.5" x2="1" y2="0.5" gradientUnits="objectBoundingBox"><stop offset="0" stop-color="#0c1556"/><stop offset="1" stop-color="#2636b0"/></linearGradient><linearGradient id="b" x1="0.5" y1="-0.006" x2="0.5" y2="1.044" gradientUnits="objectBoundingBox"><stop offset="0" stop-color="#7a7a7a"/><stop offset="1" stop-color="#fff"/></linearGradient><linearGradient id="c" x1="0.5" y1="-0.017" x2="0.5" y2="1.148" gradientUnits="objectBoundingBox"><stop offset="0" stop-color="#fff" stop-opacity="0"/><stop offset="0.12" stop-color="#fff" stop-opacity="0.051"/><stop offset="0.32" stop-color="#fff" stop-opacity="0.169"/><stop offset="0.6" stop-color="#fff" stop-opacity="0.369"/><stop offset="0.93" stop-color="#fff" stop-opacity="0.639"/><stop offset="1" stop-color="#fff" stop-opacity="0.698"/></linearGradient><linearGradient id="d" x1="0.5" y1="-0.017" x2="0.5" y2="1.148" gradientUnits="objectBoundingBox"><stop offset="0" stop-color="#fff" stop-opacity="0"/><stop offset="0.15" stop-color="#fff" stop-opacity="0.051"/><stop offset="0.42" stop-color="#fff" stop-opacity="0.169"/><stop offset="0.78" stop-color="#fff" stop-opacity="0.361"/><stop offset="1" stop-color="#fff" stop-opacity="0.502"/></linearGradient><linearGradient id="e" x1="0.5" y1="-0.017" x2="0.5" y2="1.148" xlink:href="#c"/><linearGradient id="g" x1="0.5" y1="-0.017" x2="0.5" y2="1.148" gradientUnits="objectBoundingBox"><stop offset="0" stop-color="#fff" stop-opacity="0"/><stop offset="0.31" stop-color="#fff" stop-opacity="0.051"/><stop offset="0.87" stop-color="#fff" stop-opacity="0.169"/><stop offset="1" stop-color="#fff" stop-opacity="0.2"/></linearGradient><radialGradient id="h" cx="0.5" cy="0.5" r="0.5" gradientTransform="translate(0)" gradientUnits="objectBoundingBox"><stop offset="0" stop-color="#fff" stop-opacity="0.302"/><stop offset="0.41" stop-color="#fff" stop-opacity="0.149"/><stop offset="0.78" stop-color="#fff" stop-opacity="0.039"/><stop offset="1" stop-color="#fff" stop-opacity="0"/></radialGradient><radialGradient id="j" cx="0.5" gradientTransform="matrix(1, 0, 0, 1, 0, 0)" xlink:href="#h"/><radialGradient id="k" cx="0.5" cy="0.589" r="0.512" gradientTransform="translate(0.011 0.001) scale(0.978 0.98)" gradientUnits="objectBoundingBox"><stop offset="0" stop-color="#fff" stop-opacity="0.2"/><stop offset="0.2" stop-color="#fff" stop-opacity="0.149"/><stop offset="0.7" stop-color="#fff" stop-opacity="0.039"/><stop offset="1" stop-color="#fff" stop-opacity="0"/></radialGradient><radialGradient id="l" cx="0.5" cy="0.523" r="0.547" gradientTransform="translate(0.029 0.062) scale(0.941 0.89)" gradientUnits="objectBoundingBox"><stop offset="0" stop-color="#0a1961" stop-opacity="0.502"/><stop offset="0" stop-color="#0a1961"/><stop offset="0.17" stop-color="#0a1961" stop-opacity="0.91"/><stop offset="0.44" stop-color="#0a1961" stop-opacity="0.671"/><stop offset="0.78" stop-color="#0a1961" stop-opacity="0.278"/><stop offset="1" stop-color="#0a1961" stop-opacity="0"/></radialGradient><radialGradient id="m" cx="0.5" cy="0.5" r="0.5" gradientUnits="objectBoundingBox"><stop offset="0" stop-color="#fff" stop-opacity="0.4"/><stop offset="0.14" stop-color="#fff" stop-opacity="0.329"/><stop offset="0.53" stop-color="#fff" stop-opacity="0.149"/><stop offset="0.83" stop-color="#fff" stop-opacity="0.039"/><stop offset="1" stop-color="#fff" stop-opacity="0"/></radialGradient><radialGradient id="n" cx="0.5" cy="0.5" r="0.486" gradientTransform="translate(-0.029) scale(1.059 1)" gradientUnits="objectBoundingBox"><stop offset="0" stop-color="#0a1961" stop-opacity="0.502"/><stop offset="0" stop-color="#1931a2"/><stop offset="0.12" stop-color="#1931a2" stop-opacity="0.949"/><stop offset="0.31" stop-color="#1931a2" stop-opacity="0.8"/><stop offset="0.54" stop-color="#1931a2" stop-opacity="0.569"/><stop offset="0.81" stop-color="#1931a2" stop-opacity="0.251"/><stop offset="1" stop-color="#1931a2" stop-opacity="0"/></radialGradient><radialGradient id="o" cx="0.5" cy="0.5" r="0.5" gradientUnits="objectBoundingBox"><stop offset="0" stop-color="#fff" stop-opacity="0.502"/><stop offset="0.27" stop-color="#fff" stop-opacity="0.329"/><stop offset="0.6" stop-color="#fff" stop-opacity="0.149"/><stop offset="0.85" stop-color="#fff" stop-opacity="0.039"/><stop offset="1" stop-color="#fff" stop-opacity="0"/></radialGradient><linearGradient id="v" x1="0.997" y1="0.5" x2="0.004" y2="0.5" gradientUnits="objectBoundingBox"><stop offset="0" stop-color="#1c2c72"/><stop offset="1" stop-color="#2f3fe7"/></linearGradient><linearGradient id="w" x1="0.049" y1="0.501" x2="0.977" y2="0.501" gradientUnits="objectBoundingBox"><stop offset="0" stop-color="#2d3ddc"/><stop offset="1" stop-color="#2636b0"/></linearGradient><linearGradient id="x" x1="0.5" y1="-0.076" x2="0.5" y2="0.967" gradientUnits="objectBoundingBox"><stop offset="0" stop-color="#fff"/><stop offset="1" stop-color="#bcbcbc"/></linearGradient><linearGradient id="y" x1="0.5" y1="0.978" x2="0.5" y2="-0.022" gradientUnits="objectBoundingBox"><stop offset="0" stop-color="#fff"/><stop offset="1" stop-color="#828282"/></linearGradient><linearGradient id="z" x1="0.5" y1="0.992" x2="0.5" y2="-0.008" xlink:href="#y"/><linearGradient id="aa" x1="0.5" y1="1.02" x2="0.5" y2="0.021" xlink:href="#y"/><linearGradient id="ac" x1="0" y1="0.5" x2="1.001" y2="0.5" xlink:href="#a"/><linearGradient id="ad" x1="0.5" x2="0.5" y2="1" gradientUnits="objectBoundingBox"><stop offset="0" stop-color="#1f2e9a" stop-opacity="0"/><stop offset="1" stop-color="#202e9a"/></linearGradient><linearGradient id="ae" x1="0.5" x2="0.5" y2="1" gradientUnits="objectBoundingBox"><stop offset="0" stop-color="#212f9e" stop-opacity="0"/><stop offset="1" stop-color="#21309f"/></linearGradient><linearGradient id="af" x1="0.5" x2="0.5" y2="1" gradientUnits="objectBoundingBox"><stop offset="0" stop-color="#101b66" stop-opacity="0"/><stop offset="1" stop-color="#111b66"/></linearGradient><linearGradient id="ag" x1="0.5" x2="0.5" y2="1" gradientUnits="objectBoundingBox"><stop offset="0" stop-color="#121d6d" stop-opacity="0"/><stop offset="1" stop-color="#121d6d"/></linearGradient></defs><g transform="translate(-253 -1340)"><path class="a" d="M364.588,0H210.415A133.36,133.36,0,0,0,94.947,66.581L17.861,199.922a133.024,133.024,0,0,0,0,133.156L94.947,466.425A133.365,133.365,0,0,0,210.415,533H364.588a133.354,133.354,0,0,0,115.462-66.576l77.086-133.346a133,133,0,0,0,0-133.156L480.05,66.581A133.342,133.342,0,0,0,364.588,0Z" transform="translate(252.999 1340)"/><path class="b" d="M467.509,315.635h47.815a16.651,16.651,0,0,0,10.354-3.53c4.072-3.211,8.144-9.29,8.144-20.855H406.35s.081,24.385,20.441,24.385Z" transform="translate(82.566 1217.689)"/><path class="c" d="M469.143,267.76l43.045-.4a26.591,26.591,0,0,0,6.806-.883c6.247-1.7,16.049-6.578,14.455-20.35-2.17-18.794-19.429-20.687-21.476-20.844a.262.262,0,0,1-.233-.209c-.489-2.653-6.556-31.353-40.818-31.016-16.066.151-25.641,12.036-27.479,14.515a.582.582,0,0,1-.791.151,19.375,19.375,0,0,0-10.162-2.752c-6.288.058-15.706,5.225-14.8,16.3a1,1,0,0,1-.529.975c-2.722,1.446-13.821,8.338-12.006,24.043,1.192,10.335,9.1,15.676,15.566,18.353a32.972,32.972,0,0,0,12.914,2.444Z" transform="translate(83.149 1258.494)"/><rect class="d" width="114.012" height="103.928" transform="translate(499.461 1401.689)"/><rect class="e" width="33.738" height="70.253" transform="translate(493.141 1440.484)"/><rect class="f" width="48.862" height="45.287" transform="translate(489.646 1463.69)"/><rect class="f" width="48.862" height="45.287" transform="translate(561.658 1447.449)"/><rect class="g" width="21.523" height="58.641" transform="translate(552.39 1427.146)"/><ellipse class="h" cx="4.654" cy="4.645" rx="4.654" ry="4.645" transform="translate(396.889 1514.744)"/><ellipse class="h" cx="4.654" cy="4.645" rx="4.654" ry="4.645" transform="translate(714.889 1667.744)"/><line class="i" y2="66.189" transform="translate(401.539 1519.364)"/><line class="i" y2="66.189" transform="translate(719.539 1672.364)"/><ellipse class="j" cx="4.654" cy="4.645" rx="4.654" ry="4.645" transform="translate(682.646 1440.496)"/><line class="i" y2="66.189" transform="translate(687.303 1445.125)"/><ellipse class="k" cx="4.654" cy="4.54" rx="4.654" ry="4.54" transform="translate(347.665 1654.54)"/><line class="l" y2="122.612" transform="translate(352.318 1658.993)"/><path class="m" d="M297.5,431.646H182.111a4.446,4.446,0,0,1-4.444-4.442V373.382a4.446,4.446,0,0,0-4.45-4.442H152.45A4.446,4.446,0,0,1,148,364.5V320.75" transform="translate(191.09 1205.264)"/><path class="m" d="M607,434.1H727.126a4.928,4.928,0,0,0,4.933-4.924V374.481a4.841,4.841,0,0,1,4.84-4.831h29.556a5.736,5.736,0,0,0,5.741-5.731V330.75" transform="translate(-1.776 1201.067)"/><rect class="n" width="9.889" height="9.29" transform="translate(334.14 1521.705)"/><ellipse class="o" cx="4.944" cy="4.935" rx="4.944" ry="4.935" transform="translate(334.14 1521.125)"/><rect class="p" width="9.889" height="10.451" transform="translate(765.476 1526.345)"/><ellipse class="q" cx="4.944" cy="4.935" rx="4.944" ry="4.935" transform="translate(765.476 1526.345)"/><ellipse class="j" cx="4.944" cy="4.935" rx="4.944" ry="4.935" transform="translate(766.639 1494.442)"/><ellipse class="j" cx="4.944" cy="4.935" rx="4.944" ry="4.935" transform="translate(551.639 1823.442)"/><ellipse class="j" cx="4.944" cy="4.935" rx="4.944" ry="4.935" transform="translate(366.639 1460.442)"/><ellipse class="j" cx="4.944" cy="4.935" rx="4.944" ry="4.935" transform="translate(742.639 1672.442)"/><ellipse class="j" cx="4.944" cy="4.935" rx="4.944" ry="4.935" transform="translate(396.639 1766.442)"/><ellipse class="j" cx="4.944" cy="4.935" rx="4.944" ry="4.935" transform="translate(271.639 1619.442)"/><rect class="r" width="265.544" height="21.575" transform="translate(415.995 1574.532)"/><path class="s" d="M317.31,388.8s2.7,0,4.171-3.675l5.16-13.017s1.745-5.394,9.307-5.394h72.508s5.4.244,7.37,5.15l7.12,17.894Z" transform="translate(119.928 1186)"/><path class="t" d="M280.992,438.12H546.535V616.134a4.167,4.167,0,0,1-4.171,4.163H285.151a4.167,4.167,0,0,1-4.171-4.163V438.12Z" transform="translate(135.009 1155.901)"/><rect class="u" width="248.593" height="163.295" rx="5.25" transform="translate(424.593 1604.319)"/><ellipse class="v" cx="17.689" cy="17.656" rx="17.689" ry="17.656" transform="translate(465.972 1645.8)"/><ellipse class="w" cx="17.689" cy="17.656" rx="17.689" ry="17.656" transform="translate(530.965 1645.8)"/><ellipse class="x" cx="17.689" cy="17.656" rx="17.689" ry="17.656" transform="translate(596.202 1645.8)"/><rect class="y" width="39.305" height="4.906" rx="2.453" transform="translate(464.012 1691.388)"/><rect class="y" width="26.531" height="4.906" rx="2.453" transform="translate(470.397 1702.165)"/><rect class="y" width="39.305" height="4.906" rx="2.453" transform="translate(528.999 1691.388)"/><rect class="y" width="26.531" height="4.906" rx="2.453" transform="translate(535.386 1702.165)"/><rect class="y" width="39.305" height="4.906" rx="2.453" transform="translate(594.235 1691.388)"/><rect class="y" width="26.531" height="4.906" rx="2.453" transform="translate(600.625 1702.165)"/><rect class="z" width="47.903" height="8.825" rx="4.413" transform="translate(527.034 1723.962)"/><rect class="a" width="43.726" height="4.656" rx="2.328" transform="translate(457.383 1565.722)"/><path class="aa" d="M469.756,388.488H450.682s-4.973-.18-7.428-6.311L439.322,372.1s-1.716-5.394-8.842-5.394h24.774a8.725,8.725,0,0,1,8.1,5.533Z" transform="translate(72.524 1186)"/><rect class="ab" width="3" height="57" transform="translate(686 1456)"/><rect class="ac" width="3" height="57" transform="translate(718 1685)"/><rect class="ad" width="3" height="105" transform="translate(351 1678)"/><rect class="ae" width="3" height="58" transform="translate(400 1529)"/></g></svg>