<svg xmlns="http://www.w3.org/2000/svg" xmlns:xlink="http://www.w3.org/1999/xlink" width="575" height="533" viewBox="0 0 575 533"><defs><style>.a{fill:url(#a);}.b{fill:url(#b);}.c,.f{fill:none;stroke:#fff;stroke-miterlimit:10;opacity:0.297;}.d{fill:url(#c);}.e{fill:url(#d);}.f{stroke-width:1.36px;}.g{fill:url(#e);}.h{fill:url(#f);}.i{fill:url(#g);}.j{fill:url(#h);}.k{fill:url(#j);}.l{fill:url(#k);}.m{fill:url(#l);}.n{fill:#fefef0;}.o{fill:url(#n);}.p{fill:#f2f5ff;}.q{fill:url(#o);}.r{fill:#8bc34a;}.s{fill:url(#p);}.t{fill:#fff;}.u{fill:url(#q);}.v{fill:url(#r);}.w{fill:url(#s);}.x{fill:url(#t);}</style><linearGradient id="a" y1="0.5" x2="1" y2="0.5" gradientUnits="objectBoundingBox"><stop offset="0" stop-color="#0c1556"/><stop offset="1" stop-color="#2636b0"/></linearGradient><radialGradient id="b" cx="0.5" cy="0.5" r="0.5" gradientTransform="translate(0)" gradientUnits="objectBoundingBox"><stop offset="0" stop-color="#fff" stop-opacity="0.302"/><stop offset="0.41" stop-color="#fff" stop-opacity="0.149"/><stop offset="0.78" stop-color="#fff" stop-opacity="0.039"/><stop offset="1" stop-color="#fff" stop-opacity="0"/></radialGradient><radialGradient id="c" cx="0.5" gradientTransform="matrix(1, 0, 0, 1, 0, 0)" xlink:href="#b"/><radialGradient id="d" cx="0.5" cy="0.588" r="0.512" gradientTransform="translate(0.011 -0.001) scale(0.978 0.98)" gradientUnits="objectBoundingBox"><stop offset="0" stop-color="#fff" stop-opacity="0.2"/><stop offset="0.2" stop-color="#fff" stop-opacity="0.149"/><stop offset="0.7" stop-color="#fff" stop-opacity="0.039"/><stop offset="1" stop-color="#fff" stop-opacity="0"/></radialGradient><radialGradient id="e" cx="0.5" cy="0.521" r="0.547" gradientTransform="translate(0.029 -0.015) scale(0.941 0.89)" gradientUnits="objectBoundingBox"><stop offset="0" stop-color="#0a1961" stop-opacity="0.502"/><stop offset="0" stop-color="#0a1961"/><stop offset="0.17" stop-color="#0a1961" stop-opacity="0.91"/><stop offset="0.44" stop-color="#0a1961" stop-opacity="0.671"/><stop offset="0.78" stop-color="#0a1961" stop-opacity="0.278"/><stop offset="1" stop-color="#0a1961" stop-opacity="0"/></radialGradient><radialGradient id="f" cx="0.5" cy="0.5" r="0.5" gradientUnits="objectBoundingBox"><stop offset="0" stop-color="#fff" stop-opacity="0.4"/><stop offset="0.14" stop-color="#fff" stop-opacity="0.329"/><stop offset="0.53" stop-color="#fff" stop-opacity="0.149"/><stop offset="0.83" stop-color="#fff" stop-opacity="0.039"/><stop offset="1" stop-color="#fff" stop-opacity="0"/></radialGradient><radialGradient id="g" cx="0.5" cy="0.5" r="0.486" gradientTransform="translate(-0.029) scale(1.059 1)" gradientUnits="objectBoundingBox"><stop offset="0" stop-color="#0a1961" stop-opacity="0.502"/><stop offset="0" stop-color="#1931a2"/><stop offset="0.12" stop-color="#1931a2" stop-opacity="0.949"/><stop offset="0.31" stop-color="#1931a2" stop-opacity="0.8"/><stop offset="0.54" stop-color="#1931a2" stop-opacity="0.569"/><stop offset="0.81" stop-color="#1931a2" stop-opacity="0.251"/><stop offset="1" stop-color="#1931a2" stop-opacity="0"/></radialGradient><radialGradient id="h" cx="0.5" cy="0.5" r="0.5" gradientUnits="objectBoundingBox"><stop offset="0" stop-color="#fff" stop-opacity="0.502"/><stop offset="0.27" stop-color="#fff" stop-opacity="0.329"/><stop offset="0.6" stop-color="#fff" stop-opacity="0.149"/><stop offset="0.85" stop-color="#fff" stop-opacity="0.039"/><stop offset="1" stop-color="#fff" stop-opacity="0"/></radialGradient><linearGradient id="j" x1="0.997" y1="0.5" x2="0.004" y2="0.5" gradientUnits="objectBoundingBox"><stop offset="0" stop-color="#1c2c72"/><stop offset="1" stop-color="#2f3fe7"/></linearGradient><linearGradient id="k" x1="0.049" y1="0.501" x2="0.977" y2="0.501" gradientUnits="objectBoundingBox"><stop offset="0" stop-color="#2d3ddc"/><stop offset="1" stop-color="#2636b0"/></linearGradient><linearGradient id="l" x1="0.5" y1="-0.076" x2="0.5" y2="0.967" gradientUnits="objectBoundingBox"><stop offset="0" stop-color="#fff"/><stop offset="1" stop-color="#bcbcbc"/></linearGradient><linearGradient id="n" x1="0" y1="0.5" x2="1.001" y2="0.5" xlink:href="#a"/><linearGradient id="o" x1="0" y1="0.5" x2="1" y2="0.5" xlink:href="#a"/><linearGradient id="p" x1="0" y1="0.5" x2="1" y2="0.5" xlink:href="#a"/><linearGradient id="q" x1="1.039" y1="0.334" x2="-0.059" y2="0.727" gradientUnits="objectBoundingBox"><stop offset="0.34" stop-color="#fff" stop-opacity="0"/><stop offset="0.49" stop-color="#fff" stop-opacity="0.012"/><stop offset="0.61" stop-color="#fff" stop-opacity="0.051"/><stop offset="0.71" stop-color="#fff" stop-opacity="0.11"/><stop offset="0.8" stop-color="#fff" stop-opacity="0.2"/><stop offset="0.89" stop-color="#fff" stop-opacity="0.322"/><stop offset="0.98" stop-color="#fff" stop-opacity="0.459"/><stop offset="1" stop-color="#fff" stop-opacity="0.502"/></linearGradient><linearGradient id="r" x1="0.5" x2="0.5" y2="1" gradientUnits="objectBoundingBox"><stop offset="0" stop-color="#1f2e9a" stop-opacity="0"/><stop offset="1" stop-color="#202e9a"/></linearGradient><linearGradient id="s" x1="0.5" x2="0.5" y2="1" gradientUnits="objectBoundingBox"><stop offset="0" stop-color="#101b66" stop-opacity="0"/><stop offset="1" stop-color="#111b66"/></linearGradient><linearGradient id="t" x1="0.5" x2="0.5" y2="1" gradientUnits="objectBoundingBox"><stop offset="0" stop-color="#121d6d" stop-opacity="0"/><stop offset="1" stop-color="#121d6d"/></linearGradient></defs><g transform="translate(-253 -2706)"><path class="a" d="M364.588,0H210.415A133.36,133.36,0,0,0,94.947,66.581L17.861,199.922a133.024,133.024,0,0,0,0,133.156L94.947,466.425A133.365,133.365,0,0,0,210.415,533H364.588A133.354,133.354,0,0,0,480.05,466.424l77.086-133.346a133,133,0,0,0,0-133.156L480.05,66.581A133.342,133.342,0,0,0,364.588,0Z" transform="translate(252.999 2706)"/><circle class="b" cx="4.647" cy="4.647" r="4.647" transform="translate(396.892 2880.743)"/><line class="c" y2="66.216" transform="translate(401.539 2885.354)"/><circle class="d" cx="4.647" cy="4.647" r="4.647" transform="translate(682.657 2806.495)"/><line class="c" y2="66.216" transform="translate(687.303 2811.118)"/><ellipse class="e" cx="4.647" cy="4.542" rx="4.647" ry="4.542" transform="translate(347.526 3020.537)"/><line class="f" y2="122.663" transform="translate(352.173 3024.954)"/><path class="f" d="M297.277,431.692H182.061a4.443,4.443,0,0,1-4.438-4.443V373.4a4.443,4.443,0,0,0-4.443-4.443H152.443A4.443,4.443,0,0,1,148,364.517V320.75" transform="translate(190.965 2571.243)"/><path class="f" d="M607,434.141H726.951a4.926,4.926,0,0,0,4.926-4.926V374.5a4.838,4.838,0,0,1,4.833-4.833h29.513a5.733,5.733,0,0,0,5.733-5.733V330.75" transform="translate(-1.451 2567.048)"/><rect class="g" width="9.874" height="9.294" transform="translate(334.022 2887.704)"/><circle class="h" cx="4.937" cy="4.937" r="4.937" transform="translate(334.022 2887.123)"/><rect class="i" width="9.874" height="10.455" transform="translate(765.566 2892.344)"/><circle class="j" cx="4.937" cy="4.937" r="4.937" transform="translate(765.566 2892.344)"/><circle class="d" cx="4.937" cy="4.937" r="4.937" transform="translate(766.729 2860.44)"/><rect class="k" width="265.156" height="21.584" transform="translate(416.199 2940.528)"/><path class="l" d="M317.31,388.805s2.7,0,4.165-3.677l5.152-13.023s1.743-5.4,9.294-5.4h72.4s5.4.244,7.359,5.152l7.11,17.9Z" transform="translate(119.988 2551.996)"/><path class="m" d="M280.992,438.12H546.148V616.207a4.165,4.165,0,0,1-4.165,4.165H285.145a4.165,4.165,0,0,1-4.165-4.165V438.12Z" transform="translate(135.213 2521.846)"/><rect class="n" width="248.23" height="163.363" rx="5.25" transform="translate(424.784 2970.271)"/><rect class="a" width="43.662" height="4.658" rx="2.329" transform="translate(457.408 2931.721)"/><path class="o" d="M469.7,388.5H450.653s-4.966-.18-7.417-6.314l-3.926-10.078s-1.713-5.4-8.829-5.4h24.738a8.713,8.713,0,0,1,8.091,5.535Z" transform="translate(72.551 2551.997)"/><path class="p" d="M543.93,568.353a574.833,574.833,0,0,1-110.942-11.617c-27.642-5.716-51.817-12.964-84.223-7.551a154.671,154.671,0,0,0-52.276,19.168V459.468a3.218,3.218,0,0,1,3.218-3.218h241a3.218,3.218,0,0,1,3.224,3.218Z" transform="translate(128.712 2514.314)"/><path class="q" d="M450.037,488.826a15.336,15.336,0,0,1,1.231,2.323,34.837,34.837,0,0,1,.807,3.537c1.231-.807,2.376-1.528,3.485-2.283a1.952,1.952,0,0,1,2.8.261q1.853,1.9,3.746,3.752a1.917,1.917,0,0,1,.3,2.7c-.749,1.162-1.475,2.277-2.323,3.555,1.109.244,2.1.459,3.09.685,2.562.581,2.562.581,2.846,3.218h46.816a1.934,1.934,0,0,0,1.824-.807,4.961,4.961,0,0,1,4.2-1.981c3.735,0,7.47-.041,11.2,0a5.15,5.15,0,0,1,5.361,5.187c.1,3.857.087,7.714,0,11.565a5.3,5.3,0,0,1-10.205,1.957l-.3-.633c-.383.366-.7.651-1,.953l-24.878,24.878c-2.242,2.242-3.973,2.248-6.192,0l-7.33-7.319c-.221-.221-.465-.418-.819-.738-1.162,1.162-2.242,2.323-3.375,3.485-3.741,3.752-7.458,7.551-11.251,11.234a5.228,5.228,0,0,1-8.835-2.323,4.978,4.978,0,0,1,1.237-5.024c2.666-2.73,5.373-5.414,8.085-8.1a1.8,1.8,0,1,1,2.538,2.538c-2.567,2.6-5.17,5.164-7.743,7.76-.935.941-.935,2-.035,2.7a1.661,1.661,0,0,0,2.44-.325c1.894-1.911,3.8-3.81,5.71-5.71l8.178-8.178c2.323-2.323,4-2.323,6.354,0,2.614,2.608,5.228,5.228,8.132,8.173a7.058,7.058,0,0,1,.8-1.255q13.824-13.865,27.677-27.695c.227-.232.418-.581.691-.656.645-.221,1.441-.581,1.963-.389a2.463,2.463,0,0,1,1.115,1.638,15.532,15.532,0,0,1,.081,2.759,1.727,1.727,0,0,0,1.638,1.865,1.7,1.7,0,0,0,1.69-1.824q.052-5.605,0-11.2c0-1.162-.639-1.743-1.841-1.743q-5.541-.041-11.083,0a1.6,1.6,0,0,0-1.783,1.69c0,1,.651,1.6,1.8,1.65h1.684c1.1,0,2.248-.122,2.771,1.162s-.441,2-1.2,2.759l-15.16,15.166q-4.066,4.066-8.178,8.173c-1.963,1.952-3.822,1.969-5.756,0-2.718-2.73-5.419-5.477-8.236-8.324-1.673,1.69-3.247,3.282-4.827,4.867a6.382,6.382,0,0,1-.964.9,1.69,1.69,0,0,1-2.323-.192,1.574,1.574,0,0,1-.157-2.289c2.016-2.126,4.066-4.24,6.232-6.192,1.342-1.2,3.247-.86,4.647.581,2.794,2.777,5.559,5.57,8.248,8.271l16.583-16.595H463.3c-1.9,1.9-3.613,3.741-5.506,5.379-.4.348-1.551.157-2.178-.151a34.388,34.388,0,0,1-3.549-2.254c-.3,1.446-.581,2.73-.848,4.008-.3,1.388-.819,1.835-2.225,1.853h-5.3a1.905,1.905,0,0,1-2.085-1.743c-.261-1.3-.546-2.585-.877-4.118-1.162.749-2.207,1.44-3.264,2.12-1.423.918-2.079.877-3.258-.36-1.429-1.5-2.8-3.061-4.217-4.571a1.039,1.039,0,0,0-.714-.273h-7.493c0,.523-.07.987-.07,1.446V570.69c0,3.8,2,5.768,5.808,5.762h6.1A13.039,13.039,0,0,1,439,567.774a12.6,12.6,0,0,1,7.441-2.381c6.169,0,10.136,3.415,12.842,11.036h64.387c3.892,0,5.872-1.969,5.872-5.809V533.5a10.47,10.47,0,0,1,0-1.208,1.655,1.655,0,0,1,1.638-1.609,1.69,1.69,0,0,1,1.9,1.464,5.172,5.172,0,0,1,.052,1.2v37.465c0,5.716-3.63,9.352-9.294,9.357H497.028c.61,2.411,1.191,4.716,1.777,7.028q2.323,9.143,4.682,18.291c.894,3.485-.273,5.5-3.776,6.529a1.165,1.165,0,0,0-.3.186h-1.928a5.448,5.448,0,0,1-4.066-4.252c-1.319-5.454-2.742-10.885-4.13-16.328-.97-3.8-1.957-7.592-2.9-11.361h-5.919v1.51c0,8.132-.064,16.3.035,24.459.035,3.009-1.086,5.007-3.956,5.971h-1.928c-2.9-1.051-3.938-3.113-3.9-6.151.11-8.132.035-16.3.035-24.454v-1.429c-1.655,0-3.108.07-4.542,0-1.022-.058-1.446.261-1.7,1.284-2.149,8.637-4.414,17.245-6.535,25.888-.581,2.48-1.742,4.252-4.327,4.885h-1.928c-4.333-1.859-4.926-3.1-3.735-7.708q1.69-6.581,3.357-13.168c.081-.319.116-.656.18-1.069a13.166,13.166,0,0,1-17.989-10.113h-6c-5.774,0-9.445-3.578-9.445-9.34V520.36c0-1.963-.064-3.938.093-5.9a8.475,8.475,0,0,1,6.627-7.638c.651-.157,1.319-.227,1.957-.337.3-2.573.3-2.573,2.852-3.119l3.108-.662-2.323-3.572a1.928,1.928,0,0,1,.3-2.7c1.231-1.208,2.44-2.445,3.665-3.659,1.069-1.057,1.667-1.109,2.974-.285,1.1.7,2.19,1.417,3.392,2.2.308-1.388.482-2.625.865-3.787a11.448,11.448,0,0,1,1.22-2.079Zm12.2,18.076c-1.092-.238-2.219-.494-3.346-.726a3.444,3.444,0,0,1-2.126-5.018c.627-1.011,1.278-2,1.888-2.951l-2.039-2.138c-1.011.656-1.981,1.3-2.962,1.917a3.45,3.45,0,0,1-5.077-2.2c-.232-1.092-.482-2.184-.714-3.253-2.9-.308-2.9-.308-3.485,2.376-.081.349-.139.709-.227,1.057a3.485,3.485,0,0,1-5,2.05c-1-.633-2-1.289-2.84-1.841l-2.149,2.155c.581.877,1.191,1.812,1.789,2.759a3.45,3.45,0,0,1-2.138,5.1c-1.115.256-2.236.488-3.363.732,0,.8.041,1.44,0,2.074-.058.72.256.982.941,1.075a23.775,23.775,0,0,1,2.7.581,3.5,3.5,0,0,1,1.969,4.862c-.627,1.022-1.3,2.021-1.992,3.084l2.132,2.068c.935-.581,1.876-1.214,2.817-1.812a3.433,3.433,0,0,1,5.228,2.236c.168.825.319,1.655.517,2.469.058.25.232.656.378.668a8.607,8.607,0,0,0,2.5,0c.261-.058.4-.86.534-1.342.168-.616.285-1.249.412-1.876a3.485,3.485,0,0,1,5.175-2.149c.941.581,1.876,1.214,2.846,1.847l2.1-2.1c-.616-.947-1.162-1.888-1.806-2.747a3.067,3.067,0,0,1-.337-3.073c.54-1.58,1.742-2.114,3.27-2.4,2.7-.517,2.684-.558,2.416-3.462Zm55.122,7.812-.11-.471a5.123,5.123,0,0,1-3.311-2.951,1.458,1.458,0,0,0-1.638-1.1q-22.514.052-45.039,0H466c-.2,2.492-.366,2.672-2.649,3.148l-3.171.668a1.582,1.582,0,0,0,1.742,1.359q26.719-.041,53.473-.052A5.793,5.793,0,0,0,517.357,514.714Zm-61.715,63.713a9.259,9.259,0,1,0-9.294,9.212,9.259,9.259,0,0,0,9.294-9.212Zm34.572,1.8a4.34,4.34,0,0,0,.07.581q3.381,13.307,6.744,26.609a1.545,1.545,0,0,0,2.033,1.162c1.046-.273,1.237-.982.987-1.952q-2.323-9.015-4.647-18.047-1.063-4.171-2.132-8.335Zm-30.547,0c-1.162,2.248-2.213,4.252-3.247,6.256a3.722,3.722,0,0,0-.3.778q-2.474,9.7-4.978,19.418c-.18.7-.215,1.394.5,1.638a2.8,2.8,0,0,0,1.9-.041c.389-.18.621-.889.755-1.406,1.568-6.081,3.108-12.2,4.647-18.262.709-2.776,1.423-5.553,2.155-8.393Zm14.759,0c0,.314-.052.546-.052.778v25.871c0,.238-.076.581.046.7.366.366.813.894,1.22.894s.865-.54,1.162-.953c.174-.25.064-.7.064-1.057V581.558c0-.43-.035-.854-.058-1.33Zm-47.682-69.922a4.781,4.781,0,0,0-4.949,5c.349,0,.7.052,1.051.052,2.643,0,5.286-.035,7.929,0A1.545,1.545,0,0,0,432.571,514c-.982-.215-1.911-.43-2.846-.61C427.14,512.914,427.111,512.9,426.745,510.306Z" transform="translate(77.748 2500.617)"/><path class="r" d="M453.028,566.33H461.8c1.586,0,2.213.581,2.236,2.161.029,2.085.035,4.17,0,6.256,0,1.528-.685,2.178-2.248,2.184H444.234c-1.551,0-2.219-.68-2.236-2.2q-.035-3.125,0-6.256c0-1.493.656-2.132,2.132-2.137h8.9Zm-7.354,6.906h14.69v-3.2H445.7Z" transform="translate(67.731 2468.174)"/><path class="r" d="M550.93,622.692H534.667a6.073,6.073,0,0,1-1.08-.029,1.708,1.708,0,0,1-1.551-1.743,1.679,1.679,0,0,1,1.557-1.824,12.445,12.445,0,0,1,1.923-.041h32.614a1.795,1.795,0,1,1,0,3.59c-.436.035-.883,0-1.324,0Z" transform="translate(29.984 2446.047)"/><path class="r" d="M567.975,609.075h-9.747c-1.336,0-2.12-.674-2.149-1.742s.784-1.847,2.178-1.853h19.621c1.307,0,2.085.72,2.079,1.818s-.778,1.742-2.108,1.783h-9.874Z" transform="translate(19.903 2451.739)"/><path class="r" d="M450.157,593.743h-5.89c-1.388,0-2.225-.714-2.207-1.818s.842-1.789,2.143-1.795h12.018a1.786,1.786,0,0,1,2,1.777c.012,1.051-.726,1.806-2.05,1.824h-6.012Z" transform="translate(67.698 2458.185)"/><path class="s" d="M461.286,509.36a7.65,7.65,0,1,1-7.626,7.7,7.65,7.65,0,0,1,7.626-7.7Zm4.066,7.621a3.951,3.951,0,1,1-.012,0Z" transform="translate(62.835 2492.094)"/><path class="r" d="M467.3,639.923c0,.8.035,1.6,0,2.4a1.708,1.708,0,0,1-1.708,1.789,1.684,1.684,0,0,1-1.847-1.65c-.076-1.742-.076-3.444,0-5.158a1.766,1.766,0,0,1,3.532.093c.041.836,0,1.679,0,2.521Z" transform="translate(58.63 2439.091)"/><path class="t" d="M387.72,242.252c-.227-.842-.476-1.679-.674-2.532-1.255-5.408.581-9.874,4.275-13.731a44.436,44.436,0,0,1,10.757-8.027c4.879-2.713,9.927-5.123,14.748-7.934a52.689,52.689,0,0,0,22.153-24.215,4.066,4.066,0,0,0,.378-2.713,6.761,6.761,0,0,1,12.61-4.449c3.137,6.291,6.174,12.622,9.247,18.941q8.9,18.291,17.785,36.593a7.381,7.381,0,0,1,.842,5.175,6.508,6.508,0,0,1-5.036,5.117,6.389,6.389,0,0,1-6.633-2.126,4.066,4.066,0,0,0-2.149-1.342,51.662,51.662,0,0,0-24.6-.2c-1.777.389-3.52.918-5.4,1.417,1.522,5.7-1.237,9.485-5.489,12.546l4.368,7.156a1.639,1.639,0,0,0,2.323.633,5.414,5.414,0,0,1,5.843,8.887,4.486,4.486,0,0,1-1.08.825,66.174,66.174,0,0,1-6.081,2.9c-4.914,1.864-9.659-.128-12.343-4.949-2.6-4.687-5.565-9.131-9.718-12.593a38.615,38.615,0,0,0-5.808-3.752,4.3,4.3,0,0,0-2.4-.36,19.183,19.183,0,0,1-8.219-.656,13.975,13.975,0,0,1-7.075-5.716c-.174-.256-.395-.482-.581-.726Zm23.9-26.063c-3.706,2.143-7.29,4.136-10.792,6.267a33.655,33.655,0,0,0-7.865,6.442c-2.736,3.113-3.921,6.639-2.654,10.705a26.541,26.541,0,0,0,2.016,4.734,11.015,11.015,0,0,0,11.077,6.169,24.785,24.785,0,0,0,2.614-.279,65.212,65.212,0,0,0,15.532-5.181c1.1-.488,2.178-1.051,3.317-1.6-2.445-5.024-4.85-9.979-7.255-14.934a5.425,5.425,0,0,1-.436-.958,1.568,1.568,0,0,1,2.829-1.3,7.17,7.17,0,0,1,.43.842l6.813,14.027.517,1.057a62.394,62.394,0,0,1,18.523-5.443,55.994,55.994,0,0,1,19.116.819l-23.977-49.372c-5.907,12.093-15.1,20.661-26.882,26.777.895,1.835,1.8,3.572,2.567,5.373a2.44,2.44,0,0,1,0,1.853c-.581,1.121-2.12.895-2.753-.36C413.469,220.052,412.621,218.251,411.616,216.189Zm44.725-4.8q6.6,13.586,13.191,27.2c.2.412.389.831.621,1.22a3.619,3.619,0,0,0,6.465-3.166c-.256-.651-.581-1.278-.883-1.911l-22.374-46.061c-1.353-2.776-2.689-5.564-4.066-8.335a3.561,3.561,0,0,0-3.683-2.085c-2.62.279-3.973,2.9-2.742,5.466q6.715,13.847,13.447,27.677ZM411.93,252.277a32.08,32.08,0,0,1,9.328,8.713c1.87,2.573,3.584,5.28,5.228,8.01,2.114,3.52,5.506,4.647,9.172,2.9,1.429-.685,2.852-1.365,4.269-2.068s1.975-1.923,1.4-3.16-1.742-1.58-3.224-1.016a4.571,4.571,0,0,1-5.808-1.853c-1.353-2.132-2.538-4.385-4.066-6.389-2.045-2.747-4.3-5.338-6.517-7.958a1.324,1.324,0,0,0-1.127-.412C417.762,250.006,414.921,251.116,411.93,252.277Zm16.6-.18c3.026-1.452,5.861-5.594,4.229-8.713l-8.318,4.037Z" transform="translate(90.921 2632.457)"/><path class="t" d="M545.939,212.916a2,2,0,0,1-1.278,1.865c-4.17,1.992-8.324,4.031-12.482,6.052a4.873,4.873,0,0,1-.674.285,1.336,1.336,0,0,1-1.742-.732,2.857,2.857,0,0,1,.244-1.812c.128-.319.645-.5,1.016-.68,4-1.957,8.01-3.88,12-5.855a2.509,2.509,0,0,1,2.474-.07Z" transform="translate(30.957 2617.108)"/><path class="t" d="M510.973,169.73a1.643,1.643,0,0,1-2.434-1.342,1.416,1.416,0,0,1,.081-.517c1.6-4.647,3.195-9.294,4.827-13.94a1.5,1.5,0,0,1,2.062-.912,1.557,1.557,0,0,1,.842,2.1c-.778,2.323-1.6,4.647-2.4,6.97-.749,2.161-1.475,4.322-2.26,6.465a5.4,5.4,0,0,1-.72,1.173Z" transform="translate(39.831 2641.92)"/><path class="t" d="M553.208,267.35a7.8,7.8,0,0,1,1.609.168q6.738,2.289,13.441,4.647a1.583,1.583,0,0,1,1.2,2.1c-.319.906-1.162,1.237-2.265.865-4.484-1.539-8.957-3.1-13.441-4.647a1.522,1.522,0,0,1-1.214-1.522A5.516,5.516,0,0,1,553.208,267.35Z" transform="translate(21.387 2593.729)"/><path class="u" d="M612.669,197.372l-79-26.063L507.6,117.366,537.74,31.25c12.2,4.531,61.378,26.336,77.88,62.987C632.987,132.817,617.508,185.331,612.669,197.372Z" transform="translate(40.222 2692.901)"/><rect class="v" width="3" height="67" transform="translate(686 2811)"/><rect class="w" width="3" height="123" transform="translate(351 3025)"/><rect class="x" width="3" height="67" transform="translate(400 2885)"/></g></svg>