<svg xmlns="http://www.w3.org/2000/svg" xmlns:xlink="http://www.w3.org/1999/xlink" width="169" height="146" viewBox="0 0 169 146"><defs><style>.a{fill:#f3f7fd;}.b{fill:url(#a);}.c{fill:#2535ae;}.d{fill:#0b1657;}.e{fill:#192684;}.f{fill:#8bc34a;stroke:#8bc34a;stroke-miterlimit:10;stroke-width:1.5px;}</style><linearGradient id="a" y1="0.5" x2="1" y2="0.5" gradientUnits="objectBoundingBox"><stop offset="0" stop-color="#0b1657"/><stop offset="1" stop-color="#2635af"/></linearGradient></defs><g transform="translate(-488 -1246)"><rect class="a" width="118.127" height="21.851" rx="3" transform="translate(518.743 1270.314)"/><circle class="a" cx="33" cy="33" r="33" transform="translate(488 1246)"/><circle class="a" cx="20.221" cy="20.221" r="20.221" transform="translate(501.075 1349.932)"/><circle class="a" cx="20.221" cy="20.221" r="20.221" transform="translate(616.557 1280.965)"/><g transform="translate(510.53 1268.116)"><path class="b" d="M1288.815,200.71h-66.029c-.573,0-1.148.015-1.722,0a3.38,3.38,0,0,1-3.417-3.344c-.04-1.175,0-2.358,0-3.533v-93.61c0-.3-.012-.607.006-.908a3.375,3.375,0,0,1,3.473-3.158c1.234-.014,2.469,0,3.7,0h101.795c3.749,0,7.515-.107,11.263,0a3.384,3.384,0,0,1,3.432,3.337c.051,1.495,0,3,0,4.495v7.294c0,1.428.294,3.381-.5,4.647-1.1,1.744-2.931,1.557-4.675,1.557H1227.861a1.162,1.162,0,0,0,0,2.323h109.092c.339,0,.68.009,1.019,0a5.712,5.712,0,0,0,5.58-4.7,28.635,28.635,0,0,0,.086-4.615v-7.45a28.144,28.144,0,0,0-.086-4.514,5.714,5.714,0,0,0-5.587-4.7c-1.058-.03-2.122,0-3.18,0H1232.127c-3.7,0-7.409-.1-11.105,0-3.517.092-5.695,2.842-5.695,6.2v85.976c0,3.788-.118,7.6,0,11.384a5.736,5.736,0,0,0,5.655,5.641c.471.013.945,0,1.416,0h66.417a1.162,1.162,0,0,0,0-2.323Z" transform="translate(-1215.275 -93.791)"/><path class="c" d="M1729.682,238.56v65.592c0,1.184.039,2.376,0,3.56-.134,4.063-4.816,3.273-7.6,3.273a1.162,1.162,0,0,0,0,2.323c3.432,0,7.627.587,9.391-3.176a8.976,8.976,0,0,0,.531-3.995V238.56a1.162,1.162,0,0,0-2.323,0Z" transform="translate(-1603.642 -204.066)"/><path class="b" d="M1376.007,301.255a23.383,23.383,0,1,1-11.3-45.159c8.89-1.371,17.76,3.019,22.768,10.364a22.761,22.761,0,0,1,4.023,14.5,23.475,23.475,0,0,1-6.786,14.791,1.77,1.77,0,0,0,0,2.464l10.568,10.568a1.769,1.769,0,0,0,2.464,0,30.425,30.425,0,0,1,2.8-2.8c.783-.6,1.276-.014,1.8.515l5.915,5.915c3.979,3.979,8.012,7.911,11.94,11.94,1.715,1.759,2.961,4.267,2.306,6.768-.609,2.325-2.878,5-5.5,4.814a6.581,6.581,0,0,1-3.689-1.794c-.284-.262-.55-.544-.823-.816l-13.377-13.377c-1.89-1.89-3.9-3.712-5.7-5.7-.871-.964.071-1.606.8-2.266l3.53-3.209c1.663-1.512-.807-3.971-2.464-2.464l-3.39,3.081a11.033,11.033,0,0,0-1.483,1.479,4.36,4.36,0,0,0-.489,4.376,7.4,7.4,0,0,0,1.738,2.169l2.862,2.862,15.206,15.206a12.862,12.862,0,0,0,5.414,3.628,7.852,7.852,0,0,0,7.677-2.1,10,10,0,0,0,3.121-9.284c-.684-3.406-3.105-5.678-5.437-8.01l-8.089-8.088-7.19-7.19a8.445,8.445,0,0,0-2.092-1.761,4.426,4.426,0,0,0-4.793.6c-.559.471-1.056,1.026-1.572,1.542l-1.484,1.484h2.464l-10.568-10.567v2.464a26.665,26.665,0,0,0,5.2-30.261c-4.479-9.172-14.2-15.715-24.5-15.582a26.852,26.852,0,1,0,9.06,52.248c2.112-.718,1.2-4.085-.926-3.36Z" transform="translate(-1312.235 -215.526)"/><g transform="translate(11.726 10.549)"><circle class="d" cx="2.336" cy="2.336" r="2.336" transform="translate(0.292 0.292)"/><path class="d" d="M1268.378,144.455a2.628,2.628,0,1,1,2.628-2.628A2.631,2.631,0,0,1,1268.378,144.455Zm0-4.672a2.044,2.044,0,1,0,2.044,2.044A2.047,2.047,0,0,0,1268.378,139.783Z" transform="translate(-1265.75 -139.199)"/></g><g transform="translate(23.668 10.549)"><circle class="e" cx="2.336" cy="2.336" r="2.336" transform="translate(0.292 0.292)"/><path class="e" d="M1319.913,144.455a2.628,2.628,0,1,1,2.628-2.628A2.631,2.631,0,0,1,1319.913,144.455Zm0-4.672a2.044,2.044,0,1,0,2.044,2.044A2.046,2.046,0,0,0,1319.913,139.783Z" transform="translate(-1317.285 -139.199)"/></g><g transform="translate(35.625 10.549)"><circle class="c" cx="2.336" cy="2.336" r="2.336" transform="translate(0.292 0.292)"/><path class="c" d="M1371.447,144.455a2.628,2.628,0,1,1,2.628-2.628A2.631,2.631,0,0,1,1371.447,144.455Zm0-4.672a2.044,2.044,0,1,0,2.044,2.044A2.046,2.046,0,0,0,1371.447,139.783Z" transform="translate(-1368.819 -139.199)"/></g><g transform="translate(38.216 57.775)"><path class="f" d="M1384.718,355.186a8.937,8.937,0,0,1-2.382-.308,5.788,5.788,0,0,1-1.925-.905.734.734,0,0,1-.334-.457.743.743,0,0,1,.061-.492.592.592,0,0,1,.343-.308.6.6,0,0,1,.527.114,5.139,5.139,0,0,0,1.687.826,7.636,7.636,0,0,0,2.021.246,3.829,3.829,0,0,0,2.346-.589,1.867,1.867,0,0,0,.764-1.555,1.513,1.513,0,0,0-.553-1.23,4.34,4.34,0,0,0-1.854-.721l-1.828-.369a4.931,4.931,0,0,1-2.47-1.152,2.85,2.85,0,0,1-.818-2.135,3.317,3.317,0,0,1,.571-1.933,3.743,3.743,0,0,1,1.591-1.283,5.709,5.709,0,0,1,2.356-.457,6.725,6.725,0,0,1,2.065.307,5.427,5.427,0,0,1,1.731.923.728.728,0,0,1,.29.448.672.672,0,0,1-.079.466.564.564,0,0,1-.351.272.708.708,0,0,1-.545-.132,4.5,4.5,0,0,0-1.468-.774,5.792,5.792,0,0,0-1.661-.228,3.516,3.516,0,0,0-2.214.642,2.042,2.042,0,0,0-.826,1.7,1.754,1.754,0,0,0,.518,1.336,3.391,3.391,0,0,0,1.7.72l1.828.387a5.756,5.756,0,0,1,2.628,1.116,2.561,2.561,0,0,1,.853,2.03,3.107,3.107,0,0,1-.554,1.828,3.592,3.592,0,0,1-1.582,1.23A6.166,6.166,0,0,1,1384.718,355.186Z" transform="translate(-1380.061 -342.478)"/><path class="f" d="M1491.634,355.186a5.614,5.614,0,0,1-3-.782,5.189,5.189,0,0,1-1.969-2.206,7.622,7.622,0,0,1-.694-3.375,7.707,7.707,0,0,1,.685-3.375,5.078,5.078,0,0,1,1.96-2.2,6.3,6.3,0,0,1,6.046,0,5.145,5.145,0,0,1,1.969,2.188,8.5,8.5,0,0,1-.009,6.749,5.233,5.233,0,0,1-1.977,2.215A5.651,5.651,0,0,1,1491.634,355.186Zm0-1.283a3.745,3.745,0,0,0,3.076-1.336,6.96,6.96,0,0,0,0-7.479,3.757,3.757,0,0,0-3.076-1.327,3.716,3.716,0,0,0-3.041,1.327,6.946,6.946,0,0,0,0,7.47A3.7,3.7,0,0,0,1491.634,353.9Z" transform="translate(-1461.369 -342.478)"/></g><g transform="translate(50.853 56.393)"><path class="f" d="M1435.4,351.272a.831.831,0,0,1-.941-.941V337.472a.832.832,0,0,1,.941-.941h7.778a.638.638,0,0,1,.732.711.647.647,0,0,1-.732.732h-7.046v5.1h6.607a.638.638,0,0,1,.732.711.647.647,0,0,1-.732.732h-6.607v5.311h7.046a.638.638,0,0,1,.732.711.647.647,0,0,1-.732.732Z" transform="translate(-1434.464 -336.531)"/></g></g></g></svg>