<svg xmlns="http://www.w3.org/2000/svg" xmlns:xlink="http://www.w3.org/1999/xlink" width="166" height="159" viewBox="0 0 166 159"><defs><style>.a,.g{fill:#8bc34a;}.a{opacity:0.2;}.b{fill:none;stroke:#000;stroke-miterlimit:10;stroke-width:6px;opacity:0.08;}.c{fill:#f3f7fd;}.d{fill:url(#a);}.e{fill:url(#b);}.f{fill:#2636b0;}</style><linearGradient id="a" y1="0.5" x2="1" y2="0.5" gradientUnits="objectBoundingBox"><stop offset="0" stop-color="#0b1657"/><stop offset="1" stop-color="#2635af"/></linearGradient><linearGradient id="b" y1="0.5" x2="1" y2="0.5" gradientUnits="objectBoundingBox"><stop offset="0" stop-color="#0c1556"/><stop offset="1" stop-color="#2636b0"/></linearGradient></defs><g transform="translate(-56.5 -68)"><path class="a" d="M534.55,315.482s.746,5.072,6.266,9.1c0,0-5.041,3.724-6.474,9.62,0,0-2.03-6.338-6.8-9.471A21.452,21.452,0,0,0,534.55,315.482Z" transform="translate(-325.133 -170.927)"/><path class="a" d="M444.039,200s1.547,10.517,12.992,18.87c0,0-10.452,7.722-13.424,19.947,0,0-4.209-13.141-14.107-19.637C429.5,219.179,438.471,213.3,444.039,200Z" transform="translate(-257.422 -91.167)"/><path class="a" d="M518.55,145.482s.746,5.072,6.266,9.1c0,0-5.041,3.724-6.474,9.62,0,0-2.03-6.338-6.8-9.471A21.452,21.452,0,0,0,518.55,145.482Z" transform="translate(-314.083 -53.514)"/><g transform="translate(56.5 68)"><ellipse class="b" cx="66.605" cy="66.508" rx="66.605" ry="66.508" transform="translate(18.715 11.291)"/><circle class="c" cx="39.75" cy="39.75" r="39.75" transform="translate(0)"/><circle class="c" cx="39.75" cy="39.75" r="39.75" transform="translate(86.5 79.5)"/><path class="d" d="M127.791,207.963h-1.822c-4.078,0-8.157-.008-12.235,0-1.083,0-2.072-.179-2.017-1.518.052-1.246,1.032-1.335,2.034-1.332,4.589.015,9.178.006,13.9.006v-5.138c-.5-.023-1.04-.07-1.584-.071q-6.117-.009-12.235,0c-1.043,0-2.1-.042-2.121-1.4s1.01-1.452,2.073-1.449c4.026.015,8.053,0,12.08,0h1.927c0-1.128-.01-2.137,0-3.144a7.647,7.647,0,0,1,7.094-7.775,15.981,15.981,0,0,1,1.7-.067q41.2-.006,82.392.01a25.31,25.31,0,0,1,2.956.353c.083-.864.225-1.881.268-2.9a1.9,1.9,0,0,1,1.983-2.085c1.285-.062,2.04.678,2.117,2.094a25.206,25.206,0,0,0,6.643,15.944c2.454,2.718,5.378,4.636,9.219,4.767a1.769,1.769,0,0,1,1.815,1.908c.051,1.124-.389,2-1.553,2.139-9.061,1.082-12.562,7.736-15.186,15.18a24.657,24.657,0,0,0-.9,5.313c-.2,1.7-.656,2.308-2.043,2.327-1.448.019-1.993-.613-2.107-2.408a25.076,25.076,0,0,0-6.328-15.281c-2.478-2.836-5.417-4.905-9.389-5.067a1.854,1.854,0,0,1-1.933-2.129,1.813,1.813,0,0,1,1.9-1.991,12.128,12.128,0,0,0,8.109-3.717,25.024,25.024,0,0,0,6.627-10.978h-1.729c-27.361,0-54.722.075-82.082-.066-5.506-.028-6.728,2.833-5.96,7.574h48.212c.464,0,1.04-.16,1.368.054.523.341,1.154.9,1.219,1.432.048.391-.669.994-1.17,1.293-.346.207-.906.063-1.37.063H131.363v5.133c.542.025,1.134.075,1.726.075q8.363.008,16.726,0c.413,0,.827.018,1.239,0,.956-.039,1.676.3,1.717,1.332.045,1.117-.7,1.511-1.715,1.511l-11.77,0h-7.991c-.031.711-.077,1.261-.077,1.812q-.005,18.479,0,36.957c0,3.707,1.56,5.282,5.261,5.282q41.428,0,82.856-.007c3.74,0,5.241-1.528,5.255-5.273a4.786,4.786,0,0,1,.117-1.98c.3-.594,1.041-1.395,1.531-1.356a2.285,2.285,0,0,1,1.71,1.337c.914,6.5-2.31,10.757-8.424,10.753q-41.661-.034-83.321-.018c-5.3,0-8.413-3.192-8.414-8.532q0-18.48,0-36.96Zm107.3-1.891c-5.078-3.015-8.359-7.812-10.842-13.546-2.442,5.81-5.772,10.529-10.822,13.561a69.95,69.95,0,0,1,6.234,6.129,69.659,69.659,0,0,1,4.606,7.286,67.317,67.317,0,0,1,4.516-7.165A74.371,74.371,0,0,1,235.089,206.071Z" transform="translate(-94.634 -146.359)"/><path class="e" d="M194.757,433.964q27.875,0,55.749,0c2.583,0,3.1.6,2.734,3.138a8.779,8.779,0,0,1-8.988,7.349q-20.751.024-41.5.006-28.8,0-57.608-.007c-4.9,0-8.481-3.062-9.127-7.721-.288-2.078.282-2.757,2.374-2.758Q166.573,433.962,194.757,433.964Zm54.676,3.517H139.9c.786,2.443,2.588,3.543,5.721,3.543q40.031,0,80.062,0c6.091,0,12.182.01,18.274,0C246.791,441.013,248.563,439.882,249.433,437.482Z" transform="translate(-111.37 -320.756)"/><path class="f" d="M534.691,310.586c-.338.341-.836,1.31-1.474,1.412-6.1.982-7.968,5.521-9.179,10.654a7.727,7.727,0,0,0-.155,1.38,1.817,1.817,0,0,1-1.944,1.945,1.868,1.868,0,0,1-2.052-2.015,14.058,14.058,0,0,0-2.526-7.516c-1.574-2.33-3.489-4.188-6.55-4.371a1.564,1.564,0,0,1-1.566-1.9c.145-.724.8-1.846,1.342-1.914,5.293-.673,7.259-4.557,8.8-8.86a10.766,10.766,0,0,0,.473-2.884c.087-1.317.595-2.219,2-2.245s1.955.832,2.042,2.172a14.523,14.523,0,0,0,3.568,8.71,7.5,7.5,0,0,0,5.375,2.99C534.006,308.207,534.556,308.962,534.691,310.586Zm-12.8,5.45,4.87-5.91L521.9,304.2l-4.864,5.922Z" transform="translate(-368.974 -224.278)"/><path class="f" d="M510.508,163.254a1.906,1.906,0,0,1-1.9-2.037,10.446,10.446,0,0,0-2.468-6.205,5.393,5.393,0,0,0-3.892-2.237,1.576,1.576,0,0,1-1.634-1.846,2.817,2.817,0,0,1,1.322-1.938c4.092-1.373,6.261-3.99,6.679-8.371.043-.449.059-1.1.337-1.287.626-.421,1.535-.984,2.094-.8a3.284,3.284,0,0,1,1.5,1.836c.75,1.828,1.136,3.826,2.035,5.567a5.627,5.627,0,0,0,4.42,3.019c.617.088,1.369,1.017,1.582,1.708.306.992-.363,1.768-1.381,2.078a8.656,8.656,0,0,0-6.609,8.2C512.462,162.475,511.838,163.214,510.508,163.254Zm.077-8.815,3.028-3.621-3.019-3.606-3.03,3.612Q509.066,152.62,510.585,154.439Z" transform="translate(-363.015 -116.691)"/><path class="g" d="M216.292,309.12c3.231,1.618,6.171,3.089,9.11,4.562A3.464,3.464,0,0,1,227,318.2a1.367,1.367,0,0,1-2.047.725c-4.951-2.529-9.91-5.044-14.82-7.648-1.33-.705-1.251-3.677.087-4.381q7.312-3.845,14.691-7.563c1.207-.609,2.088.005,2.234,1.384.274,2.595.089,2.9-2.257,4.07C222.131,306.164,219.383,307.562,216.292,309.12Z" transform="translate(-161.887 -227.613)"/><path class="g" d="M362.14,309.463c-3.358-1.679-6.4-3.192-9.428-4.714-1.394-.7-2.178-3.419-1.189-4.6a2,2,0,0,1,1.834-.472q7.483,3.687,14.86,7.586c1.334.7,1.319,3.7-.022,4.407q-7.38,3.888-14.846,7.612a1.4,1.4,0,0,1-2.118-1.219c-.377-2.553-.09-3.116,2.189-4.255C356.225,312.408,359.032,311.012,362.14,309.463Z" transform="translate(-259.835 -227.958)"/><path class="g" d="M289.614,308.946c-2.766,0-3.182-.606-2.276-2.962q4.1-10.66,8.19-21.321a3.226,3.226,0,0,1,4.461-1.838c1.2.545,1.008,1.484.617,2.486q-3.028,7.764-6.022,15.54c-.8,2.063-1.66,4.1-2.362,6.2C291.738,308.5,290.959,309.258,289.614,308.946Z" transform="translate(-215.542 -216.15)"/></g></g></svg>