<svg xmlns="http://www.w3.org/2000/svg" xmlns:xlink="http://www.w3.org/1999/xlink" width="159" height="159" viewBox="0 0 159 159"><defs><style>.a{fill:#f3f7fd;}.b{fill:url(#a);}.c,.f{fill:#2535ae;}.c{font-size:37px;}.c,.d{font-family:Nunito-Regular, Nunito;}.d,.e{fill:#8bc34a;}.d{font-size:74px;}</style><linearGradient id="a" y1="0.5" x2="1" y2="0.5" gradientUnits="objectBoundingBox"><stop offset="0" stop-color="#0b1657"/><stop offset="1" stop-color="#2635af"/></linearGradient></defs><g transform="translate(-663.15 -57.65)"><circle class="a" cx="48.278" cy="48.278" r="48.278" transform="translate(725.593 62.84)"/><circle class="a" cx="29.418" cy="29.418" r="29.418" transform="translate(682.248 157.814)"/><circle class="a" cx="29.418" cy="29.418" r="29.418" transform="translate(665.17 60.435)"/><path class="a" d="M736.368,203.277a71.177,71.177,0,1,1,69.854-86.5l-10.83,2.356a60.059,60.059,0,1,0-2.538,34.308l10.36,3.928a71.517,71.517,0,0,1-66.846,45.909Z" transform="translate(-1.177 -2.156)"/><path class="b" d="M735.551,201.934a72.078,72.078,0,1,1,70.743-87.565l-3.279.712A69.153,69.153,0,0,0,686.729,81.145,68.8,68.8,0,0,0,735.551,198.59a69.07,69.07,0,0,0,62.961-40.518l1.393-2.973-6.262-2.292a62.446,62.446,0,1,1,2.636-39.022l.015.066.832,3.888-3.282.7-.825-3.855a58.984,58.984,0,1,0-1.912,35.5l.586-1.554,12.8,4.686-2.93,6.252a72.426,72.426,0,0,1-66.011,42.466Z" transform="translate(0)"/><text class="c" transform="translate(695.385 131.101)"><tspan x="0" y="0">24</tspan></text><text class="d" transform="translate(731.803 159.511)"><tspan x="0" y="0">/</tspan></text><text class="c" transform="translate(747.174 162.947)"><tspan x="0" y="0">7</tspan></text><circle class="e" cx="1.804" cy="1.804" r="1.804" transform="translate(734.851 76.171)"/><circle class="e" cx="1.804" cy="1.804" r="1.804" transform="translate(760.989 84.35)"/><circle class="e" cx="1.804" cy="1.804" r="1.804" transform="translate(779.214 103.538)"/><circle class="e" cx="1.804" cy="1.804" r="1.804" transform="translate(785.689 129.828)"/><circle class="e" cx="1.804" cy="1.804" r="1.804" transform="translate(777.776 155.639)"/><circle class="e" cx="1.804" cy="1.804" r="1.804" transform="translate(757.872 174.042)"/><circle class="e" cx="1.804" cy="1.804" r="1.804" transform="translate(731.494 180.495)"/><circle class="e" cx="1.804" cy="1.804" r="1.804" transform="translate(705.355 172.369)"/><circle class="e" cx="1.804" cy="1.804" r="1.804" transform="translate(686.963 153.01)"/><circle class="e" cx="1.804" cy="1.804" r="1.804" transform="translate(680.709 126.721)"/><circle class="e" cx="1.804" cy="1.804" r="1.804" transform="translate(688.647 100.909)"/><circle class="e" cx="1.804" cy="1.804" r="1.804" transform="translate(708.233 82.906)"/><path class="f" d="M1074.571,257.313a2.846,2.846,0,0,1-2.016-.838l-13.5-13.5,2.381-2.382,12.934,12.935,6.425-17.379,3.158,1.167-6.7,18.124a2.847,2.847,0,0,1-2.07,1.8A2.884,2.884,0,0,1,1074.571,257.313Z" transform="translate(-271.775 -122.725)"/></g></svg>