<svg xmlns="http://www.w3.org/2000/svg" xmlns:xlink="http://www.w3.org/1999/xlink" width="225" height="159" viewBox="0 0 225 159"><defs><style>.a{fill:#f3f7fd;}.b,.e,.f{fill:#8bc34a;}.b,.c{opacity:0.2;}.c{fill:#2636b0;}.d{fill:url(#a);}.f{font-size:29px;font-family:Nunito-Bold, Nunito;font-weight:700;}</style><linearGradient id="a" y1="0.5" x2="1" y2="0.5" gradientUnits="objectBoundingBox"><stop offset="0" stop-color="#0c1556"/><stop offset="1" stop-color="#2636b0"/></linearGradient></defs><g transform="translate(-27.884 -627.604)"><ellipse class="a" cx="58.644" cy="58.181" rx="58.644" ry="58.181" transform="translate(102.657 649)"/><circle class="a" cx="39.558" cy="39.558" r="39.558" transform="translate(173.769 707.488)"/><path class="b" d="M247.928,787.277c-43.625,0-79.116-35.283-79.116-78.653s35.491-78.653,79.116-78.653,79.116,35.283,79.116,78.653S291.552,787.277,247.928,787.277Zm0-136.494c-32.082,0-58.182,25.947-58.182,57.842s26.1,57.842,58.182,57.842,58.182-25.947,58.182-57.842S280.009,650.783,247.928,650.783Z" transform="translate(-86.626 -1.443)"/><path class="c" d="M139.7,651.175h57.874a1.54,1.54,0,0,0,0-3.078H139.7a1.54,1.54,0,0,0,0,3.078Z" transform="translate(-67.425 -12.488)"/><path class="c" d="M140.487,1010.526h57.259a1.54,1.54,0,0,0,0-3.078H140.487a1.54,1.54,0,0,0,0,3.078Z" transform="translate(-67.906 -232.388)"/><g transform="translate(82.186 627.604)"><path class="d" d="M197.4,651.513a75.935,75.935,0,0,1,118.511,20.865A74.942,74.942,0,0,1,307.7,754.1a75.99,75.99,0,0,1-114.432,4.228,74.992,74.992,0,0,1-4.32-97.732c1.448-1.841-1.148-4.458-2.612-2.6a78.8,78.8,0,0,0,31.17,121.61,80.612,80.612,0,0,0,45.816,4.958,79,79,0,1,0-58.284-143.615,82.4,82.4,0,0,0-10.241,7.959c-1.758,1.6.86,4.19,2.612,2.6Z" transform="translate(-169.054 -627.849)"/><path class="d" d="M248.384,785.824A79.007,79.007,0,0,1,185.97,657.663a1.637,1.637,0,0,1,2.416-.291,2.171,2.171,0,0,1,.439,3.077,75.9,75.9,0,0,0-7.027,10.71,74.76,74.76,0,0,0,11.338,86.824,75.655,75.655,0,0,0,36.1,21.438,77.1,77.1,0,0,0,43.645-1.593,75.707,75.707,0,0,0,34.459-24.064,74.791,74.791,0,0,0,8.2-81.561,75.845,75.845,0,0,0-118.271-20.823l-.1-.113.1.113a1.917,1.917,0,0,1-1.927.447,2.222,2.222,0,0,1-1.483-1.567,1.734,1.734,0,0,1,.591-1.7,82.772,82.772,0,0,1,10.26-7.975,79.954,79.954,0,0,1,93.017,4.075,78.771,78.771,0,0,1,5.2,119.68,80.347,80.347,0,0,1-39.817,20.141A81.392,81.392,0,0,1,248.384,785.824ZM187.277,657.269a1.34,1.34,0,0,0-1.064.583A78.953,78.953,0,0,0,263.05,784.176a79.163,79.163,0,0,0,62.183-58.031,79.263,79.263,0,0,0-120.354-85.307,82.415,82.415,0,0,0-10.222,7.945,1.415,1.415,0,0,0-.5,1.411,1.908,1.908,0,0,0,1.275,1.341,1.621,1.621,0,0,0,1.627-.381h0a76.088,76.088,0,0,1,118.751,20.908,75.1,75.1,0,0,1-8.237,81.895,76.022,76.022,0,0,1-34.6,24.161,77.4,77.4,0,0,1-43.823,1.6,75.962,75.962,0,0,1-36.243-21.524,75.067,75.067,0,0,1-11.384-87.179,76.268,76.268,0,0,1,7.056-10.753,1.869,1.869,0,0,0-.386-2.647A1.527,1.527,0,0,0,187.277,657.269Z" transform="translate(-168.814 -627.604)"/></g><path class="d" d="M333.83,742.846A57.452,57.452,0,0,1,292.812,792a58.066,58.066,0,0,1-61.371-19.9,56.979,56.979,0,0,1-3.855-63.707,57.411,57.411,0,0,1,105.08,16.414,56.259,56.259,0,0,1,1.256,8.294c.18,2.338,3.876,2.357,3.694,0a61.222,61.222,0,0,0-42.255-53.32c-23.585-7.5-50.247.371-65.822,19.478a60.685,60.685,0,0,0-5.654,68.168,61.682,61.682,0,0,0,61.427,29.884c24.361-3.327,44.875-21.732,50.71-45.436a63,63,0,0,0,1.5-9.029c.225-2.347-3.47-2.332-3.694,0Z" transform="translate(-115.366 -30.084)"/><path class="e" d="M367.4,708.034v9.543a1.54,1.54,0,0,0,3.079,0v-9.543a1.54,1.54,0,0,0-3.079,0Z" transform="translate(-207.335 -48.299)"/><path class="e" d="M444.585,741.534l-7.388,7.388a1.54,1.54,0,0,0,2.177,2.177l7.388-7.388a1.54,1.54,0,0,0-2.177-2.177Z" transform="translate(-249.7 -69.424)"/><path class="e" d="M466.74,832.427H476.9a1.54,1.54,0,0,0,0-3.078H466.74a1.54,1.54,0,0,0,0,3.078Z" transform="translate(-267.119 -123.401)"/><path class="e" d="M278.8,742.135l7.85,7.85a1.54,1.54,0,0,0,2.177-2.177l-7.85-7.85a1.54,1.54,0,0,0-2.177,2.177Z" transform="translate(-152.963 -68.46)"/><path class="e" d="M245.3,831.639h10.466a1.54,1.54,0,0,0,0-3.079H245.3a1.54,1.54,0,0,0,0,3.079Z" transform="translate(-131.875 -122.918)"/><path class="e" d="M280.975,907.989l7.85-7.85a1.54,1.54,0,0,0-2.177-2.177l-7.85,7.85a1.54,1.54,0,0,0,2.177,2.177Z" transform="translate(-152.963 -165.125)"/><path class="e" d="M367.4,927.9v9.851a1.54,1.54,0,0,0,3.079,0V927.9a1.54,1.54,0,0,0-3.079,0Z" transform="translate(-207.335 -182.817)"/><path class="e" d="M435.62,898.957l7.85,7.85a1.54,1.54,0,0,0,2.177-2.177l-7.85-7.85a1.54,1.54,0,0,0-2.177,2.177Z" transform="translate(-248.738 -164.402)"/><path class="c" d="M64.834,709.491h38.172a1.54,1.54,0,0,0,0-3.078H64.834a1.54,1.54,0,0,0,0,3.078Z" transform="translate(-21.609 -48.205)"/><path class="c" d="M110.541,763.079h20.317a1.54,1.54,0,0,0,0-3.079H110.541a1.54,1.54,0,0,0,0,3.079Z" transform="translate(-49.462 -80.982)"/><path class="c" d="M30.159,804.057H66.485a1.54,1.54,0,0,0,0-3.078H30.159a1.54,1.54,0,0,0,0,3.078Z" transform="translate(-0.48 -106.048)"/><path class="c" d="M29.371,860.009H67.544a1.54,1.54,0,0,0,0-3.079H29.371a1.54,1.54,0,0,0,0,3.079Z" transform="translate(0 -140.271)"/><path class="c" d="M110.541,898.623h19.086a1.54,1.54,0,0,0,0-3.078H110.541a1.54,1.54,0,0,0,0,3.078Z" transform="translate(-49.462 -163.891)"/><path class="c" d="M64.046,953h38.48a1.54,1.54,0,0,0,0-3.079H64.046a1.54,1.54,0,0,0,0,3.079Z" transform="translate(-21.129 -197.15)"/><text class="f" transform="translate(154.573 717.654)"><tspan x="0" y="0">F</tspan></text></g></svg>